<svg id="Capa_1" enable-background="new 0 0 512 512" height="512" viewBox="0 0 512 512" width="512" xmlns="http://www.w3.org/2000/svg"><g><g><path d="m439.202 271.31-24.426 63.556c-23.247 60.486-109.281 59.155-130.646-2.021l-21.49-61.535z" fill="#e2f1fe"/><path d="m417.331 271.311-24.427 63.555c-9.896 25.748-31.17 40.286-53.99 43.783 30.048 4.61 62.825-9.866 75.861-43.783l24.427-63.555z" fill="#c4e3ff"/><path d="m74.797 240.69 24.861-64.279c23.348-60.368 109.252-58.948 130.593 2.158l21.695 62.121z" fill="#e2f1fe"/><path d="m230.251 178.569c-12.268-35.129-45.873-50.525-76.665-45.803 23.543 3.61 45.41 18.934 54.794 45.803l21.695 62.121h21.871z" fill="#c4e3ff"/><path d="m502.29 260.34-36.47 26.63c-3.55 2.59-8.54.05-8.54-4.34v-11.32h-449.78v-30.62h449.78v-11.32c0-4.39 4.99-6.93 8.54-4.34l36.47 26.63c2.95 2.15 2.95 6.53 0 8.68z" fill="#6c7fd8"/><path d="m502.29 251.66-36.47-26.63c-3.55-2.59-8.54-.05-8.54 4.34v7.992c0-2.969 3.37-4.681 5.768-2.93l23.592 17.228c2.94 2.15 2.94 6.53 0 8.68l-23.592 17.228c-2.397 1.751-5.768.038-5.768-2.93v7.992c0 4.39 4.99 6.93 8.54 4.34l36.47-26.63c2.95-2.15 2.95-6.53 0-8.68z" fill="#4f66d0"/><path d="m44.176 73.785h30.621v364.43h-30.621z" fill="#6c7fd8"/><g fill="#4f66d0"><path d="m59.144 81.298v152.574c0 3.765 3.053 6.818 6.818 6.818h8.835v-166.905h-23.167c4.15 0 7.514 3.364 7.514 7.513z"/><path d="m65.962 271.31c-3.765 0-6.818 3.053-6.818 6.818v152.574c0 4.149-3.364 7.513-7.513 7.513h23.167v-166.905z"/></g></g><g><path d="m224.758 263.811h-149.961c-4.143 0-7.5 3.358-7.5 7.5v159.405h-15.621v-23.651c0-4.142-3.357-7.5-7.5-7.5s-7.5 3.358-7.5 7.5v31.151c0 4.142 3.357 7.5 7.5 7.5h30.621c4.143 0 7.5-3.358 7.5-7.5v-159.405h142.461c4.143 0 7.5-3.358 7.5-7.5s-3.358-7.5-7.5-7.5z"/><path d="m506.716 245.601-36.469-26.625c-3.936-2.874-9.079-3.287-13.424-1.081-4.345 2.208-7.044 6.606-7.044 11.479v3.815h-161.185c-4.143 0-7.5 3.358-7.5 7.5s3.357 7.5 7.5 7.5h168.686c4.143 0 7.5-3.358 7.5-7.5v-7.133l30.741 22.444-30.742 22.443v-7.133c0-4.142-3.357-7.5-7.5-7.5h-189.314l-30.633-87.714c-5.571-15.951-15.593-29.205-28.981-38.331-12.42-8.465-27.122-13.074-42.519-13.328-15.395-.247-30.244 3.866-42.937 11.916-13.684 8.679-24.138 21.595-30.232 37.352l-10.366 26.802v-126.722c0-4.142-3.357-7.5-7.5-7.5h-30.621c-4.143 0-7.5 3.358-7.5 7.5v159.405h-29.176c-4.143 0-7.5 3.358-7.5 7.5v30.621c0 4.142 3.357 7.5 7.5 7.5h29.176v93.111c0 4.142 3.357 7.5 7.5 7.5s7.5-3.358 7.5-7.5v-100.611c0-4.142-3.357-7.5-7.5-7.5h-29.176v-15.621h29.176c4.143 0 7.5-3.358 7.5-7.5v-159.405h15.621v159.405c-.048 3.824 3.304 7.606 7.5 7.5h171.823l30.428 87.128c5.576 15.967 15.61 29.231 29.018 38.357 12.435 8.464 27.153 13.064 42.563 13.302 14.074.332 30.587-3.952 42.955-11.979 13.684-8.707 24.123-21.654 30.191-37.441l22.578-58.746h5.425v3.814c0 4.874 2.699 9.272 7.044 11.479 1.854.941 3.853 1.406 5.841 1.406 2.673 0 5.326-.839 7.583-2.486l36.469-26.625c3.309-2.415 5.285-6.302 5.285-10.399s-1.975-7.983-5.284-10.399zm-420.977-12.412 20.914-54.073c11.52-29.784 37.973-40 58.931-39.681 20.936.346 47.058 11.458 57.586 41.606l18.212 52.148zm322.035 98.986c-11.47 29.843-37.978 40.135-58.912 39.804-20.96-.324-47.111-11.425-57.651-41.607l-18.007-51.562h155.081z"/><path d="m163.226 160.062c-4.143 0-7.5 3.358-7.5 7.5v.965c0 4.142 3.357 7.5 7.5 7.5s7.5-3.358 7.5-7.5v-.965c0-4.142-3.358-7.5-7.5-7.5z"/><path d="m163.226 196.538c-4.143 0-7.5 3.358-7.5 7.5v.965c0 4.142 3.357 7.5 7.5 7.5s7.5-3.358 7.5-7.5v-.965c0-4.142-3.358-7.5-7.5-7.5z"/><path d="m348.213 350.548c4.143 0 7.5-3.358 7.5-7.5v-.965c0-4.142-3.357-7.5-7.5-7.5s-7.5 3.358-7.5 7.5v.965c0 4.142 3.357 7.5 7.5 7.5z"/><path d="m348.213 315.077c4.143 0 7.5-3.358 7.5-7.5v-.965c0-4.142-3.357-7.5-7.5-7.5s-7.5 3.358-7.5 7.5v.965c0 4.142 3.357 7.5 7.5 7.5z"/></g></g></svg>