<svg fill="#000000" xmlns="http://www.w3.org/2000/svg"  viewBox="0 0 128 128" width="512px" height="512px"><path d="M9.5,7c1.2,0,2.2,0.8,2.4,2l18.2,91.2c0.8,4,4.3,6.8,8.3,6.8h1.2c3.9,0,7.3-2.6,8.2-6.4l12.9-51.7c0.3-1.1,1.3-1.9,2.4-1.9 h1.4c1.1,0,2.1,0.8,2.4,1.9L75,80.6c0.9,3.8,4.3,6.4,8.2,6.4h1.4c3.9,0,7.3-2.6,8.2-6.4l12-47.9c0.4-1.6-0.6-3.2-2.2-3.6 c-1.6-0.4-3.2,0.6-3.6,2.2l-12,47.9c-0.3,1.1-1.3,1.9-2.4,1.9h-1.4c-1.1,0-2.1-0.8-2.4-1.9L73,47.4C72,43.6,68.6,41,64.7,41h-1.4 c-3.9,0-7.3,2.6-8.2,6.4L42.1,99.1c-0.3,1.1-1.3,1.9-2.4,1.9h-1.2c-1.2,0-2.2-0.8-2.4-2L17.8,7.8C17,3.9,13.5,1,9.5,1 C4.8,1,1,4.8,1,9.5V114c0,7.2,5.8,13,13,13l85,0c1.7,0,3-1.3,3-3s-1.3-3-3-3l-85,0c-3.9,0-7-3.1-7-7V9.5C7,8.1,8.1,7,9.5,7z"/><path d="M119,127h5c1.7,0,3-1.3,3-3s-1.3-3-3-3h-5c-1.7,0-3,1.3-3,3S117.3,127,119,127z"/></svg>