<svg fill="#000000" xmlns="http://www.w3.org/2000/svg"  viewBox="0 0 50 50" width="500px" height="500px"><path d="M 4 4 L 4 46 L 46 46 L 46 44 L 6 44 L 6 4 L 4 4 z M 13 6 A 1 1 0 0 0 12 7 A 1 1 0 0 0 13 8 A 1 1 0 0 0 14 7 A 1 1 0 0 0 13 6 z M 23 6 A 1 1 0 0 0 22 7 A 1 1 0 0 0 23 8 A 1 1 0 0 0 24 7 A 1 1 0 0 0 23 6 z M 33 6 A 1 1 0 0 0 32 7 A 1 1 0 0 0 33 8 A 1 1 0 0 0 34 7 A 1 1 0 0 0 33 6 z M 43 6 A 1 1 0 0 0 42 7 A 1 1 0 0 0 43 8 A 1 1 0 0 0 44 7 A 1 1 0 0 0 43 6 z M 43.960938 13.980469 A 2.0002 2.0002 0 0 0 42.585938 14.585938 L 33 24.171875 L 24.414062 15.585938 A 2.0002 2.0002 0 0 0 21.585938 15.585938 L 8.5859375 28.585938 A 2.0002 2.0002 0 1 0 11.414062 31.414062 L 23 19.828125 L 31.585938 28.414062 A 2.0002 2.0002 0 0 0 34.414062 28.414062 L 45.414062 17.414062 A 2.0002 2.0002 0 0 0 43.960938 13.980469 z M 13 16 A 1 1 0 0 0 12 17 A 1 1 0 0 0 13 18 A 1 1 0 0 0 14 17 A 1 1 0 0 0 13 16 z M 33 16 A 1 1 0 0 0 32 17 A 1 1 0 0 0 33 18 A 1 1 0 0 0 34 17 A 1 1 0 0 0 33 16 z M 23 26 A 1 1 0 0 0 22 27 A 1 1 0 0 0 23 28 A 1 1 0 0 0 24 27 A 1 1 0 0 0 23 26 z M 43 26 A 1 1 0 0 0 42 27 A 1 1 0 0 0 43 28 A 1 1 0 0 0 44 27 A 1 1 0 0 0 43 26 z M 13 36 A 1 1 0 0 0 12 37 A 1 1 0 0 0 13 38 A 1 1 0 0 0 14 37 A 1 1 0 0 0 13 36 z M 23 36 A 1 1 0 0 0 22 37 A 1 1 0 0 0 23 38 A 1 1 0 0 0 24 37 A 1 1 0 0 0 23 36 z M 33 36 A 1 1 0 0 0 32 37 A 1 1 0 0 0 33 38 A 1 1 0 0 0 34 37 A 1 1 0 0 0 33 36 z M 43 36 A 1 1 0 0 0 42 37 A 1 1 0 0 0 43 38 A 1 1 0 0 0 44 37 A 1 1 0 0 0 43 36 z"/></svg>