<svg id="icons" height="512" viewBox="0 0 340 340" width="512" xmlns="http://www.w3.org/2000/svg"><path d="m114.708 175.731-104.423 66.03 4.356 42.512 34.624 18.527 16.387-52.265 81.783-74.804z" fill="#3d4165"/><path d="m57.192 302.8 242.119-7.011-4.934-51.788-228.725 6.534z" fill="#666689"/><circle cx="104.284" cy="300.946" fill="#3d4165" r="29.637"/><circle cx="104.284" cy="300.946" fill="#fff" r="14.122"/><circle cx="250.959" cy="300.946" fill="#3d4165" r="29.637"/><circle cx="250.959" cy="300.946" fill="#fff" r="14.043"/><path d="m43.241 244.001 286.759-25.65-30.689 77.438-25.997-42.064-51.992 4.966-14.025 25.582-61.928 1.584-20.155-31.548-48.223 4.966-19.799 43.525h-7.927z" fill="#a3a3c6"/><path d="m43.241 244.001 104.194-68.27 182.565 42.62z" fill="#e4e4ff"/><path d="m101.166 224.3a2.531 2.531 0 0 1 -1.625-4.64l46.983-30.622a10.066 10.066 0 0 1 7.933-1.521l85.087 19.327a2.11 2.11 0 0 1 -.207 4.175z" fill="#3d4165"/><g fill="#666689"><path d="m241.175 215.219-4.625.47a1.042 1.042 0 0 0 -.878 1.382l3.3 9.422-17.653 32.2 6.76-.254 18.049-32.584-3.879-9.975a1.044 1.044 0 0 0 -1.074-.661z"/><path d="m167.785 232.861 2.508 52.653h7.007l-2.537-53.277-3.491-8.624a2.511 2.511 0 0 0 -2.561-1.558l-3.661.344a1.164 1.164 0 0 0 -.966 1.609z"/></g></svg>