<svg id="Layer_1" data-name="Layer 1" xmlns="http://www.w3.org/2000/svg" width="441.10367" height="272.67596" viewBox="0 0 441.10367 272.67596"><defs><style>.cls-1{fill:#366;stroke:#000;stroke-miterlimit:10;stroke-width:2px;}.cls-2{fill:#fff;}</style></defs><g id="Layer_2" data-name="Layer 2"><g id="Layer_1-2" data-name="Layer 1-2"><path class="cls-1" d="M20.04827,1H421.05539a19.04828,19.04828,0,0,1,19.04828,19.04828v1.02564A19.04827,19.04827,0,0,1,421.0554,40.12219H20.04827A19.04827,19.04827,0,0,1,1,21.07392V20.04827A19.04827,19.04827,0,0,1,20.04827,1Z"/><path class="cls-2" d="M-520.18762,24.58514q-.42553-.75-.7251-1.3374-.30029-.5874-.5498-1.125-.2505-.5376-.5503-1.1377a17.81123,17.81123,0,0,0-.8247-1.60009,11.355,11.355,0,0,0-.90039-1.29981A11.57739,11.57739,0,0,0-525.01282,16.76l.875.2749q-.67455.02564-1.1997.02539-.52515,0-1.1001-.02539l.07471-1.44971q.375.07473.63769.1001.2622.0249.5376.0249a5.57309,5.57309,0,0,0,2.125-.38769,3.42913,3.42913,0,0,0,1.5249-1.1875,3.38243,3.38243,0,0,0,.5752-2.02491,3.48156,3.48156,0,0,0-.8501-2.45019,3.61835,3.61835,0,0,0-2.7749-.92481,5.69792,5.69792,0,0,0-.875.0625,7.65258,7.65258,0,0,0-.8501.1875l.1499-.5249V20.61a6.39129,6.39129,0,0,0,.1377,1.52491,1.071,1.071,0,0,0,.47461.7124,2.2511,2.2511,0,0,0,.88769.23779,1.80313,1.80313,0,0,1,.125.6001q.0249.375.0249.75-.50023-.05052-1.1499-.0625-.6504-.01319-1.26269-.0127h-1.01221q-.77565,0-1.7002.0127-.925.01171-1.5747.0625c0-.2666.00781-.5127.0249-.73779a2.24991,2.24991,0,0,1,.125-.61231,2.58953,2.58953,0,0,0,1.0376-.25,1.11989,1.11989,0,0,0,.5122-.70019,5.21251,5.21251,0,0,0,.14991-1.42481v-9.625a5.19309,5.19309,0,0,0-.14991-1.4375,1.11455,1.11455,0,0,0-.5122-.6875,2.43509,2.43509,0,0,0-1.0625-.2251,3.77036,3.77036,0,0,1-.1001-.6748c-.01709-.25-.0249-.4751-.0249-.67529q.4746.02565,1.4375.05029.96167.0249,1.9624.0249.95,0,2.1123-.0376,1.16235-.03735,2.3877-.03759a7.83342,7.83342,0,0,1,3.25.57519,4.05449,4.05449,0,0,1,1.8501,1.57471,4.19857,4.19857,0,0,1,.5996,2.20019,4.73105,4.73105,0,0,1-.5625,2.33741,4.521,4.521,0,0,1-1.57466,1.6499,6.67307,6.67307,0,0,1-2.3877.88769l.27491-.2998a7.87358,7.87358,0,0,1,1.20019,1.09961,11.4822,11.4822,0,0,1,.9751,1.33789q.49952.78735,1.19971,2.0874a13.27821,13.27821,0,0,0,.83789,1.23731,2.20434,2.20434,0,0,0,.8374.67529,3.68167,3.68167,0,0,0,1.25.26221,6.14359,6.14359,0,0,1-.0376.70019,5.89367,5.89367,0,0,1-.1123.6499q-1.27515,0-2.4375.0376A15.03615,15.03615,0,0,0-520.18762,24.58514Z" transform="translate(544.87608 3.78525)"/><path class="cls-1" d="M20.04827,47.37442H372.88986A19.04828,19.04828,0,0,1,391.93814,66.4227v1.02563a19.04828,19.04828,0,0,1-19.04828,19.04828H20.04827A19.04827,19.04827,0,0,1,1,67.44834V66.42269A19.04827,19.04827,0,0,1,20.04827,47.37442Z"/><path class="cls-2" d="M-531.21252,70.80975c0-.30029.00781-.55859.0249-.77539a2.686,2.686,0,0,1,.1001-.5747,2.69213,2.69213,0,0,0,1.0498-.25,1.105,1.105,0,0,0,.5249-.70019,5.21255,5.21255,0,0,0,.14991-1.42481v-9.6001a5.51068,5.51068,0,0,0-.13717-1.42481,1.10173,1.10173,0,0,0-.5127-.6875,2.544,2.544,0,0,0-1.0498-.26269,3.35108,3.35108,0,0,1-.11279-.58741,6.99316,6.99316,0,0,1-.03711-.76269q1.02465.05054,1.97461.0625.95.01319,1.625.01269.50024,0,1.25-.01269.75-.01245,1.46289-.0249.71191-.01245,1.03711-.0127a7.85682,7.85682,0,0,1,3.5625.67529,4.09837,4.09837,0,0,1,1.875,1.79981,5.51189,5.51189,0,0,1,.5625,2.5,6.63031,6.63031,0,0,1-.66211,2.9375,5.25754,5.25754,0,0,1-1.9751,2.1875,5.969,5.969,0,0,1-3.23779.82519,5.2639,5.2639,0,0,1-1.75-.25,3.26912,3.26912,0,0,1-.02491-.6875,2.22091,2.22091,0,0,1,.125-.5874c.18311.0332.3628.05859.5376.0747.17481.01709.354.02491.5376.02491a3.51717,3.51717,0,0,0,1.5-.32471,2.4908,2.4908,0,0,0,1.13721-1.1499,5.04325,5.04325,0,0,0,.4375-2.3252,5.12706,5.12706,0,0,0-.88721-3.125,3.32573,3.32573,0,0,0-2.86279-1.20019,4.4914,4.4914,0,0,0-.625.05028,6.938,6.938,0,0,0-.875.19972l.32519-.3999v11.6499a4.82907,4.82907,0,0,0,.2251,1.66259,1.40674,1.40674,0,0,0,.76221.82519,4.43927,4.43927,0,0,0,1.38769.3125,2.3,2.3,0,0,1,.1377.6001,7.08912,7.08912,0,0,1,.03711.75q-.42481-.02562-1.03711-.0376-.613-.0132-1.3003-.0249-.68773-.0132-1.3623-.01269-.67531,0-1.42529.01269-.75.01171-1.41211.0249Q-530.81287,70.78461-531.21252,70.80975Z" transform="translate(544.87608 3.78525)"/><path class="cls-2" d="M-510.463,71.55975q-.59985-1.37474-1.29981-2.90039-.70018-1.52415-1.3374-2.97461-.63793-1.4502-1.1626-2.5a13.37017,13.37017,0,0,0-.85009-1.57518,2.68816,2.68816,0,0,0-.6626-.73732,1.85739,1.85739,0,0,0-.6875-.28759,3.09432,3.09432,0,0,1-.1499-.6377,5.14649,5.14649,0,0,1-.04981-.71239q.72437.02489,1.54981.03759.8247.01245,1.60009.01221.79982,0,1.83741-.01221,1.0371-.01247,1.8125-.03759a4.343,4.343,0,0,1-.0625.7373,3.10351,3.10351,0,0,1-.1626.61279q-1.22535.2-1.38721.6997a2.845,2.845,0,0,0,.4624,1.77539q.375.7251.7876,1.66211.41235.9375.79981,1.90039.38745.9624.6875,1.8125Zm3.1499-8.27539q.60059-1.47436.3252-2a1.63422,1.63422,0,0,0-1.25-.6997,3.68418,3.68418,0,0,1-.14991-.6499,4.8943,4.8943,0,0,1-.05029-.70019q.575.02489,1.2002.03759.62475.01245,1.27489.01221.67528,0,1.30029-.01221.624-.01247,1.17481-.0625a6.72171,6.72171,0,0,1-.0376.6875,2.65764,2.65764,0,0,1-.1626.6875,1.9301,1.9301,0,0,0-.72461.3247,2.1769,2.1769,0,0,0-.5625.70021q-.26293.47532-.63769,1.29979l-3.67481,8.75a28.40653,28.40653,0,0,1-1.27539,2.75,8.08847,8.08847,0,0,1-1.0874,1.6001,2.87539,2.87539,0,0,1-1.0249.75,3.03425,3.03425,0,0,1-1.11231.20019,3.135,3.135,0,0,1-1.33789-.26269,3.02,3.02,0,0,1-.8623-.5625,3.43981,3.43981,0,0,1-.04981-1.04981,5.25324,5.25324,0,0,1,.17481-1.05029q.4248.09961.95019.17529a7.61255,7.61255,0,0,0,1.07471.07471,2.93131,2.93131,0,0,0,1.375-.3125,2.77764,2.77764,0,0,0,1.0503-1.03711,18.7502,18.7502,0,0,0,.9375-1.86279q.6621-1.437,1.4375-3.4375Z" transform="translate(544.87608 3.78525)"/><path class="cls-2" d="M-497.68808,70.95966a3.25562,3.25562,0,0,1-2.4624-.85009,3.97026,3.97026,0,0,1-.8125-2.79982V61.23457a4.09638,4.09638,0,0,0-.7876-.2251,7.77573,7.77573,0,0,0-1.0376-.1001,3.63444,3.63444,0,0,1,.0625-.7124,3.37118,3.37118,0,0,1,.21241-.6626h1.55029v-3.1748a5.80179,5.80179,0,0,0,1.38721-.4375,5.00354,5.00354,0,0,0,1.13769-.6875.691.691,0,0,1,.42481.375,3.586,3.586,0,0,1,.10006,1.07518v2.84961h3.14991a5.13838,5.13838,0,0,1-.04981.7251,3.09991,3.09991,0,0,1-.17529.67529,11.52834,11.52834,0,0,0-1.5874.09961q-.71265.10035-1.33741.25v5.57521a5.36218,5.36218,0,0,0,.1626,1.47509,1.44382,1.44382,0,0,0,.4624.77491,1.21645,1.21645,0,0,0,.75.22509,2.709,2.709,0,0,0,.83741-.125,3.16819,3.16819,0,0,0,.73779-.35009,1.75131,1.75131,0,0,1,.375,1.07518,3.63478,3.63478,0,0,1-1.33789.72461A5.473,5.473,0,0,1-497.68808,70.95966Z" transform="translate(544.87608 3.78525)"/><path class="cls-2" d="M-491.3883,56.65936a3.158,3.158,0,0,0-.125-.97461.98678.98678,0,0,0-.52491-.57519,3.08458,3.08458,0,0,0-1.22509-.2251,4.22131,4.22131,0,0,1,.0498-.6626,1.56136,1.56136,0,0,1,.2002-.5625,9.757,9.757,0,0,0,1.4873-.125,12.30549,12.30549,0,0,0,1.5127-.32471,4.35482,4.35482,0,0,0,1.0249-.3999.94862.94862,0,0,1,.4624.375,1.47391,1.47391,0,0,1,.1875.82471v3.30029h-3.0498Zm10.7749,10.625a3.28354,3.28354,0,0,0,.3125,1.7251,1.17257,1.17257,0,0,0,1.0376.45019,2.67455,2.67455,0,0,1,.13768.58741,6.57722,6.57722,0,0,1,.03711.76269q-.55005-.05053-1.36229-.0625-.813-.01318-1.61231-.01269-.52515,0-1.1626.01269-.63794.01172-1.2002.0249-.5625.01245-.96239.0376,0-.39992.02489-.7378a2.26879,2.26879,0,0,1,.125-.61231,1.42446,1.42446,0,0,0,1.1875-.48779,2.99358,2.99358,0,0,0,.3877-1.7871v-3.125a3.45077,3.45077,0,0,0-.5625-2.28759,1.95452,1.95452,0,0,0-1.51269-.6128,2.04194,2.04194,0,0,0-1.23731.4375,3.19088,3.19088,0,0,0-.97509,1.33789,5.847,5.847,0,0,0-.3877,2.29982v2.04979a2.99636,2.99636,0,0,0,.3501,1.71289,1.41205,1.41205,0,0,0,1.20019.46241,2.00453,2.00453,0,0,1,.14991.61231q.0249.31274.0249.73779-.3501-.02563-.9126-.0376-.5625-.01319-1.1748-.0249-.613-.0132-1.1626-.01269-.52515,0-1.17481.01269-.65038.01172-1.23779.0249-.5874.01245-.9624.0376a7.35751,7.35751,0,0,1,.0376-.77539,2.81355,2.81355,0,0,1,.1123-.57471,1.619,1.619,0,0,0,1.33789-.4624,2.91665,2.91665,0,0,0,.36231-1.71289V63.05975l3.0498-2.75a5.46375,5.46375,0,0,1-.0498.6875,5.35842,5.35842,0,0,1-.17481.8125q.12453-.24974.25-.5a2.17821,2.17821,0,0,1,.32472-.47509,5.17085,5.17085,0,0,1,1.39989-1.11279,4.20675,4.20675,0,0,1,2.15042-.53712,4.46145,4.46145,0,0,1,1.875.3999,3.18041,3.18041,0,0,1,1.41211,1.2876,4.58361,4.58361,0,0,1,.5376,2.38721Zm-10.7749-10.84961h3.0498v3.875l-3.0498,3.29982Z" transform="translate(544.87608 3.78525)"/><path class="cls-2" d="M-471.5885,70.95966a6.668,6.668,0,0,1-3.19971-.72509,4.93738,4.93738,0,0,1-2.0625-2.04982,6.44777,6.44777,0,0,1-.71289-3.10009,6.24135,6.24135,0,0,1,.78759-3.20019,5.42641,5.42641,0,0,1,2.1626-2.0874,6.45894,6.45894,0,0,1,3.1001-.73731,6.63848,6.63848,0,0,1,3.28759.75,5.03949,5.03949,0,0,1,2.03711,2.07471,6.43215,6.43215,0,0,1,.7002,3.05029,6.29775,6.29775,0,0,1-.7627,3.1499,5.45185,5.45185,0,0,1-2.125,2.1123A6.46766,6.46766,0,0,1-471.5885,70.95966Zm.30029-1.4253a2.08277,2.08277,0,0,0,1.92482-1.16211,6.02611,6.02611,0,0,0,.6499-2.96289,7.55283,7.55283,0,0,0-.4248-2.6875,3.9608,3.9608,0,0,0-1.125-1.6875,2.35562,2.35562,0,0,0-1.52491-.5747,2.05842,2.05842,0,0,0-1.92529,1.125,5.76281,5.76281,0,0,0-.625,2.8247,8.8548,8.8548,0,0,0,.375,2.71289,4.08525,4.08525,0,0,0,1.05029,1.78711A2.30453,2.30453,0,0,0-471.28821,69.53436Z" transform="translate(544.87608 3.78525)"/><path class="cls-2" d="M-451.16321,67.28436a3.1766,3.1766,0,0,0,.3252,1.7251,1.17714,1.17714,0,0,0,1.0249.45019,1.75343,1.75343,0,0,1,.1499.58741q.02493.31273.02491.76269-.55-.05053-1.35009-.0625-.7998-.01318-1.59961-.01269-.52515,0-1.1626.01269-.63793.01172-1.2124.0249-.57568.01245-.9751.0376a6.6167,6.6167,0,0,1,.0376-.7378,2.62743,2.62743,0,0,1,.1372-.61231,1.39559,1.39559,0,0,0,1.16259-.48779,2.99353,2.99353,0,0,0,.38771-1.78711v-3.125a3.45077,3.45077,0,0,0-.5625-2.28759,1.95452,1.95452,0,0,0-1.51271-.6128,2.0642,2.0642,0,0,0-1.22509.4375,3.06017,3.06017,0,0,0-.97509,1.33789,6.03,6.03,0,0,0-.375,2.29982v2.04979a2.99627,2.99627,0,0,0,.35009,1.71289,1.41205,1.41205,0,0,0,1.20019.46241,2.614,2.614,0,0,1,.125.61231c.01612.20849.0249.45459.0249.73779q-.35007-.02563-.8999-.0376-.55007-.01319-1.1626-.0249-.613-.0132-1.1875-.01269-.52514,0-1.17479.01269-.6504.01172-1.2378.0249-.5874.01245-.96241.0376a7.35751,7.35751,0,0,1,.0376-.77539,1.9463,1.9463,0,0,1,.13721-.57471,1.57844,1.57844,0,0,0,1.32519-.4624,2.99628,2.99628,0,0,0,.35009-1.71289V63.05975l3.07471-2.75a5.46376,5.46376,0,0,1-.04981.6875,5.3596,5.3596,0,0,1-.1748.8125q.12451-.24974.2373-.5a1.61594,1.61594,0,0,1,.33741-.47509,5.21676,5.21676,0,0,1,1.38769-1.11279,4.186,4.186,0,0,1,2.16259-.53711,4.46107,4.46107,0,0,1,1.875.3999,3.11067,3.11067,0,0,1,1.39991,1.28759,4.67211,4.67211,0,0,1,.5249,2.38721Zm-10.77487-1.8247V63.05975a4.10447,4.10447,0,0,0-.11279-1.07518.94179.94179,0,0,0-.5-.6001,3.20955,3.20955,0,0,0-1.2124-.25,4.16075,4.16075,0,0,1,.05029-.6626,1.56072,1.56072,0,0,1,.19971-.5625,13.2312,13.2312,0,0,0,2.26268-.2998,7.79744,7.79744,0,0,0,1.73732-.54981.934.934,0,0,1,.4624.38721,1.59817,1.59817,0,0,1,.1875.86279Z" transform="translate(544.87608 3.78525)"/><path class="cls-1" d="M20.04827,93.43053H297.16574A19.04828,19.04828,0,0,1,316.214,112.47881v1.02564a19.04827,19.04827,0,0,1-19.04827,19.04827H20.04827A19.04827,19.04827,0,0,1,1,113.50445V112.4788A19.04827,19.04827,0,0,1,20.04827,93.43053Z"/><path class="cls-2" d="M-526.46252,113.59052a23.39864,23.39864,0,0,1-.1875,3.1128,7.62882,7.62882,0,0,1-.7627,2.5,6.866,6.866,0,0,1-1.6499,2.03759,13.17589,13.17589,0,0,1-2.8252,1.77491,1.12528,1.12528,0,0,1-.41259-.45021,2.033,2.033,0,0,1-.1875-.5747,8.81294,8.81294,0,0,0,1.57519-1.57519,5.7377,5.7377,0,0,0,.9375-1.9502,10.424,10.424,0,0,0,.3125-2.75V103.56561a5.77557,5.77557,0,0,0-.13769-1.4624,1.07082,1.07082,0,0,0-.5-.6875,2.65438,2.65438,0,0,0-1.0625-.25,3.37652,3.37652,0,0,1-.11231-.61231,7.19442,7.19442,0,0,1-.0376-.73779q.42482.02563,1,.03759.575.0132,1.21241.02491.63793.01318,1.23779.0127.90015,0,1.88721-.02491.9873-.0249,1.5625-.05029,0,.40063-.02491.73779a2.28767,2.28767,0,0,1-.125.61231,2.40882,2.40882,0,0,0-1.0498.2749,1.15359,1.15359,0,0,0-.5127.71241,5.51852,5.51852,0,0,0-.1372,1.41259Z" transform="translate(544.87608 3.78525)"/><path class="cls-2" d="M-514.76282,117.01582a1.02173,1.02173,0,0,1-.5498-.4878,2.13014,2.13014,0,0,1-.17529-.96241,4.95489,4.95489,0,0,1,.05029-.6499,4.28842,4.28842,0,0,1,.1499-.7002l.0752-.0498a4.36727,4.36727,0,0,1-.4502,1.0625,3.19051,3.19051,0,0,1-.7251.8623,3.59159,3.59159,0,0,1-1.1748.6377,5.064,5.064,0,0,1-1.625.2373,3.91646,3.91646,0,0,1-2.5376-.72461,2.46917,2.46917,0,0,1-.88769-2.02539,2.925,2.925,0,0,1,.45019-1.6372,3.9055,3.9055,0,0,1,1.2002-1.1626,7.19853,7.19853,0,0,1,1.6372-.7627,13.55129,13.55129,0,0,1,1.8003-.4497q.91187-.1626,1.6875-.2876,0-.84962-.0376-1.36231a3.56619,3.56619,0,0,0-.1499-.85009,1.48507,1.48507,0,0,0-.3628-.58741,1.66532,1.66532,0,0,0-.6499-.51269,1.98873,1.98873,0,0,0-.7998-.1626,1.57759,1.57759,0,0,0-1.1875.45021,2.6703,2.6703,0,0,0-.6377,1.11229,6.11144,6.11144,0,0,0-.25,1.26271q-.47535,0-.95019-.0376a2.86672,2.86672,0,0,1-.79981-.1626,13.74521,13.74521,0,0,0,.0249-1.44971,7.83969,7.83969,0,0,0-.1748-1.45018,10.608,10.608,0,0,1,2.32471-.77491,11.32091,11.32091,0,0,1,2.375-.27491,5.80657,5.80657,0,0,1,2.03759.29982,3.2169,3.2169,0,0,1,1.21241.75,3.29761,3.29761,0,0,1,.82519,1.53759,11.23646,11.23646,0,0,1,.25,2.6875v2.39991a4.98322,4.98322,0,0,0,.11231,1.1875.91869.91869,0,0,0,.42529.61229,2.20644,2.20644,0,0,0,.9624.20021,3.0123,3.0123,0,0,1,.0127.72509,2.18969,2.18969,0,0,1-.1875.6997,8.412,8.412,0,0,0-1.6875.2378A7.96158,7.96158,0,0,0-514.76282,117.01582Zm-3.3999-1.8501a1.93593,1.93593,0,0,0,1.0625-.3501,2.66866,2.66866,0,0,0,.8999-1.0625,4.04985,4.04985,0,0,0,.3628-1.8374v-.7749q-.7002.10032-1.3628.2622a5.38957,5.38957,0,0,0-1.1748.4253,2.19445,2.19445,0,0,0-.8125.6875,1.8647,1.8647,0,0,0-.30029,1.10009,1.54,1.54,0,0,0,.40039,1.17481,1.31027,1.31027,0,0,0,.9248.375Z" transform="translate(544.87608 3.78525)"/><path class="cls-2" d="M-505.18808,117.01582q-.24975-.62478-.66211-1.5625-.41309-.9375-.90039-2.02491-.48708-1.08763-.9624-2.13769-.47535-1.0503-.86231-1.875-.38817-.82471-.5874-1.25a8.10226,8.10226,0,0,0-.55029-.9375,1.2597,1.2597,0,0,0-1-.61231,4.63529,4.63529,0,0,1-.1499-.63769,4.50175,4.50175,0,0,1-.0498-.7124q.5493.0249,1.34961.04979.7998.02563,1.70019.02491.59985,0,1.23731-.0122.63792-.01247,1.21289-.02491.57423-.01246.97461-.03759a3.98271,3.98271,0,0,1-.0625.6997q-.06225.35084-.13722.625-1.10081.10035-1.30028.41259-.2.31276.25,1.2876.22558.4497.51269,1.1499t.6377,1.5503q.34935.84962.6875,1.71241.3369.862.6123,1.66259h-.52491q.62478-1.57544,1.125-2.82519.49953-1.24953.97511-2.3999a2.79871,2.79871,0,0,0,.33739-1.9126,1.22759,1.22759,0,0,0-1.13769-.61231,3.61414,3.61414,0,0,1-.19971-.66259,3.3775,3.3775,0,0,1-.07519-.6875q.49951.0249,1.125.04979.62475.02563,1.25.02491.64965,0,1.2998-.02491.6504-.02415,1.125-.04979a5.405,5.405,0,0,1-.0498.73729,1.61265,1.61265,0,0,1-.2002.6128,1.82017,1.82017,0,0,0-.69971.33741,2.48741,2.48741,0,0,0-.57519.7124,11.483,11.483,0,0,0-.625,1.32519l-3.3999,7.75a3.06526,3.06526,0,0,1-.7876.22461A4.24166,4.24166,0,0,1-505.18808,117.01582Z" transform="translate(544.87608 3.78525)"/><path class="cls-2" d="M-488.838,117.01582a1.02187,1.02187,0,0,1-.54981-.4878,2.13027,2.13027,0,0,1-.17529-.96241,4.95489,4.95489,0,0,1,.05029-.6499,4.28949,4.28949,0,0,1,.14991-.7002l.07519-.0498a4.36724,4.36724,0,0,1-.45019,1.0625,3.191,3.191,0,0,1-.7251.8623,3.59164,3.59164,0,0,1-1.17481.6377,5.064,5.064,0,0,1-1.625.2373,3.91645,3.91645,0,0,1-2.53759-.72461,2.46917,2.46917,0,0,1-.8877-2.02539,2.925,2.925,0,0,1,.4502-1.6372,3.90535,3.90535,0,0,1,1.20019-1.1626,7.1986,7.1986,0,0,1,1.63721-.7627,13.55153,13.55153,0,0,1,1.80029-.4497q.91186-.1626,1.6875-.2876,0-.84962-.0376-1.36231a3.56569,3.56569,0,0,0-.1499-.85009,1.48493,1.48493,0,0,0-.36279-.58741,1.66524,1.66524,0,0,0-.6499-.51269,1.98869,1.98869,0,0,0-.7998-.1626,1.57759,1.57759,0,0,0-1.1875.45021,2.6704,2.6704,0,0,0-.6377,1.11229,6.11144,6.11144,0,0,0-.25,1.26271q-.47534,0-.9502-.0376a2.86672,2.86672,0,0,1-.7998-.1626,13.74791,13.74791,0,0,0,.0249-1.44971,7.83885,7.83885,0,0,0-.17481-1.45018,10.6084,10.6084,0,0,1,2.32471-.77491,11.321,11.321,0,0,1,2.375-.27491,5.80665,5.80665,0,0,1,2.03761.29982,3.21687,3.21687,0,0,1,1.21239.75,3.29754,3.29754,0,0,1,.8252,1.53759,11.237,11.237,0,0,1,.25,2.6875v2.39991a4.98321,4.98321,0,0,0,.1123,1.1875.91875.91875,0,0,0,.42529.61229,2.20651,2.20651,0,0,0,.96241.20021,3.01333,3.01333,0,0,1,.0127.72509,2.19,2.19,0,0,1-.1875.6997,8.41188,8.41188,0,0,0-1.6875.2378A7.96145,7.96145,0,0,0-488.838,117.01582Zm-3.3999-1.8501a1.936,1.936,0,0,0,1.0625-.3501,2.66866,2.66866,0,0,0,.8999-1.0625,4.05,4.05,0,0,0,.36279-1.8374v-.7749q-.7002.10032-1.36279.2622a5.38946,5.38946,0,0,0-1.17481.4253,2.19462,2.19462,0,0,0-.8125.6875,1.86477,1.86477,0,0,0-.30029,1.10009,1.54,1.54,0,0,0,.40039,1.17481,1.31033,1.31033,0,0,0,.92481.375Z" transform="translate(544.87608 3.78525)"/><path class="cls-1" d="M20.04827,139.80495H239.814a19.04826,19.04826,0,0,1,19.04826,19.04826v1.02567A19.04826,19.04826,0,0,1,239.814,178.92714H20.04827A19.04827,19.04827,0,0,1,1,159.87887v-1.02565a19.04827,19.04827,0,0,1,19.04827-19.04827Z"/><path class="cls-2" d="M-521.66272,163.39032l-5.9751-13.1499h.39991l-.82471,7.9497a11.36629,11.36629,0,0,0-.0249,2.25,1.52175,1.52175,0,0,0,.5,1.0752,2.20321,2.20321,0,0,0,1.09961.375,2.70688,2.70688,0,0,1,.125.6748q.0249.375.02539.6753-.52515-.05057-1.2876-.0625-.76318-.01318-1.4126-.0127-.3999,0-.9126.0127-.51268.01172-.9873.0249-.47533.01245-.80029.0376,0-.3003.03759-.6753a4.67551,4.67551,0,0,1,.1128-.6748,2.09328,2.09328,0,0,0,1.0625-.375,2.12406,2.12406,0,0,0,.625-1.0874,13.03942,13.03942,0,0,0,.3872-2.33791l.7002-8a5.11643,5.11643,0,0,0-.0249-1.5498,1.13215,1.13215,0,0,0-.5127-.77491,2.18325,2.18325,0,0,0-1.0874-.22509,2.60933,2.60933,0,0,1-.125-.64991c-.01709-.23339-.0249-.4663-.0249-.70019q.29955.02563.7373.0376.43727.01319.8877.0249.4497.01319.7998.01269.3501,0,.7876-.01269.43725-.01245.8623-.0249.42482-.01245.7251-.0376l6.04981,13.67529h-.67481l5.2749-13.67529q.3501.02563.7876.0376.43727.01319.8877.0249.4497.01319.7998.01269c.2334,0,.49121-.0039.7749-.01269.28321-.0083.5625-.01611.83741-.0249q.41307-.01245.76269-.0376c0,.23389-.00879.4668-.0249.70019a2.6773,2.6773,0,0,1-.125.64991,1.66152,1.66152,0,0,0-1.3999.5498,3.15073,3.15073,0,0,0-.27539,2.1001l.85009,8.42529a11.45881,11.45881,0,0,0,.3252,1.98731,1.65645,1.65645,0,0,0,.5625.9375,2.1477,2.1477,0,0,0,.9624.32519,4.77148,4.77148,0,0,1,.11231.6621,6.83125,6.83125,0,0,1,.03759.7129q-.29955-.02563-.75-.0376-.4497-.01317-.97509-.0249-.52443-.01318-1.01221-.01269h-.8877q-.47535,0-1.1123.01269-.63794.01172-1.2124.0249-.5757.01246-.9751.0376a4.89257,4.89257,0,0,1,.0498-.70019,6.44021,6.44021,0,0,1,.125-.64991,2.735,2.735,0,0,0,1.14991-.3374,1.09628,1.09628,0,0,0,.41259-.8501,9.04344,9.04344,0,0,0-.0625-1.76269l-.9248-8.75h.375l-5.30029,13.0249a2.65274,2.65274,0,0,1-.61231.1377A6.24885,6.24885,0,0,1-521.66272,163.39032Z" transform="translate(544.87608 3.78525)"/><path class="cls-2" d="M-499.68808,163.39032a1.02168,1.02168,0,0,1-.5498-.48779,2.13,2.13,0,0,1-.1753-.96241,4.95517,4.95517,0,0,1,.0503-.6499,4.28808,4.28808,0,0,1,.1499-.70019l.07519-.04981a4.36708,4.36708,0,0,1-.45019,1.0625,3.19059,3.19059,0,0,1-.72511.86231,3.59128,3.59128,0,0,1-1.1748.63769,5.064,5.064,0,0,1-1.625.23731,3.91648,3.91648,0,0,1-2.5376-.7246,2.46916,2.46916,0,0,1-.8877-2.0254,2.92484,2.92484,0,0,1,.4502-1.63721,3.90524,3.90524,0,0,1,1.20019-1.1626,7.19877,7.19877,0,0,1,1.63721-.76269,13.55311,13.55311,0,0,1,1.80029-.44971q.91188-.1626,1.6875-.2876,0-.8496-.03759-1.3623a3.56578,3.56578,0,0,0-.14991-.8501,1.48467,1.48467,0,0,0-.36279-.5874,1.66533,1.66533,0,0,0-.64989-.5127,1.98874,1.98874,0,0,0-.79981-.1626,1.57764,1.57764,0,0,0-1.1875.4502,2.67037,2.67037,0,0,0-.63769,1.1123,6.11056,6.11056,0,0,0-.25,1.2627q-.47535,0-.9502-.0376a2.86636,2.86636,0,0,1-.7998-.1626,13.74776,13.74776,0,0,0,.02489-1.4497,7.84,7.84,0,0,0-.1748-1.4502,10.60829,10.60829,0,0,1,2.3247-.7749,11.31965,11.31965,0,0,1,2.375-.2749,5.80658,5.80658,0,0,1,2.0376.2998,3.21724,3.21724,0,0,1,1.2124.75,3.29762,3.29762,0,0,1,.8252,1.5376,11.237,11.237,0,0,1,.25,2.6875v2.3999a4.98373,4.98373,0,0,0,.1123,1.1875.91875.91875,0,0,0,.4253.61231,2.20659,2.20659,0,0,0,.9624.20019,3.01238,3.01238,0,0,1,.01269.7251,2.18981,2.18981,0,0,1-.1875.69971,8.41269,8.41269,0,0,0-1.6875.23779A7.9621,7.9621,0,0,0-499.68808,163.39032Zm-3.3999-1.8501a1.93593,1.93593,0,0,0,1.0625-.3501,2.66866,2.66866,0,0,0,.8999-1.0625,4.05,4.05,0,0,0,.36279-1.8374v-.7749q-.70019.10034-1.36279.26221a5.39006,5.39006,0,0,0-1.1748.42529,2.19447,2.19447,0,0,0-.8125.6875,1.86474,1.86474,0,0,0-.3003,1.1001,1.54,1.54,0,0,0,.40039,1.1748,1.31029,1.31029,0,0,0,.92478.375Z" transform="translate(544.87608 3.78525)"/><path class="cls-2" d="M-490.26282,163.39032a3.25551,3.25551,0,0,1-2.4624-.8501,3.97021,3.97021,0,0,1-.8125-2.7998v-6.0752a4.09782,4.09782,0,0,0-.7876-.2251,7.77888,7.77888,0,0,0-1.03759-.10009,3.63454,3.63454,0,0,1,.0625-.71241,3.371,3.371,0,0,1,.21239-.66259h1.55029v-3.17481a5.80061,5.80061,0,0,0,1.38721-.4375,5.00338,5.00338,0,0,0,1.1377-.6875.691.691,0,0,1,.4248.375,3.58549,3.58549,0,0,1,.10011,1.0752V151.965h3.14989a5.137,5.137,0,0,1-.0498.7251,3.10077,3.10077,0,0,1-.17529.67529,11.52667,11.52667,0,0,0-1.5874.0996q-.71265.10037-1.3374.25v5.57519a5.36178,5.36178,0,0,0,.16259,1.4751,1.44368,1.44368,0,0,0,.46241.7749,1.21629,1.21629,0,0,0,.75.2251,2.70872,2.70872,0,0,0,.8374-.125,3.1682,3.1682,0,0,0,.73779-.3501,1.75145,1.75145,0,0,1,.375,1.0752,3.635,3.635,0,0,1-1.33789.72459A5.47271,5.47271,0,0,1-490.26282,163.39032Z" transform="translate(544.87608 3.78525)"/><path class="cls-2" d="M-485.81308,163.24042q0-.375.0249-.7251a2.31719,2.31719,0,0,1,.125-.625,1.69773,1.69773,0,0,0,1.3501-.4751,2.92847,2.92847,0,0,0,.3501-1.70019v-10.7246a2.595,2.595,0,0,0-.1377-.91259.993.993,0,0,0-.53711-.5503,3.20157,3.20157,0,0,0-1.20019-.2124,4.22011,4.22011,0,0,1,.0498-.6626,1.5618,1.5618,0,0,1,.2002-.5625,9.75315,9.75315,0,0,0,1.4873-.125,12.30136,12.30136,0,0,0,1.5127-.3247,4.35459,4.35459,0,0,0,1.0249-.39991.94852.94852,0,0,1,.4624.375,1.47385,1.47385,0,0,1,.1875.82471V159.715a3.01616,3.01616,0,0,0,.33789,1.7002,1.45152,1.45152,0,0,0,1.1875.4751,2.39572,2.39572,0,0,1,.125.6499c.01612.25.02491.4834.02491.70019q-.375-.02563-.9126-.03759-.5376-.01318-1.1499-.02491-.613-.01319-1.21241-.01269-.60059,0-1.22509.01269-.62549.01173-1.1626.02491Q-485.43808,163.21529-485.81308,163.24042Z" transform="translate(544.87608 3.78525)"/><path class="cls-2" d="M-469.5885,163.39032a1.02175,1.02175,0,0,1-.5498-.48779,2.13,2.13,0,0,1-.1753-.96241,4.95689,4.95689,0,0,1,.0503-.6499,4.28706,4.28706,0,0,1,.14991-.70019l.07518-.04981a4.367,4.367,0,0,1-.45018,1.0625,3.19073,3.19073,0,0,1-.7251.86231,3.59128,3.59128,0,0,1-1.1748.63769,5.064,5.064,0,0,1-1.625.23731,3.9165,3.9165,0,0,1-2.5376-.7246,2.46917,2.46917,0,0,1-.8877-2.0254,2.92484,2.92484,0,0,1,.4502-1.63721,3.90524,3.90524,0,0,1,1.20019-1.1626,7.19857,7.19857,0,0,1,1.63721-.76269,13.55311,13.55311,0,0,1,1.80029-.44971q.91188-.1626,1.6875-.2876,0-.8496-.03759-1.3623a3.56578,3.56578,0,0,0-.14991-.8501,1.4849,1.4849,0,0,0-.36279-.5874,1.66543,1.66543,0,0,0-.6499-.5127,1.98879,1.98879,0,0,0-.79982-.1626,1.57764,1.57764,0,0,0-1.1875.4502,2.67046,2.67046,0,0,0-.63768,1.1123,6.11056,6.11056,0,0,0-.25,1.2627q-.47535,0-.95021-.0376a2.86629,2.86629,0,0,1-.79979-.1626,13.75045,13.75045,0,0,0,.0249-1.4497,7.84,7.84,0,0,0-.1748-1.4502,10.60812,10.60812,0,0,1,2.3247-.7749,11.31965,11.31965,0,0,1,2.375-.2749,5.80658,5.80658,0,0,1,2.0376.2998,3.21724,3.21724,0,0,1,1.2124.75,3.29762,3.29762,0,0,1,.8252,1.5376,11.237,11.237,0,0,1,.25,2.6875v2.3999a4.98373,4.98373,0,0,0,.1123,1.1875.91875.91875,0,0,0,.4253.61231,2.20631,2.20631,0,0,0,.9624.20019,3.01238,3.01238,0,0,1,.01269.7251,2.18981,2.18981,0,0,1-.1875.69971,8.41269,8.41269,0,0,0-1.6875.23779A7.96127,7.96127,0,0,0-469.5885,163.39032Zm-3.3999-1.8501a1.93593,1.93593,0,0,0,1.0625-.3501,2.66866,2.66866,0,0,0,.8999-1.0625,4.04984,4.04984,0,0,0,.36279-1.8374v-.7749q-.70018.10034-1.36279.26221a5.39006,5.39006,0,0,0-1.1748.42529,2.19462,2.19462,0,0,0-.8125.6875,1.86488,1.86488,0,0,0-.3003,1.1001,1.54,1.54,0,0,0,.40039,1.1748A1.31028,1.31028,0,0,0-472.9884,161.54022Z" transform="translate(544.87608 3.78525)"/><path class="cls-2" d="M-458.3136,163.39032a11.40382,11.40382,0,0,1-2.3125-.2251,8.17943,8.17943,0,0,1-1.91259-.625,5.2857,5.2857,0,0,1-1.3501-.8999,2.22575,2.22575,0,0,0,.4375-1,10.00266,10.00266,0,0,0,.13769-1.92529V149.09a3.15827,3.15827,0,0,0-.125-.9746.98678.98678,0,0,0-.52491-.57519,3.08458,3.08458,0,0,0-1.22509-.2251,4.22012,4.22012,0,0,1,.04981-.6626,1.5616,1.5616,0,0,1,.20019-.5625,9.75328,9.75328,0,0,0,1.48731-.125,12.3016,12.3016,0,0,0,1.51269-.3247,4.35509,4.35509,0,0,0,1.02491-.39991.94857.94857,0,0,1,.4624.375,1.47385,1.47385,0,0,1,.1875.82471v5.80029a7.38816,7.38816,0,0,1-.04981.96241q-.05055.36253-.125.7373l-.1748,2-.52539-.75a10.30935,10.30935,0,0,1,.67529-1.38721,4.10881,4.10881,0,0,1,.54981-.73779,3.36767,3.36767,0,0,1,.7378-.7124,4.6391,4.6391,0,0,1,1.16211-.61231,4.1476,4.1476,0,0,1,1.45018-.25,5.43044,5.43044,0,0,1,2.54982.5625,3.87922,3.87922,0,0,1,1.67529,1.75,6.85719,6.85719,0,0,1,.6001,3.08741,6.62587,6.62587,0,0,1-.82521,3.3125,6.157,6.157,0,0,1-2.29979,2.3247A6.71155,6.71155,0,0,1-458.3136,163.39032Zm-2.25-2.55029a3.8468,3.8468,0,0,0,.98731.875,2.49185,2.49185,0,0,0,1.3125.32519,3.16478,3.16478,0,0,0,1.0625-.20019,2.97261,2.97261,0,0,0,1.07519-.69971,3.65141,3.65141,0,0,0,.83741-1.42529,7.29237,7.29237,0,0,0,.32518-2.375,5.68273,5.68273,0,0,0-.375-2.2246,3.27482,3.27482,0,0,0-.95018-1.32519,1.92474,1.92474,0,0,0-1.19971-.4502,2.296,2.296,0,0,0-1.3125.4375,3.13181,3.13181,0,0,0-1.05029,1.4126,6.86932,6.86932,0,0,0-.4126,2.625v3.80029Z" transform="translate(544.87608 3.78525)"/><path class="cls-1" d="M20.04827,186.17937H193.883a19.04826,19.04826,0,0,1,19.04826,19.04826v1.02567A19.04826,19.04826,0,0,1,193.883,225.30156H20.04827A19.04827,19.04827,0,0,1,1,206.25329v-1.02565a19.04827,19.04827,0,0,1,19.04827-19.04827Z"/><path class="cls-2" d="M-523.11291,209.76483a8.88222,8.88222,0,0,1-4.44971-1.07519,7.32863,7.32863,0,0,1-2.9375-3.0625,10.109,10.109,0,0,1-1.0376-4.73731,9.14329,9.14329,0,0,1,.6875-3.6626,7.34212,7.34212,0,0,1,1.8999-2.6499,8.35033,8.35033,0,0,1,2.8003-1.61279,10.28594,10.28594,0,0,1,3.3872-.54981,14.95563,14.95563,0,0,1,3.3003.3501,12.66632,12.66632,0,0,1,2.6499.875,12.11878,12.11878,0,0,0-.2251,1.82471q-.05052.9756-.0498,2.05029a3.1344,3.1344,0,0,1-.8125.19971,7.73753,7.73753,0,0,1-.8877.05029,5.1643,5.1643,0,0,0-.57519-2.4751,2.79486,2.79486,0,0,0-1.375-1.2124,5.25142,5.25142,0,0,0-1.94971-.3374,4.848,4.848,0,0,0-3.0752.9375,5.45188,5.45188,0,0,0-1.7622,2.4375,9.10859,9.10859,0,0,0-.5625,3.22461,12.43527,12.43527,0,0,0,.6123,4.02539,6.48234,6.48234,0,0,0,1.8252,2.8623,4.36946,4.36946,0,0,0,2.9873,1.0625,7.90282,7.90282,0,0,0,1.0752-.0625,4.4388,4.4388,0,0,0,.9248-.2373,1.2875,1.2875,0,0,0,.61231-.5376,2.82926,2.82926,0,0,0,.21289-1.3125v-1.125a5.91266,5.91266,0,0,0-.1377-1.5.87426.87426,0,0,0-.57519-.625,4.73657,4.73657,0,0,0-1.3125-.17529,2.67858,2.67858,0,0,1-.13721-.63721,7.44579,7.44579,0,0,1-.0376-.76269q.575.02565,1.48731.05029.9126.02493,1.71289.0249.77418,0,1.6997-.01269.925-.01243,1.4502-.03759c0,.2002-.00879.4253-.0249.6753a3.09958,3.09958,0,0,1-.125.6997,1.5105,1.5105,0,0,0-.71289.1753.86544.86544,0,0,0-.32471.60009,8.03346,8.03346,0,0,0-.0874,1.39991v.9497a7.04631,7.04631,0,0,0,.0747,1.125,3.17845,3.17845,0,0,0,.3003.90039,9.98392,9.98392,0,0,1-2.7876,1.34961A12.01324,12.01324,0,0,1-523.11291,209.76483Z" transform="translate(544.87608 3.78525)"/><path class="cls-2" d="M-511.338,196.28975a5.51023,5.51023,0,0,0-.13721-1.42481,1.1017,1.1017,0,0,0-.51269-.6875,2.54388,2.54388,0,0,0-1.04981-.26269,3.37369,3.37369,0,0,1-.11279-.61231,7.19691,7.19691,0,0,1-.03711-.73779q.4497.02563,1.0498.0376.59987.01318,1.2373.0249.63795.01318,1.1875.0127.575,0,1.17529-.0127.59985-.01245,1.17481-.0249t1.07519-.0376c0,.25-.00879.48779-.02489.71242a2.04684,2.04684,0,0,1-.1504.63769,2.63951,2.63951,0,0,0-1.02489.25,1.05694,1.05694,0,0,0-.51221.6875,5.64153,5.64153,0,0,0-.1377,1.4375v9.6001a5.66041,5.66041,0,0,0,.1377,1.42481,1.06167,1.06167,0,0,0,.51221.70019,2.69211,2.69211,0,0,0,1.05029.25,2.84176,2.84176,0,0,1,.1123.5874,7.44584,7.44584,0,0,1,.0376.7627q-.7002-.05054-1.5625-.0625-.86279-.01319-1.76269-.0127-.925,0-1.88721.0127-.96314.01172-1.6875.0625a7.19974,7.19974,0,0,1,.0371-.73779,3.38232,3.38232,0,0,1,.11279-.61231,2.69178,2.69178,0,0,0,1.04981-.25,1.06365,1.06365,0,0,0,.51269-.70019,5.68733,5.68733,0,0,0,.13721-1.42481Z" transform="translate(544.87608 3.78525)"/><path class="cls-2" d="M-500.338,193.98993a3.28306,3.28306,0,0,0-1.7124.375,2.27889,2.27889,0,0,0-.9126,1.0625,8.43706,8.43706,0,0,0-.5,1.66211,7.83287,7.83287,0,0,1-.875-.04981,2.11086,2.11086,0,0,1-.7749-.22509,21.84325,21.84325,0,0,0,.35009-2.1875,19.11788,19.11788,0,0,0,.125-2.0625q.79982.02565,1.82471.05029,1.0254.02493,2.2627.0249h5.45019q1.262,0,2.29981-.0249,1.0371-.02488,1.8374-.05029-.0249.9507.05029,2.01269.07471,1.06277.22461,2.23731a3.044,3.044,0,0,1-.75.22509,4.12216,4.12216,0,0,1-.9248.04981,4.14394,4.14394,0,0,0-.7627-2.32471,2.522,2.522,0,0,0-2.0625-.7749Zm.8999-.6001h3.2002v12.5a4.81481,4.81481,0,0,0,.16259,1.42481,1.09548,1.09548,0,0,0,.6123.70019,3.96383,3.96383,0,0,0,1.3252.25,1.97454,1.97454,0,0,1,.13721.5874,7.31169,7.31169,0,0,1,.0376.7627q-.7749-.05052-1.76221-.0625-.988-.01316-2.0376-.0127-.70018,0-1.4624.0127-.7632.01175-1.4375.0249-.67529.01248-1.17529.0376a5.33965,5.33965,0,0,1,.05029-.73779,4.08638,4.08638,0,0,1,.125-.61231,4.36712,4.36712,0,0,0,1.36231-.25,1.16659,1.16659,0,0,0,.6748-.70019,4.22708,4.22708,0,0,0,.1875-1.42481Z" transform="translate(544.87608 3.78525)"/><path class="cls-1" d="M20.04827,232.55379H137.02782a19.04826,19.04826,0,0,1,19.04826,19.04826v1.02565A19.04826,19.04826,0,0,1,137.02782,271.676H20.04827A19.04827,19.04827,0,0,1,1,252.6277v-1.02564a19.04827,19.04827,0,0,1,19.04827-19.04827Z"/></g></g><path class="cls-2" d="M-525.4585,256.97461a9.30907,9.30907,0,0,1-2.875-.41211,13.72274,13.72274,0,0,1-2.5498-1.1377,15.68025,15.68025,0,0,0,.2251-1.96191q.0498-.9873.0498-1.78809a5.07023,5.07023,0,0,1,.92529-.1748q.49952-.0498.97461-.0498a8.277,8.277,0,0,0,.4375,2.27441,2.51732,2.51732,0,0,0,1.0752,1.33789,3.76513,3.76513,0,0,0,1.9375.4375,3.11289,3.11289,0,0,0,2.26269-.6875,2.20884,2.20884,0,0,0,.6875-1.6123,2.22707,2.22707,0,0,0-.60009-1.5879,5.49225,5.49225,0,0,0-1.5376-1.1123q-.9375-.47461-1.98731-.9502a12.53374,12.53374,0,0,1-1.98779-1.125,5.39138,5.39138,0,0,1-1.5376-1.625,4.59877,4.59877,0,0,1-.59961-2.45019,4.69178,4.69178,0,0,1,.6875-2.625,4.20871,4.20871,0,0,1,1.89991-1.57422,6.94734,6.94734,0,0,1,2.78759-.52539,10.00033,10.00033,0,0,1,1.75.15039,10.38482,10.38482,0,0,1,1.57471.39941,4.66835,4.66835,0,0,1,1.1499.54981q0,.85107.0376,1.82519a14.58647,14.58647,0,0,0,.1377,1.625,3.1171,3.1171,0,0,1-.8877.2627,6.156,6.156,0,0,1-.9873.08789,7.89567,7.89567,0,0,0-.6377-2.17578,2.25769,2.25769,0,0,0-.9624-1.03711,2.87213,2.87213,0,0,0-1.29981-.28711,2.86017,2.86017,0,0,0-1.83789.54981,1.89856,1.89856,0,0,0-.6875,1.57519,2.38344,2.38344,0,0,0,.6001,1.66211,5.32962,5.32962,0,0,0,1.5625,1.15039q.9624.48633,2.0376.98731a15.51222,15.51222,0,0,1,2.0376,1.13769,5.26136,5.26136,0,0,1,1.5625,1.58691,4.36989,4.36989,0,0,1,.60009,2.375,4.83427,4.83427,0,0,1-.65039,2.48731,4.57744,4.57744,0,0,1-1.97461,1.77539A7.608,7.608,0,0,1-525.4585,256.97461Z" transform="translate(544.87608 3.78525)"/><path class="cls-2" d="M-509.1084,256.97461a8.369,8.369,0,0,1-4.4248-1.13672,7.84534,7.84534,0,0,1-2.9126-3.10059,9.4499,9.4499,0,0,1-1.0376-4.4873,9.40939,9.40939,0,0,1,.6377-3.53711,8.03281,8.03281,0,0,1,1.7749-2.72559,7.88764,7.88764,0,0,1,2.6626-1.75,8.77048,8.77048,0,0,1,3.2998-.6123,8.74435,8.74435,0,0,1,4.36231,1.0625,7.65377,7.65377,0,0,1,2.96289,2.97461,8.96137,8.96137,0,0,1,1.0747,4.46289,10.05685,10.05685,0,0,1-.60009,3.53711,8.15725,8.15725,0,0,1-1.72461,2.80078,7.97434,7.97434,0,0,1-2.6626,1.84961A8.54079,8.54079,0,0,1-509.1084,256.97461Zm.42481-1.44922a3.6064,3.6064,0,0,0,2.46289-.88769,5.70539,5.70539,0,0,0,1.5625-2.42481,10.24878,10.24878,0,0,0,.5498-3.46289,10.41668,10.41668,0,0,0-.70019-3.90039,6.8528,6.8528,0,0,0-1.92481-2.77441,4.30677,4.30677,0,0,0-2.8501-1.0254,3.71325,3.71325,0,0,0-2.3247.78809,5.10133,5.10133,0,0,0-1.6001,2.26172,9.62048,9.62048,0,0,0-.5752,3.5,12.8904,12.8904,0,0,0,.33741,2.97559,8.50489,8.50489,0,0,0,1.02539,2.5371,5.46481,5.46481,0,0,0,1.6997,1.7627A4.23023,4.23023,0,0,0-508.68359,255.52539Zm5.85009,6.09961a4.02208,4.02208,0,0,1-1.4873-.78711,6.93922,6.93922,0,0,1-1.0376-1.125q-.4497-.61377-.9126-1.1875a4.65065,4.65065,0,0,0-1.125-1,4.02691,4.02691,0,0,0-1.7124-.55078l2.4502-.77441a7.25381,7.25381,0,0,1,1.7749.6123,13.269,13.269,0,0,1,1.375.8125q.62475.4248,1.25.78711a5.488,5.488,0,0,0,1.3999.5625,5.55851,5.55851,0,0,0,1.79981.125,3.23313,3.23313,0,0,1-.02491.6875,3.74412,3.74412,0,0,1-.1499.66309q-.87523.19921-1.75.4746A18.71753,18.71753,0,0,0-502.8335,261.625Z" transform="translate(544.87608 3.78525)"/><path class="cls-2" d="M-491.18359,255.375a5.10177,5.10177,0,0,0,1.9624-.3125,2.70947,2.70947,0,0,0,1.21289-1.02539,7.59242,7.59242,0,0,0,.84961-1.88672,5.06243,5.06243,0,0,1,.90039.26172,1.95568,1.95568,0,0,1,.6499.41309,14.28138,14.28138,0,0,0-.4624,1.9121q-.1875,1.06349-.3125,2.0625-.55078-.0249-1.4502-.02441-.90013,0-1.9375-.01269-1.03784-.01318-1.9873-.0127h-1.67529q-.97487,0-2,.0127-1.0254.01171-1.88721.02441-.8628.01319-1.3125.03809c0-.28321.00781-.53809.0249-.7627a1.95833,1.95833,0,0,1,.125-.58789,2.44237,2.44237,0,0,0,1.0376-.26172,1.189,1.189,0,0,0,.51221-.75,6.16844,6.16844,0,0,0,.1499-1.5625V243.5a5.513,5.513,0,0,0-.13721-1.4248,1.10168,1.10168,0,0,0-.51269-.6875,2.53608,2.53608,0,0,0-1.04981-.2627,3.40958,3.40958,0,0,1-.11279-.6377q-.03735-.38672-.03711-.71191.59985.0249,1.1875.03711.58667.01319,1.16211.02539.57495.01172,1.1001.01172.57495,0,1.17529-.01172.59985-.01318,1.1875-.02539.58667-.01172,1.0874-.03711c0,.25-.00879.49609-.0249.73731a2.05446,2.05446,0,0,1-.125.6123,2.64216,2.64216,0,0,0-1.02539.25,1.1075,1.1075,0,0,0-.5249.7002,5.45873,5.45873,0,0,0-.14991,1.4746v9.3252a5.20728,5.20728,0,0,0,.17481,1.53711,1.1698,1.1698,0,0,0,.65039.75,3.38589,3.38589,0,0,0,1.34961.21289Z" transform="translate(544.87608 3.78525)"/></svg>