<svg xmlns="http://www.w3.org/2000/svg" width="441.10367" height="272.67598" viewBox="0 0 441.10367 272.67598"><defs><style>.cls-1{fill:#366;stroke:#000;stroke-miterlimit:10;stroke-width:2px;}.cls-2{fill:#fff;}</style></defs><g id="Layer_2" data-name="Layer 2"><g id="Layer_1-2" data-name="Layer 1"><rect class="cls-1" x="1" y="1" width="439.10367" height="39.12219" rx="19.04827"/><path class="cls-2" d="M24.68846,28.37039q-.42553-.75-.7251-1.3374-.30029-.5874-.5498-1.125-.25049-.5376-.5503-1.1377a17.80951,17.80951,0,0,0-.8247-1.60009,11.35409,11.35409,0,0,0-.90039-1.29981,11.57637,11.57637,0,0,0-1.27491-1.32519l.875.2749q-.67455.02563-1.1997.02539-.52515,0-1.1001-.02539l.07471-1.44971q.375.07472.63769.1001.26221.0249.5376.0249a5.57312,5.57312,0,0,0,2.125-.38769,3.42913,3.42913,0,0,0,1.5249-1.1875,3.3824,3.3824,0,0,0,.5752-2.02491,3.48151,3.48151,0,0,0-.8501-2.45019,3.61836,3.61836,0,0,0-2.7749-.92481,5.69755,5.69755,0,0,0-.875.0625,7.65332,7.65332,0,0,0-.8501.1875l.1499-.5249v12.1499a6.3917,6.3917,0,0,0,.1377,1.52491,1.071,1.071,0,0,0,.47461.7124,2.25121,2.25121,0,0,0,.88769.23779,1.80294,1.80294,0,0,1,.125.6001q.0249.375.0249.75-.50023-.05053-1.1499-.0625-.65039-.01319-1.26269-.0127H16.93846q-.77564,0-1.7002.0127-.925.01171-1.5747.0625c0-.2666.00781-.5127.0249-.73779a2.25033,2.25033,0,0,1,.125-.61231,2.58944,2.58944,0,0,0,1.0376-.25,1.11987,1.11987,0,0,0,.5122-.70019,5.21228,5.21228,0,0,0,.14991-1.42481v-9.625a5.19281,5.19281,0,0,0-.14991-1.4375,1.11451,1.11451,0,0,0-.5122-.6875,2.435,2.435,0,0,0-1.0625-.2251,3.77051,3.77051,0,0,1-.1001-.6748c-.01709-.25-.0249-.4751-.0249-.67529q.4746.02564,1.4375.05029.96167.0249,1.9624.0249.95,0,2.1123-.0376,1.16236-.03735,2.3877-.03759a7.83327,7.83327,0,0,1,3.25.57519,4.05443,4.05443,0,0,1,1.8501,1.57471,4.19859,4.19859,0,0,1,.59961,2.20019,4.73116,4.73116,0,0,1-.5625,2.33741A4.521,4.521,0,0,1,25.126,19.5076a6.67316,6.67316,0,0,1-2.3877.88769l.27491-.2998a7.87293,7.87293,0,0,1,1.20019,1.09961,11.48084,11.48084,0,0,1,.9751,1.33789q.49952.78735,1.19971,2.0874a13.27718,13.27718,0,0,0,.83789,1.23731,2.20441,2.20441,0,0,0,.8374.67529,3.68152,3.68152,0,0,0,1.25.26221,6.14274,6.14274,0,0,1-.0376.70019,5.89341,5.89341,0,0,1-.1123.6499q-1.27515,0-2.4375.0376A15.03461,15.03461,0,0,0,24.68846,28.37039Z"/><rect class="cls-1" x="1" y="47.37442" width="390.93815" height="39.12219" rx="19.04827"/><path class="cls-2" d="M13.66356,74.595c0-.30029.00781-.55859.0249-.77539a2.686,2.686,0,0,1,.1001-.57471,2.692,2.692,0,0,0,1.0498-.25,1.10494,1.10494,0,0,0,.5249-.70019,5.21228,5.21228,0,0,0,.14991-1.42481V61.26981A5.51048,5.51048,0,0,0,15.376,59.845a1.1017,1.1017,0,0,0-.5127-.6875,2.54384,2.54384,0,0,0-1.0498-.26269,3.35119,3.35119,0,0,1-.11279-.58741,6.99233,6.99233,0,0,1-.03711-.76269q1.02465.05054,1.97461.0625.94995.01319,1.625.01269.50024,0,1.25-.01269.75-.01245,1.46289-.0249.71191-.01246,1.03711-.0127a7.8568,7.8568,0,0,1,3.5625.67529,4.09837,4.09837,0,0,1,1.875,1.79981,5.51185,5.51185,0,0,1,.5625,2.5,6.63026,6.63026,0,0,1-.66211,2.9375,5.25748,5.25748,0,0,1-1.9751,2.1875,5.969,5.969,0,0,1-3.23779.82519,5.26391,5.26391,0,0,1-1.75-.25,3.26976,3.26976,0,0,1-.02491-.6875,2.221,2.221,0,0,1,.125-.5874c.18311.0332.3628.05859.5376.07471.17481.01709.354.0249.5376.0249a3.51708,3.51708,0,0,0,1.5-.32471,2.49074,2.49074,0,0,0,1.13721-1.1499,5.04324,5.04324,0,0,0,.4375-2.32519,5.127,5.127,0,0,0-.88721-3.125,3.32575,3.32575,0,0,0-2.86279-1.2002,4.49153,4.49153,0,0,0-.625.05029,6.93681,6.93681,0,0,0-.875.19971l.32519-.3999v11.6499a4.829,4.829,0,0,0,.2251,1.6626,1.40676,1.40676,0,0,0,.76221.82519,4.43919,4.43919,0,0,0,1.38769.3125,2.29962,2.29962,0,0,1,.1377.6001,7.08781,7.08781,0,0,1,.03711.75q-.42481-.02563-1.03711-.0376-.613-.01319-1.3003-.0249-.68773-.01319-1.3623-.01269-.6753,0-1.42529.01269-.75.01172-1.41211.0249Q14.06321,74.56985,13.66356,74.595Z"/><path class="cls-2" d="M34.41307,75.345q-.59985-1.37475-1.29981-2.90039-.70018-1.52416-1.3374-2.97461-.63793-1.4502-1.1626-2.5a13.3705,13.3705,0,0,0-.85009-1.57519,2.68821,2.68821,0,0,0-.6626-.73731,1.85732,1.85732,0,0,0-.6875-.2876,3.09457,3.09457,0,0,1-.1499-.63769,5.14734,5.14734,0,0,1-.04981-.7124q.72436.0249,1.54981.03759.8247.01245,1.60009.01221.79981,0,1.83741-.01221,1.0371-.01245,1.8125-.03759a4.34343,4.34343,0,0,1-.0625.7373,3.10344,3.10344,0,0,1-.1626.61279q-1.22534.2-1.38721.69971a2.845,2.845,0,0,0,.4624,1.77539q.375.7251.7876,1.66211.41235.9375.79981,1.90039.38745.9624.6875,1.8125Zm3.1499-8.27539q.60059-1.47437.3252-2a1.63422,1.63422,0,0,0-1.25-.69971,3.68483,3.68483,0,0,1-.14991-.6499,4.89471,4.89471,0,0,1-.05029-.70019q.57495.0249,1.2002.03759.62475.01245,1.2749.01221.67528,0,1.30029-.01221.624-.01245,1.17481-.0625a6.72245,6.72245,0,0,1-.0376.6875,2.65757,2.65757,0,0,1-.1626.6875,1.93022,1.93022,0,0,0-.72461.32471,2.17678,2.17678,0,0,0-.5625.7002q-.26294.47533-.63769,1.2998l-3.67481,8.75a28.409,28.409,0,0,1-1.27539,2.75,8.08832,8.08832,0,0,1-1.0874,1.6001,2.87548,2.87548,0,0,1-1.0249.75,3.03439,3.03439,0,0,1-1.11231.20019,3.135,3.135,0,0,1-1.33789-.26269,3.02,3.02,0,0,1-.8623-.5625,3.44,3.44,0,0,1-.04981-1.04981,5.25327,5.25327,0,0,1,.17481-1.05029q.4248.09962.95019.17529a7.613,7.613,0,0,0,1.07471.07471,2.93124,2.93124,0,0,0,1.375-.3125A2.77756,2.77756,0,0,0,33.46336,76.72a18.74977,18.74977,0,0,0,.9375-1.86279q.66211-1.437,1.4375-3.4375Z"/><path class="cls-2" d="M47.188,74.7449a3.25557,3.25557,0,0,1-2.4624-.85009,3.97026,3.97026,0,0,1-.8125-2.79981V65.01981a4.09617,4.09617,0,0,0-.7876-.2251,7.77734,7.77734,0,0,0-1.0376-.1001,3.63483,3.63483,0,0,1,.0625-.7124,3.37165,3.37165,0,0,1,.21241-.6626h1.55029v-3.1748a5.80136,5.80136,0,0,0,1.38721-.4375,5.00344,5.00344,0,0,0,1.13769-.6875.691.691,0,0,1,.42481.375A3.58577,3.58577,0,0,1,46.96287,60.47v2.84961h3.14991a5.13841,5.13841,0,0,1-.04981.7251,3.1,3.1,0,0,1-.17529.67529,11.52649,11.52649,0,0,0-1.5874.09961q-.71265.10034-1.33741.25v5.5752a5.362,5.362,0,0,0,.1626,1.47509,1.44373,1.44373,0,0,0,.4624.77491,1.21637,1.21637,0,0,0,.75.22509,2.70853,2.70853,0,0,0,.83741-.125,3.168,3.168,0,0,0,.73779-.35009,1.75138,1.75138,0,0,1,.375,1.07519,3.635,3.635,0,0,1-1.33789.72461A5.473,5.473,0,0,1,47.188,74.7449Z"/><path class="cls-2" d="M53.48778,60.44461a3.15818,3.15818,0,0,0-.125-.97461.98676.98676,0,0,0-.52491-.57519,3.08447,3.08447,0,0,0-1.22509-.2251,4.22107,4.22107,0,0,1,.0498-.6626,1.56139,1.56139,0,0,1,.2002-.5625,9.75633,9.75633,0,0,0,1.4873-.125,12.30471,12.30471,0,0,0,1.5127-.32471,4.35455,4.35455,0,0,0,1.0249-.3999.94863.94863,0,0,1,.4624.375,1.47383,1.47383,0,0,1,.1875.82471V61.095h-3.0498Zm10.7749,10.625a3.28361,3.28361,0,0,0,.3125,1.7251,1.17256,1.17256,0,0,0,1.0376.45019,2.6745,2.6745,0,0,1,.13769.58741,6.57939,6.57939,0,0,1,.03711.76269q-.55005-.05053-1.3623-.0625-.813-.01319-1.61231-.01269-.52515,0-1.1626.01269-.63794.01172-1.20019.0249-.5625.01245-.9624.0376,0-.3999.0249-.73779a2.26851,2.26851,0,0,1,.125-.61231,1.4245,1.4245,0,0,0,1.1875-.48779A2.9936,2.9936,0,0,0,61.21287,70.97V67.845a3.45078,3.45078,0,0,0-.5625-2.2876,1.95451,1.95451,0,0,0-1.51269-.61279,2.04188,2.04188,0,0,0-1.23731.4375A3.19087,3.19087,0,0,0,56.92528,66.72a5.84694,5.84694,0,0,0-.3877,2.29981v2.0498a2.99628,2.99628,0,0,0,.3501,1.71289,1.41205,1.41205,0,0,0,1.20019.4624,2.0049,2.0049,0,0,1,.14991.61231q.0249.31274.0249.73779-.3501-.02563-.9126-.0376-.5625-.01319-1.1748-.0249-.613-.01319-1.1626-.01269-.52515,0-1.17481.01269-.65039.01172-1.23779.0249-.5874.01245-.9624.0376a7.35589,7.35589,0,0,1,.0376-.77539,2.81276,2.81276,0,0,1,.1123-.57471,1.619,1.619,0,0,0,1.33789-.4624,2.91674,2.91674,0,0,0,.36231-1.71289V66.845l3.0498-2.75a5.46541,5.46541,0,0,1-.0498.6875,5.35978,5.35978,0,0,1-.17481.8125q.12452-.24975.25-.5a2.17826,2.17826,0,0,1,.32471-.4751,5.17088,5.17088,0,0,1,1.3999-1.11279A4.20673,4.20673,0,0,1,60.438,62.97a4.46123,4.46123,0,0,1,1.875.3999,3.18042,3.18042,0,0,1,1.41211,1.2876,4.58355,4.58355,0,0,1,.5376,2.38721ZM53.48778,60.22h3.0498v3.875l-3.0498,3.29981Z"/><path class="cls-2" d="M73.28758,74.7449a6.668,6.668,0,0,1-3.19971-.72509A4.93739,4.93739,0,0,1,68.02537,71.97a6.44793,6.44793,0,0,1-.71289-3.1001,6.24124,6.24124,0,0,1,.7876-3.20019,5.42645,5.42645,0,0,1,2.1626-2.0874,6.45888,6.45888,0,0,1,3.1001-.73731,6.63843,6.63843,0,0,1,3.28759.75,5.0395,5.0395,0,0,1,2.03711,2.07471,6.43222,6.43222,0,0,1,.7002,3.05029,6.29781,6.29781,0,0,1-.7627,3.1499A5.45182,5.45182,0,0,1,76.5,73.98221,6.46762,6.46762,0,0,1,73.28758,74.7449Zm.30029-1.42529a2.08277,2.08277,0,0,0,1.92481-1.16211,6.026,6.026,0,0,0,.6499-2.96289,7.55267,7.55267,0,0,0-.4248-2.6875,3.96082,3.96082,0,0,0-1.125-1.6875,2.35565,2.35565,0,0,0-1.52491-.57471,2.05843,2.05843,0,0,0-1.92529,1.125,5.76288,5.76288,0,0,0-.625,2.82471,8.85488,8.85488,0,0,0,.375,2.71289,4.08545,4.08545,0,0,0,1.05029,1.78711A2.30454,2.30454,0,0,0,73.58787,73.31961Z"/><path class="cls-2" d="M93.71287,71.06961a3.17665,3.17665,0,0,0,.3252,1.7251,1.17713,1.17713,0,0,0,1.0249.45019,1.75362,1.75362,0,0,1,.1499.58741q.02492.31274.02491.76269-.55-.05053-1.3501-.0625-.7998-.01319-1.59961-.01269-.52515,0-1.1626.01269-.63793.01172-1.2124.0249-.57569.01245-.9751.0376a6.61668,6.61668,0,0,1,.0376-.73779,2.62769,2.62769,0,0,1,.13721-.61231,1.39556,1.39556,0,0,0,1.16259-.48779,2.99351,2.99351,0,0,0,.3877-1.78711V67.845a3.45078,3.45078,0,0,0-.5625-2.2876,1.95452,1.95452,0,0,0-1.5127-.61279,2.06412,2.06412,0,0,0-1.22509.4375,3.06024,3.06024,0,0,0-.9751,1.33789,6.03,6.03,0,0,0-.375,2.29981v2.0498a2.99628,2.99628,0,0,0,.3501,1.71289,1.41205,1.41205,0,0,0,1.20019.4624,2.61388,2.61388,0,0,1,.125.61231c.01612.20849.0249.45459.0249.73779q-.35008-.02563-.8999-.0376-.55005-.01319-1.1626-.0249-.613-.01319-1.1875-.01269-.52513,0-1.1748.01269-.65039.01172-1.23779.0249-.5874.01245-.96241.0376a7.35858,7.35858,0,0,1,.0376-.77539,1.94642,1.94642,0,0,1,.13721-.57471,1.57845,1.57845,0,0,0,1.32519-.4624,2.99628,2.99628,0,0,0,.3501-1.71289V66.845l3.07471-2.75a5.4637,5.4637,0,0,1-.04981.6875,5.3597,5.3597,0,0,1-.1748.8125q.12452-.24975.2373-.5a1.616,1.616,0,0,1,.33741-.4751,5.217,5.217,0,0,1,1.38769-1.11279,4.18611,4.18611,0,0,1,2.1626-.53711,4.46123,4.46123,0,0,1,1.875.3999,3.11067,3.11067,0,0,1,1.3999,1.2876,4.67207,4.67207,0,0,1,.5249,2.38721ZM82.938,69.2449V66.845a4.10464,4.10464,0,0,0-.11279-1.07519.94182.94182,0,0,0-.5-.6001,3.20962,3.20962,0,0,0-1.2124-.25,4.16161,4.16161,0,0,1,.05029-.6626,1.56079,1.56079,0,0,1,.19971-.5625,13.23174,13.23174,0,0,0,2.26269-.2998,7.79772,7.79772,0,0,0,1.73731-.54981.934.934,0,0,1,.4624.38721,1.59818,1.59818,0,0,1,.1875.86279Z"/><rect class="cls-1" x="1" y="93.43053" width="315.21402" height="39.12219" rx="19.04827"/><path class="cls-2" d="M18.41356,117.37576a23.39945,23.39945,0,0,1-.1875,3.1128,7.6287,7.6287,0,0,1-.7627,2.5,6.86589,6.86589,0,0,1-1.6499,2.03759,13.17538,13.17538,0,0,1-2.8252,1.77491,1.12529,1.12529,0,0,1-.41259-.4502,2.03331,2.03331,0,0,1-.1875-.57471,8.81238,8.81238,0,0,0,1.57519-1.57519,5.73754,5.73754,0,0,0,.9375-1.9502,10.424,10.424,0,0,0,.3125-2.75v-12.1499a5.77518,5.77518,0,0,0-.13769-1.4624,1.07083,1.07083,0,0,0-.5-.6875,2.65424,2.65424,0,0,0-1.0625-.25,3.377,3.377,0,0,1-.11231-.61231,7.19752,7.19752,0,0,1-.0376-.73779q.42482.02563,1,.0376.575.01319,1.21241.0249.63793.01319,1.23779.0127.90015,0,1.88721-.02491.9873-.0249,1.5625-.05029,0,.40063-.02491.73779a2.28738,2.28738,0,0,1-.125.61231,2.40868,2.40868,0,0,0-1.0498.2749,1.15357,1.15357,0,0,0-.5127.7124,5.51865,5.51865,0,0,0-.1372,1.4126Z"/><path class="cls-2" d="M30.11326,120.80106a1.02172,1.02172,0,0,1-.5498-.4878,2.13006,2.13006,0,0,1-.17529-.9624,4.95573,4.95573,0,0,1,.05029-.6499,4.28877,4.28877,0,0,1,.1499-.7002l.0752-.0498a4.36716,4.36716,0,0,1-.4502,1.0625,3.19045,3.19045,0,0,1-.7251.8623,3.59141,3.59141,0,0,1-1.1748.6377,5.064,5.064,0,0,1-1.625.2373,3.91642,3.91642,0,0,1-2.5376-.72461,2.46917,2.46917,0,0,1-.88769-2.02539,2.925,2.925,0,0,1,.45019-1.6372,3.90549,3.90549,0,0,1,1.2002-1.1626,7.19877,7.19877,0,0,1,1.6372-.7627,13.55156,13.55156,0,0,1,1.8003-.4497q.91187-.1626,1.6875-.2876,0-.84961-.0376-1.36231a3.56625,3.56625,0,0,0-.1499-.85009,1.48511,1.48511,0,0,0-.3628-.58741,1.66531,1.66531,0,0,0-.6499-.51269,1.98868,1.98868,0,0,0-.7998-.1626,1.57761,1.57761,0,0,0-1.1875.4502,2.67045,2.67045,0,0,0-.6377,1.1123,6.11141,6.11141,0,0,0-.25,1.2627q-.47534,0-.95019-.0376a2.86659,2.86659,0,0,1-.79981-.1626,13.74434,13.74434,0,0,0,.0249-1.44971,7.83915,7.83915,0,0,0-.1748-1.45019,10.60831,10.60831,0,0,1,2.32471-.7749,11.32031,11.32031,0,0,1,2.375-.27491,5.80635,5.80635,0,0,1,2.03759.29981,3.217,3.217,0,0,1,1.21241.75,3.29759,3.29759,0,0,1,.82519,1.5376,11.23687,11.23687,0,0,1,.25,2.6875v2.3999a4.9828,4.9828,0,0,0,.11231,1.1875.91869.91869,0,0,0,.42529.6123,2.20647,2.20647,0,0,0,.9624.2002,3.01249,3.01249,0,0,1,.0127.7251,2.1899,2.1899,0,0,1-.1875.6997,8.41154,8.41154,0,0,0-1.6875.2378A7.96184,7.96184,0,0,0,30.11326,120.80106Zm-3.3999-1.8501a1.93591,1.93591,0,0,0,1.0625-.3501,2.66864,2.66864,0,0,0,.8999-1.0625,4.04984,4.04984,0,0,0,.3628-1.8374v-.7749q-.7002.10033-1.3628.2622a5.39021,5.39021,0,0,0-1.1748.4253,2.1946,2.1946,0,0,0-.8125.6875,1.86476,1.86476,0,0,0-.30029,1.10009,1.54,1.54,0,0,0,.40039,1.17481A1.31025,1.31025,0,0,0,26.71336,118.951Z"/><path class="cls-2" d="M39.688,120.80106q-.24975-.62476-.66211-1.5625-.41309-.9375-.90039-2.02491-.48707-1.08763-.9624-2.13769-.47534-1.0503-.86231-1.875-.38817-.82471-.5874-1.25a8.10285,8.10285,0,0,0-.55029-.9375,1.25974,1.25974,0,0,0-1-.61231,4.63387,4.63387,0,0,1-.1499-.63769,4.50136,4.50136,0,0,1-.04981-.7124q.54931.0249,1.34961.0498.79981.02563,1.7002.0249.59985,0,1.2373-.0122.63793-.01247,1.21289-.02491.57423-.01245.97461-.03759a3.98218,3.98218,0,0,1-.0625.6997q-.06225.35084-.13721.625-1.10082.10035-1.30029.4126-.19995.31275.25,1.2876.22559.4497.5127,1.1499t.63769,1.55029q.34936.84962.6875,1.71241.33691.862.61231,1.66259h-.52491q.62477-1.57543,1.125-2.82519.49952-1.24952.9751-2.3999a2.79867,2.79867,0,0,0,.3374-1.9126,1.2276,1.2276,0,0,0-1.13769-.61231,3.61349,3.61349,0,0,1-.19971-.66259,3.37717,3.37717,0,0,1-.07519-.6875q.49951.0249,1.125.0498.62475.02563,1.25.0249.64965,0,1.2998-.0249.6504-.02416,1.125-.0498a5.40488,5.40488,0,0,1-.0498.7373,1.6126,1.6126,0,0,1-.2002.61279,1.82037,1.82037,0,0,0-.69971.33741,2.48742,2.48742,0,0,0-.57519.7124,11.48349,11.48349,0,0,0-.625,1.32519l-3.3999,7.75a3.065,3.065,0,0,1-.7876.22461A4.24042,4.24042,0,0,1,39.688,120.80106Z"/><path class="cls-2" d="M56.03807,120.80106a1.02178,1.02178,0,0,1-.54981-.4878,2.1302,2.1302,0,0,1-.17529-.9624,4.95573,4.95573,0,0,1,.05029-.6499,4.28876,4.28876,0,0,1,.14991-.7002l.07519-.0498a4.36751,4.36751,0,0,1-.45019,1.0625,3.19081,3.19081,0,0,1-.7251.8623,3.59146,3.59146,0,0,1-1.17481.6377,5.06387,5.06387,0,0,1-1.625.2373,3.91641,3.91641,0,0,1-2.53759-.72461,2.46915,2.46915,0,0,1-.8877-2.02539,2.92487,2.92487,0,0,1,.4502-1.6372,3.90534,3.90534,0,0,1,1.20019-1.1626,7.19864,7.19864,0,0,1,1.63721-.7627,13.5518,13.5518,0,0,1,1.80029-.4497q.91186-.1626,1.6875-.2876,0-.84961-.0376-1.36231a3.56574,3.56574,0,0,0-.1499-.85009,1.48509,1.48509,0,0,0-.36279-.58741,1.66531,1.66531,0,0,0-.6499-.51269,1.98869,1.98869,0,0,0-.79981-.1626,1.57762,1.57762,0,0,0-1.1875.4502,2.67043,2.67043,0,0,0-.63769,1.1123,6.11075,6.11075,0,0,0-.25,1.2627q-.47535,0-.9502-.0376a2.86659,2.86659,0,0,1-.7998-.1626,13.74973,13.74973,0,0,0,.0249-1.44971,7.83913,7.83913,0,0,0-.17481-1.45019,10.60831,10.60831,0,0,1,2.32471-.7749,11.32039,11.32039,0,0,1,2.375-.27491,5.80637,5.80637,0,0,1,2.0376.29981,3.217,3.217,0,0,1,1.2124.75,3.2976,3.2976,0,0,1,.8252,1.5376,11.23739,11.23739,0,0,1,.25,2.6875v2.3999a4.98288,4.98288,0,0,0,.1123,1.1875.91876.91876,0,0,0,.42529.6123,2.20648,2.20648,0,0,0,.96241.2002,3.013,3.013,0,0,1,.01269.7251,2.1899,2.1899,0,0,1-.1875.6997,8.41154,8.41154,0,0,0-1.6875.2378A7.962,7.962,0,0,0,56.03807,120.80106Zm-3.3999-1.8501a1.93593,1.93593,0,0,0,1.0625-.3501,2.66872,2.66872,0,0,0,.8999-1.0625,4.04985,4.04985,0,0,0,.36279-1.8374v-.7749q-.70019.10033-1.36279.2622a5.3903,5.3903,0,0,0-1.17481.4253,2.19468,2.19468,0,0,0-.8125.6875,1.86483,1.86483,0,0,0-.30029,1.10009,1.54,1.54,0,0,0,.40039,1.17481A1.31029,1.31029,0,0,0,52.63817,118.951Z"/><rect class="cls-1" x="1" y="139.80495" width="257.86229" height="39.12219" rx="19.04827"/><path class="cls-2" d="M23.21336,167.17557l-5.9751-13.1499h.39991l-.82471,7.9497a11.36625,11.36625,0,0,0-.0249,2.25,1.52173,1.52173,0,0,0,.5,1.0752,2.2032,2.2032,0,0,0,1.09961.375,2.70647,2.70647,0,0,1,.125.6748q.0249.375.02539.6753-.52515-.05055-1.2876-.0625-.76318-.01319-1.4126-.0127-.3999,0-.9126.0127-.51268.01172-.9873.0249-.47533.01245-.80029.0376,0-.3003.03759-.6753a4.67514,4.67514,0,0,1,.1128-.6748,2.09345,2.09345,0,0,0,1.0625-.375,2.124,2.124,0,0,0,.625-1.0874,13.03871,13.03871,0,0,0,.3872-2.3379l.7002-8a5.11614,5.11614,0,0,0-.0249-1.5498,1.13212,1.13212,0,0,0-.5127-.7749,2.18319,2.18319,0,0,0-1.0874-.2251,2.60954,2.60954,0,0,1-.125-.6499c-.01709-.2334-.0249-.46631-.0249-.7002q.29955.02563.7373.0376.43727.01319.8877.0249.4497.01319.7998.0127.3501,0,.7876-.0127.43725-.01245.8623-.0249.42481-.01245.7251-.0376l6.04981,13.6753h-.67481l5.2749-13.6753q.3501.02563.7876.0376.43726.01319.8877.0249.4497.01319.7998.0127c.2334,0,.49121-.00391.7749-.0127.28321-.0083.5625-.01611.83741-.0249q.41308-.01245.76269-.0376c0,.23389-.00879.4668-.0249.7002a2.67734,2.67734,0,0,1-.125.6499,1.66153,1.66153,0,0,0-1.3999.5498,3.15071,3.15071,0,0,0-.27539,2.1001l.85009,8.4253a11.45949,11.45949,0,0,0,.3252,1.9873,1.65642,1.65642,0,0,0,.5625.9375,2.14779,2.14779,0,0,0,.9624.3252,4.77157,4.77157,0,0,1,.11231.6621,6.82859,6.82859,0,0,1,.03759.7129q-.29955-.02563-.75-.0376-.4497-.01319-.97509-.0249-.52442-.01319-1.01221-.0127h-.8877q-.47534,0-1.1123.0127-.63793.01172-1.2124.0249-.57569.01245-.9751.0376a4.894,4.894,0,0,1,.0498-.7002,6.44082,6.44082,0,0,1,.125-.6499,2.73492,2.73492,0,0,0,1.14991-.3374,1.09625,1.09625,0,0,0,.41259-.8501,9.04306,9.04306,0,0,0-.0625-1.7627l-.9248-8.75h.375l-5.30029,13.0249a2.65247,2.65247,0,0,1-.61231.1377A6.2464,6.2464,0,0,1,23.21336,167.17557Z"/><path class="cls-2" d="M45.188,167.17557a1.02172,1.02172,0,0,1-.5498-.4878,2.13,2.13,0,0,1-.1753-.9624,4.956,4.956,0,0,1,.0503-.6499,4.28877,4.28877,0,0,1,.1499-.7002l.07519-.0498a4.36712,4.36712,0,0,1-.45019,1.0625,3.19048,3.19048,0,0,1-.7251.8623,3.59122,3.59122,0,0,1-1.1748.6377,5.064,5.064,0,0,1-1.625.2373,3.91648,3.91648,0,0,1-2.5376-.7246,2.46917,2.46917,0,0,1-.8877-2.0254,2.92487,2.92487,0,0,1,.4502-1.6372,3.90534,3.90534,0,0,1,1.20019-1.1626,7.19884,7.19884,0,0,1,1.63721-.7627,13.55335,13.55335,0,0,1,1.80029-.4497q.91188-.1626,1.6875-.2876,0-.84961-.03759-1.3623a3.56629,3.56629,0,0,0-.14991-.8501,1.48487,1.48487,0,0,0-.36279-.5874,1.66533,1.66533,0,0,0-.6499-.5127,1.98869,1.98869,0,0,0-.79981-.1626,1.57762,1.57762,0,0,0-1.1875.4502,2.67049,2.67049,0,0,0-.63769,1.1123,6.111,6.111,0,0,0-.25,1.2627q-.47534,0-.9502-.0376a2.86659,2.86659,0,0,1-.7998-.1626,13.74948,13.74948,0,0,0,.0249-1.4497,7.84012,7.84012,0,0,0-.1748-1.4502,10.608,10.608,0,0,1,2.3247-.7749,11.32041,11.32041,0,0,1,2.375-.2749,5.80639,5.80639,0,0,1,2.0376.2998,3.21724,3.21724,0,0,1,1.2124.75,3.29756,3.29756,0,0,1,.8252,1.5376,11.23745,11.23745,0,0,1,.25,2.6875v2.3999a4.98335,4.98335,0,0,0,.1123,1.1875.91873.91873,0,0,0,.4253.6123,2.20647,2.20647,0,0,0,.9624.2002,3.0125,3.0125,0,0,1,.01269.7251,2.18983,2.18983,0,0,1-.1875.6997,8.41225,8.41225,0,0,0-1.6875.2378A7.962,7.962,0,0,0,45.188,167.17557Zm-3.3999-1.8501a1.93591,1.93591,0,0,0,1.0625-.3501,2.66872,2.66872,0,0,0,.8999-1.0625,4.04985,4.04985,0,0,0,.36279-1.8374v-.7749q-.70018.10034-1.36279.2622a5.39021,5.39021,0,0,0-1.1748.4253,2.19452,2.19452,0,0,0-.8125.6875,1.86477,1.86477,0,0,0-.3003,1.1001,1.54,1.54,0,0,0,.40039,1.1748A1.31029,1.31029,0,0,0,41.78807,165.32547Z"/><path class="cls-2" d="M54.61326,167.17557a3.25558,3.25558,0,0,1-2.4624-.8501,3.97025,3.97025,0,0,1-.8125-2.7998v-6.0752a4.09668,4.09668,0,0,0-.7876-.2251,7.779,7.779,0,0,0-1.03759-.1001,3.6349,3.6349,0,0,1,.0625-.7124,3.37091,3.37091,0,0,1,.2124-.6626h1.55029v-3.1748a5.80091,5.80091,0,0,0,1.38721-.4375,5.00322,5.00322,0,0,0,1.13769-.6875.69108.69108,0,0,1,.42481.375,3.58535,3.58535,0,0,1,.1001,1.0752v2.8496h3.1499a5.13841,5.13841,0,0,1-.04981.7251,3.1,3.1,0,0,1-.17529.6753,11.52837,11.52837,0,0,0-1.5874.0996q-.71265.10035-1.3374.25v5.5752a5.36206,5.36206,0,0,0,.16259,1.4751,1.44367,1.44367,0,0,0,.46241.7749,1.21633,1.21633,0,0,0,.75.2251,2.70881,2.70881,0,0,0,.8374-.125,3.16821,3.16821,0,0,0,.73779-.3501,1.75138,1.75138,0,0,1,.375,1.0752,3.6349,3.6349,0,0,1-1.33789.7246A5.473,5.473,0,0,1,54.61326,167.17557Z"/><path class="cls-2" d="M59.063,167.02567q0-.375.0249-.7251a2.31734,2.31734,0,0,1,.125-.625,1.69775,1.69775,0,0,0,1.3501-.4751,2.92843,2.92843,0,0,0,.3501-1.7002v-10.7246a2.595,2.595,0,0,0-.1377-.9126.993.993,0,0,0-.53711-.5503,3.20153,3.20153,0,0,0-1.20019-.2124,4.22117,4.22117,0,0,1,.0498-.6626,1.56171,1.56171,0,0,1,.2002-.5625,9.75506,9.75506,0,0,0,1.4873-.125,12.3029,12.3029,0,0,0,1.5127-.3247,4.35436,4.35436,0,0,0,1.0249-.3999.94847.94847,0,0,1,.4624.375,1.47379,1.47379,0,0,1,.1875.8247v13.2749a3.01615,3.01615,0,0,0,.33789,1.7002,1.45151,1.45151,0,0,0,1.1875.4751,2.39591,2.39591,0,0,1,.125.6499c.01612.25.02491.4834.02491.7002q-.375-.02563-.9126-.0376-.5376-.01319-1.1499-.0249-.613-.01319-1.21241-.0127-.60058,0-1.22509.0127-.62549.01172-1.1626.0249Q59.438,167.00052,59.063,167.02567Z"/><path class="cls-2" d="M75.28758,167.17557a1.02172,1.02172,0,0,1-.5498-.4878,2.13,2.13,0,0,1-.1753-.9624,4.956,4.956,0,0,1,.0503-.6499,4.28773,4.28773,0,0,1,.1499-.7002l.07519-.0498a4.36712,4.36712,0,0,1-.45019,1.0625,3.19066,3.19066,0,0,1-.7251.8623,3.59122,3.59122,0,0,1-1.1748.6377,5.064,5.064,0,0,1-1.625.2373,3.91648,3.91648,0,0,1-2.5376-.7246,2.46917,2.46917,0,0,1-.8877-2.0254,2.92487,2.92487,0,0,1,.4502-1.6372,3.90534,3.90534,0,0,1,1.20019-1.1626,7.19864,7.19864,0,0,1,1.63721-.7627,13.55335,13.55335,0,0,1,1.80029-.4497q.91187-.1626,1.6875-.2876,0-.84961-.03759-1.3623a3.56629,3.56629,0,0,0-.14991-.8501,1.48487,1.48487,0,0,0-.36279-.5874,1.66533,1.66533,0,0,0-.6499-.5127,1.98869,1.98869,0,0,0-.79981-.1626,1.57762,1.57762,0,0,0-1.1875.4502,2.67049,2.67049,0,0,0-.63769,1.1123,6.111,6.111,0,0,0-.25,1.2627q-.47535,0-.9502-.0376a2.86659,2.86659,0,0,1-.7998-.1626,13.74948,13.74948,0,0,0,.0249-1.4497,7.84012,7.84012,0,0,0-.1748-1.4502,10.608,10.608,0,0,1,2.3247-.7749,11.32041,11.32041,0,0,1,2.375-.2749,5.80639,5.80639,0,0,1,2.0376.2998,3.21724,3.21724,0,0,1,1.2124.75,3.29765,3.29765,0,0,1,.8252,1.5376,11.23745,11.23745,0,0,1,.25,2.6875v2.3999a4.98335,4.98335,0,0,0,.1123,1.1875.91873.91873,0,0,0,.4253.6123,2.20643,2.20643,0,0,0,.9624.2002,3.0125,3.0125,0,0,1,.01269.7251,2.18983,2.18983,0,0,1-.1875.6997,8.41225,8.41225,0,0,0-1.6875.2378A7.962,7.962,0,0,0,75.28758,167.17557Zm-3.3999-1.8501a1.93591,1.93591,0,0,0,1.0625-.3501,2.66872,2.66872,0,0,0,.8999-1.0625,4.04985,4.04985,0,0,0,.36279-1.8374v-.7749q-.70018.10034-1.36279.2622a5.39021,5.39021,0,0,0-1.1748.4253,2.19452,2.19452,0,0,0-.8125.6875,1.86477,1.86477,0,0,0-.3003,1.1001,1.54,1.54,0,0,0,.40039,1.1748A1.31029,1.31029,0,0,0,71.88768,165.32547Z"/><path class="cls-2" d="M86.56248,167.17557a11.40523,11.40523,0,0,1-2.3125-.2251,8.18,8.18,0,0,1-1.91259-.625,5.28551,5.28551,0,0,1-1.3501-.8999,2.22576,2.22576,0,0,0,.4375-1,10.00227,10.00227,0,0,0,.13769-1.9253v-9.625a3.1578,3.1578,0,0,0-.125-.9746.98678.98678,0,0,0-.5249-.5752,3.08466,3.08466,0,0,0-1.2251-.2251,4.22114,4.22114,0,0,1,.04981-.6626,1.5617,1.5617,0,0,1,.20019-.5625,9.75518,9.75518,0,0,0,1.48731-.125,12.30273,12.30273,0,0,0,1.51269-.3247,4.35466,4.35466,0,0,0,1.02491-.3999.94852.94852,0,0,1,.4624.375,1.47379,1.47379,0,0,1,.1875.8247v5.8003a7.385,7.385,0,0,1-.04981.9624q-.05053.36255-.125.7373l-.1748,2-.52539-.75a10.30881,10.30881,0,0,1,.67529-1.3872,4.10909,4.10909,0,0,1,.54981-.7378,3.36782,3.36782,0,0,1,.73779-.7124,4.63936,4.63936,0,0,1,1.16211-.6123,4.14755,4.14755,0,0,1,1.45019-.25,5.43031,5.43031,0,0,1,2.54981.5625,3.87914,3.87914,0,0,1,1.67529,1.75,6.85715,6.85715,0,0,1,.6001,3.0874,6.62582,6.62582,0,0,1-.8252,3.3125,6.157,6.157,0,0,1-2.2998,2.3247A6.71148,6.71148,0,0,1,86.56248,167.17557Zm-2.25-2.5503a3.8467,3.8467,0,0,0,.98731.875,2.49188,2.49188,0,0,0,1.3125.3252,3.16456,3.16456,0,0,0,1.0625-.2002,2.97255,2.97255,0,0,0,1.07519-.6997,3.65135,3.65135,0,0,0,.83741-1.4253,7.29247,7.29247,0,0,0,.32519-2.375,5.6828,5.6828,0,0,0-.375-2.2246,3.27481,3.27481,0,0,0-.95019-1.3252,1.92466,1.92466,0,0,0-1.19971-.4502,2.29606,2.29606,0,0,0-1.3125.4375,3.13188,3.13188,0,0,0-1.05029,1.4126,6.86933,6.86933,0,0,0-.4126,2.625v3.8003Z"/><rect class="cls-1" x="1" y="186.17937" width="211.93126" height="39.12219" rx="19.04827"/><path class="cls-2" d="M21.76317,213.55008a8.88228,8.88228,0,0,1-4.44971-1.0752,7.32854,7.32854,0,0,1-2.9375-3.0625,10.109,10.109,0,0,1-1.0376-4.7373,9.14331,9.14331,0,0,1,.6875-3.6626,7.342,7.342,0,0,1,1.8999-2.6499,8.35035,8.35035,0,0,1,2.8003-1.61279,10.28615,10.28615,0,0,1,3.3872-.54981,14.95567,14.95567,0,0,1,3.3003.3501,12.66611,12.66611,0,0,1,2.6499.875,12.11909,12.11909,0,0,0-.2251,1.82471q-.05053.97559-.0498,2.05029a3.13449,3.13449,0,0,1-.8125.19971,7.73877,7.73877,0,0,1-.8877.05029,5.16432,5.16432,0,0,0-.57519-2.4751,2.79484,2.79484,0,0,0-1.375-1.2124,5.25151,5.25151,0,0,0-1.94971-.3374,4.848,4.848,0,0,0-3.0752.9375,5.45192,5.45192,0,0,0-1.7622,2.4375,9.10847,9.10847,0,0,0-.5625,3.22461,12.43506,12.43506,0,0,0,.6123,4.02539,6.48242,6.48242,0,0,0,1.8252,2.8623,4.3695,4.3695,0,0,0,2.9873,1.0625,7.90508,7.90508,0,0,0,1.0752-.0625,4.43934,4.43934,0,0,0,.9248-.2373,1.28752,1.28752,0,0,0,.61231-.5376,2.82929,2.82929,0,0,0,.21289-1.3125v-1.125a5.91292,5.91292,0,0,0-.1377-1.5.87428.87428,0,0,0-.57519-.625,4.73663,4.73663,0,0,0-1.3125-.17529,2.67811,2.67811,0,0,1-.13721-.63721,7.44235,7.44235,0,0,1-.0376-.7627q.57495.02563,1.48731.0503.9126.0249,1.71289.0249.77417,0,1.6997-.0127.925-.01245,1.4502-.03759c0,.20019-.00879.42529-.0249.67529a3.1001,3.1001,0,0,1-.125.69971,1.5105,1.5105,0,0,0-.71289.17529.8654.8654,0,0,0-.32471.6001,8.03359,8.03359,0,0,0-.0874,1.3999v.94971a7.04694,7.04694,0,0,0,.0747,1.125,3.17866,3.17866,0,0,0,.3003.90039,9.98411,9.98411,0,0,1-2.7876,1.34961A12.01345,12.01345,0,0,1,21.76317,213.55008Z"/><path class="cls-2" d="M33.53807,200.075a5.51039,5.51039,0,0,0-.13721-1.4248,1.10165,1.10165,0,0,0-.51269-.6875,2.54387,2.54387,0,0,0-1.04981-.2627,3.37389,3.37389,0,0,1-.11279-.6123,7.19856,7.19856,0,0,1-.03711-.7378q.4497.02563,1.0498.0376.59987.01318,1.23731.0249.63794.01318,1.1875.0127.575,0,1.17529-.0127.59985-.01245,1.17481-.0249t1.07519-.0376c0,.25-.00879.4878-.0249.71241a2.04686,2.04686,0,0,1-.15039.63769,2.63946,2.63946,0,0,0-1.0249.25,1.05693,1.05693,0,0,0-.51221.6875,5.64213,5.64213,0,0,0-.1377,1.4375v9.6001a5.66067,5.66067,0,0,0,.1377,1.4248,1.06165,1.06165,0,0,0,.51221.7002,2.69241,2.69241,0,0,0,1.05029.25,2.841,2.841,0,0,1,.1123.5874,7.44654,7.44654,0,0,1,.0376.7627q-.70019-.05053-1.5625-.0625-.86278-.01318-1.76269-.0127-.925,0-1.88721.0127-.96313.01172-1.6875.0625a7.19856,7.19856,0,0,1,.03711-.7378,3.38206,3.38206,0,0,1,.11279-.6123,2.692,2.692,0,0,0,1.04981-.25,1.06371,1.06371,0,0,0,.51269-.7002,5.68784,5.68784,0,0,0,.13721-1.4248Z"/><path class="cls-2" d="M44.53807,197.77518a3.28305,3.28305,0,0,0-1.7124.375,2.27889,2.27889,0,0,0-.9126,1.0625,8.43728,8.43728,0,0,0-.5,1.66211,7.83589,7.83589,0,0,1-.875-.04981,2.11115,2.11115,0,0,1-.7749-.2251,21.84559,21.84559,0,0,0,.35009-2.1875,19.11651,19.11651,0,0,0,.125-2.0625q.79982.02563,1.82471.0503,1.0254.0249,2.2627.0249h5.45019q1.262,0,2.29981-.0249,1.0371-.0249,1.8374-.0503-.0249.95068.05029,2.0127.07472,1.06275.22461,2.2373a3.04427,3.04427,0,0,1-.75.2251,4.12222,4.12222,0,0,1-.9248.04981,4.14386,4.14386,0,0,0-.7627-2.32471,2.522,2.522,0,0,0-2.0625-.7749Zm.8999-.6001h3.2002v12.5a4.81475,4.81475,0,0,0,.16259,1.4248,1.09546,1.09546,0,0,0,.61231.7002,3.96386,3.96386,0,0,0,1.32519.25,1.97445,1.97445,0,0,1,.13721.5874,7.31244,7.31244,0,0,1,.0376.7627q-.7749-.05053-1.76221-.0625-.988-.01318-2.0376-.0127-.70018,0-1.4624.0127-.76319.01172-1.4375.0249-.67528.01245-1.17529.0376a5.34008,5.34008,0,0,1,.05029-.7378,4.08657,4.08657,0,0,1,.125-.6123,4.36675,4.36675,0,0,0,1.36231-.25,1.16661,1.16661,0,0,0,.6748-.7002,4.22678,4.22678,0,0,0,.1875-1.4248Z"/><rect class="cls-1" x="1" y="232.55378" width="155.07608" height="39.12219" rx="19.04827"/><path class="cls-2" d="M19.26317,259.92459a9.30782,9.30782,0,0,1-2.875-.41309,13.59571,13.59571,0,0,1-2.54981-1.13769,15.68025,15.68025,0,0,0,.2251-1.96191q.0498-.98731.0498-1.78809a5.1541,5.1541,0,0,1,.9253-.17481q.49951-.0498.97461-.0498a8.2919,8.2919,0,0,0,.4375,2.27539,2.51857,2.51857,0,0,0,1.07519,1.33691,3.76505,3.76505,0,0,0,1.9375.4375,3.11288,3.11288,0,0,0,2.2627-.6875,2.20723,2.20723,0,0,0,.6875-1.6123,2.2303,2.2303,0,0,0-.6001-1.58789,5.51143,5.51143,0,0,0-1.5376-1.11231q-.9375-.4746-1.9873-.95019a12.535,12.535,0,0,1-1.9878-1.125,5.39158,5.39158,0,0,1-1.53759-1.625,4.59745,4.59745,0,0,1-.59961-2.44922,4.68728,4.68728,0,0,1,.6875-2.625,4.20456,4.20456,0,0,1,1.8999-1.57519,6.94738,6.94738,0,0,1,2.7876-.5254,10.00041,10.00041,0,0,1,1.75.1504,10.38232,10.38232,0,0,1,1.5747.39941,4.63229,4.63229,0,0,1,1.14991.55078q0,.84962.03759,1.82422a14.59172,14.59172,0,0,0,.1377,1.625,3.0859,3.0859,0,0,1-.8877.26269,6.15479,6.15479,0,0,1-.9873.0879,7.88653,7.88653,0,0,0-.6377-2.17481,2.26526,2.26526,0,0,0-.9624-1.03809,2.87222,2.87222,0,0,0-1.2998-.2871,2.8602,2.8602,0,0,0-1.83789.5498,1.89981,1.89981,0,0,0-.6875,1.5752,2.38173,2.38173,0,0,0,.60009,1.6621,5.31266,5.31266,0,0,0,1.5625,1.1504q.96242.48778,2.0376.9873a15.74025,15.74025,0,0,1,2.0376,1.1377,5.26113,5.26113,0,0,1,1.5625,1.58691,4.37219,4.37219,0,0,1,.6001,2.375,4.84046,4.84046,0,0,1-.65039,2.48828,4.58161,4.58161,0,0,1-1.97461,1.77441A7.60729,7.60729,0,0,1,19.26317,259.92459Z"/><path class="cls-2" d="M35.56346,242.6492l5.82471,13.1748q.4746,1.0503.7749,1.5879a2.18976,2.18976,0,0,0,.58789.7373,1.74717,1.74717,0,0,0,.63721.27539,3.66059,3.66059,0,0,1,.13769.63672,6.07268,6.07268,0,0,1,.0376.71289q-.3252-.0249-.9375-.03711-.613-.01319-1.23779-.02539-.62477-.01319-1.02491-.0127-.30029,0-.76269.0127-.46288.01172-.9624.02539-.50025.01171-.92481.02441-.42554.01318-.67529.0127a6.642,6.642,0,0,1,.0376-.75,2.616,2.616,0,0,1,.13769-.59961q.97485-.15089,1.1499-.51269.17433-.36183-.2749-1.4375l-2.95019-6.8252q-.44971-.999-.75-1.83789-.29957-.83643-.6001-1.83691h.40039q-.3003,1.02539-.6001,1.89941-.30028.876-.6499,1.75l-2.4502,6.35059a2.86423,2.86423,0,0,0-.22509,1.76269q.2.5874,1.1499.6875a2.64655,2.64655,0,0,1,.13769.61231,6.71813,6.71813,0,0,1,.0376.7373q-.27539-.0249-.7124-.03711-.438-.01319-.92529-.02539-.48706-.01319-.9126-.0127-.62475,0-1.22461.0254-.60058.0249-.9502.0498a6.23976,6.23976,0,0,1,.0376-.6875,2.62658,2.62658,0,0,1,.1626-.66211,1.52494,1.52494,0,0,0,.72461-.32519,2.76222,2.76222,0,0,0,.6001-.79981,13.98687,13.98687,0,0,0,.67529-1.5l5.22461-13.02539a4.5108,4.5108,0,0,1,.6001-.09961Q35.16282,242.64969,35.56346,242.6492Zm1.6748,10.7002.3252,1.27441q-1.67578,0-3.5376.03809-1.86255.03661-3.51269.13769l.3999-1.45019Z"/><path class="cls-2" d="M50.86278,259.92459a9.30782,9.30782,0,0,1-2.875-.41309,13.59571,13.59571,0,0,1-2.54981-1.13769,15.68025,15.68025,0,0,0,.2251-1.96191q.0498-.98731.0498-1.78809a5.1541,5.1541,0,0,1,.9253-.17481q.49951-.0498.97461-.0498a8.2919,8.2919,0,0,0,.4375,2.27539,2.51857,2.51857,0,0,0,1.07519,1.33691,3.76505,3.76505,0,0,0,1.9375.4375,3.11288,3.11288,0,0,0,2.2627-.6875,2.20723,2.20723,0,0,0,.6875-1.6123,2.2303,2.2303,0,0,0-.6001-1.58789,5.51143,5.51143,0,0,0-1.5376-1.11231q-.9375-.4746-1.9873-.95019a12.535,12.535,0,0,1-1.9878-1.125,5.39158,5.39158,0,0,1-1.53759-1.625,4.59745,4.59745,0,0,1-.59961-2.44922,4.68728,4.68728,0,0,1,.6875-2.625,4.20456,4.20456,0,0,1,1.8999-1.57519,6.94738,6.94738,0,0,1,2.7876-.5254,10.00041,10.00041,0,0,1,1.75.1504,10.38232,10.38232,0,0,1,1.5747.39941,4.63229,4.63229,0,0,1,1.14991.55078q0,.84962.03759,1.82422a14.59172,14.59172,0,0,0,.1377,1.625,3.0859,3.0859,0,0,1-.8877.26269,6.15479,6.15479,0,0,1-.9873.0879,7.88653,7.88653,0,0,0-.6377-2.17481,2.26526,2.26526,0,0,0-.9624-1.03809,3.23613,3.23613,0,0,0-3.13769.2627,1.89981,1.89981,0,0,0-.6875,1.5752,2.38173,2.38173,0,0,0,.60009,1.6621,5.31266,5.31266,0,0,0,1.5625,1.1504q.96242.48778,2.0376.9873a15.74025,15.74025,0,0,1,2.0376,1.1377,5.26113,5.26113,0,0,1,1.5625,1.58691,4.37219,4.37219,0,0,1,.6001,2.375,4.84046,4.84046,0,0,1-.65039,2.48828,4.58161,4.58161,0,0,1-1.97461,1.77441A7.60729,7.60729,0,0,1,50.86278,259.92459Z"/></g></g></svg>