<svg xmlns="http://www.w3.org/2000/svg" width="235.23327" height="158.49932" viewBox="0 0 235.23327 158.49932"><defs><style>.cls-1{fill:#7fb685;}.cls-1,.cls-2{fill-rule:evenodd;}.cls-2{fill:#f7f7f7;}</style></defs><g id="Layer_2" data-name="Layer 2"><g id="Layer_1-2" data-name="Layer 1"><polygon class="cls-1" points="7.779 143.007 8.177 143.007 8.177 158.499 7.779 158.499 7.779 143.007 7.779 143.007"/><polygon class="cls-1" points="7.779 114.406 8.177 114.406 8.177 129.898 7.779 129.898 7.779 114.406 7.779 114.406"/><polygon class="cls-1" points="7.779 85.804 8.177 85.804 8.177 101.297 7.779 101.297 7.779 85.804 7.779 85.804"/><polygon class="cls-1" points="7.779 57.203 8.177 57.203 8.177 72.695 7.779 72.695 7.779 57.203 7.779 57.203"/><polygon class="cls-1" points="7.779 28.601 8.177 28.601 8.177 44.094 7.779 44.094 7.779 28.601 7.779 28.601"/><polygon class="cls-1" points="7.779 0 8.177 0 8.177 15.492 7.779 15.492 7.779 0 7.779 0"/><polygon class="cls-1" points="7.779 143.007 73.721 143.007 73.721 158.499 7.779 158.499 7.779 143.007 7.779 143.007"/><polygon class="cls-1" points="7.779 114.406 95.57 114.406 95.57 129.898 7.779 129.898 7.779 114.406 7.779 114.406"/><polygon class="cls-1" points="7.779 85.804 117.815 85.804 117.815 101.297 7.779 101.297 7.779 85.804 7.779 85.804"/><polygon class="cls-1" points="7.779 57.203 139.664 57.203 139.664 72.695 7.779 72.695 7.779 57.203 7.779 57.203"/><polygon class="cls-1" points="7.779 28.601 172.635 28.601 172.635 44.094 7.779 44.094 7.779 28.601 7.779 28.601"/><polygon class="cls-1" points="7.779 0 205.606 0 205.606 15.492 7.779 15.492 7.779 0 7.779 0"/><polygon class="cls-2" points="73.721 143.007 227.652 143.007 227.652 158.499 73.721 158.499 73.721 143.007 73.721 143.007"/><polygon class="cls-2" points="95.57 114.406 227.652 114.406 227.652 129.898 95.57 129.898 95.57 114.406 95.57 114.406"/><polygon class="cls-2" points="117.815 85.804 227.652 85.804 227.652 101.297 117.815 101.297 117.815 85.804 117.815 85.804"/><polygon class="cls-2" points="139.664 57.203 227.652 57.203 227.652 72.695 139.664 72.695 139.664 57.203 139.664 57.203"/><polygon class="cls-2" points="172.635 28.601 227.652 28.601 227.652 44.094 172.635 44.094 172.635 28.601 172.635 28.601"/><polygon class="cls-2" points="205.606 0 227.652 0 227.652 15.492 205.606 15.492 205.606 0 205.606 0"/><path class="cls-1" d="M10.30167,150.75313a7.58078,7.58078,0,1,1,7.58078,7.58076,7.54927,7.54927,0,0,1-7.58078-7.58076Z" transform="translate(-10.30167)"/><path class="cls-1" d="M10.30167,122.15171a7.58078,7.58078,0,1,1,7.58078,7.58081,7.54926,7.54926,0,0,1-7.58078-7.58081Z" transform="translate(-10.30167)"/><path class="cls-1" d="M10.30167,93.55034a7.58078,7.58078,0,1,1,7.58078,7.58081,7.54926,7.54926,0,0,1-7.58078-7.58081Z" transform="translate(-10.30167)"/><path class="cls-1" d="M10.30167,64.949a7.58078,7.58078,0,1,1,7.58078,7.58077A7.54927,7.54927,0,0,1,10.30167,64.949Z" transform="translate(-10.30167)"/><path class="cls-1" d="M10.30167,36.34761a7.58078,7.58078,0,1,1,7.58078,7.58076,7.54927,7.54927,0,0,1-7.58078-7.58076Z" transform="translate(-10.30167)"/><path class="cls-1" d="M10.30167,7.74619A7.58078,7.58078,0,1,1,17.88245,15.327a7.54926,7.54926,0,0,1-7.58078-7.58081Z" transform="translate(-10.30167)"/><path class="cls-1" d="M76.24374,150.75313a7.58078,7.58078,0,1,1,7.58078,7.58076,7.54927,7.54927,0,0,1-7.58078-7.58076Z" transform="translate(-10.30167)"/><path class="cls-1" d="M98.48926,122.15171a7.58078,7.58078,0,1,1,7.58078,7.58081,7.54926,7.54926,0,0,1-7.58078-7.58081Z" transform="translate(-10.30167)"/><path class="cls-1" d="M120.33754,93.55034a7.58078,7.58078,0,1,1,7.58077,7.58081,7.54925,7.54925,0,0,1-7.58077-7.58081Z" transform="translate(-10.30167)"/><path class="cls-1" d="M142.18582,64.949a7.58077,7.58077,0,1,1,7.58077,7.58077,7.54926,7.54926,0,0,1-7.58077-7.58077Z" transform="translate(-10.30167)"/><path class="cls-1" d="M175.15685,36.34761a7.58078,7.58078,0,1,1,7.58077,7.58076,7.54926,7.54926,0,0,1-7.58077-7.58076Z" transform="translate(-10.30167)"/><path class="cls-1" d="M208.52512,7.74619A7.58078,7.58078,0,1,1,216.1059,15.327a7.54925,7.54925,0,0,1-7.58078-7.58081Z" transform="translate(-10.30167)"/><path class="cls-2" d="M230.3734,150.75313a7.58078,7.58078,0,1,1,7.58076,7.58076,7.54926,7.54926,0,0,1-7.58076-7.58076Z" transform="translate(-10.30167)"/><path class="cls-2" d="M230.3734,122.15171a7.58078,7.58078,0,1,1,7.58076,7.58081,7.54924,7.54924,0,0,1-7.58076-7.58081Z" transform="translate(-10.30167)"/><path class="cls-2" d="M230.3734,93.55034a7.58078,7.58078,0,1,1,7.58076,7.58081,7.54924,7.54924,0,0,1-7.58076-7.58081Z" transform="translate(-10.30167)"/><path class="cls-2" d="M230.3734,64.949a7.58078,7.58078,0,1,1,7.58076,7.58077A7.54925,7.54925,0,0,1,230.3734,64.949Z" transform="translate(-10.30167)"/><path class="cls-2" d="M230.3734,36.34761a7.58078,7.58078,0,1,1,7.58076,7.58076,7.54925,7.54925,0,0,1-7.58076-7.58076Z" transform="translate(-10.30167)"/><path class="cls-2" d="M230.3734,7.74619a7.58078,7.58078,0,1,1,7.58076,7.58081,7.54924,7.54924,0,0,1-7.58076-7.58081Z" transform="translate(-10.30167)"/><path d="M17.17383,63.96505v-.3667h1.27148v.502h-.09277Zm1.27148,5.15625v.50195H17.17383v-.36719l1.17871-.13476Zm-.4248-2.73243c0-.92724,0-1.86328-.02735-2.79052h.9043c-.02734.90918-.02734,1.84521-.02734,2.79052v.33936c0,1.03125,0,1.96777.02734,2.895h-.9043c.02735-.90918.02735-1.8457.02735-2.89453Zm.4248,2.81446h1.15625c1.3916,0,2.15821-.9502,2.15821-2.58448,0-1.69482-.76661-2.60058-2.08106-2.60058h-1.2334v-.41992h1.38574a2.742,2.742,0,0,1,2.90918,3.02,2.85444,2.85444,0,0,1-3.08789,3.00488h-1.207Z" transform="translate(-10.30167)"/><path d="M25.05469,67.25606a10.15329,10.15329,0,0,1,1.39746-.37793v.32666a8.15356,8.15356,0,0,0-1.20508.36035c-.78711.30664-.88672.647-.88672.917a.628.628,0,0,0,.71777.666c.30762,0,.48536-.11475,1.03614-.5083l.19043-.14307.124.18555-.26758.27c-.53418.53564-.83886.78906-1.39355.78906a1.09778,1.09778,0,0,1-1.20508-1.127C23.5625,68.10274,23.83789,67.695,25.05469,67.25606ZM26.06934,68.8V66.736c0-.87744-.2461-1.09473-.83985-1.09473a2.14445,2.14445,0,0,0-.81152.16016l.375-.2832-.22461.76611c-.07813.28027-.22168.42969-.4707.42969a.37922.37922,0,0,1-.417-.36524,1.63631,1.63631,0,0,1,1.75684-1.11572c.94043,0,1.39062.42676,1.39062,1.56494v1.915c0,.39209.12305.53272.32618.53272a.4393.4393,0,0,0,.34668-.19776l.18261.1958a.84925.84925,0,0,1-.7832.47168A.82428.82428,0,0,1,26.06934,68.8Z" transform="translate(-10.30167)"/><path d="M29.82812,69.2751a1.01816,1.01816,0,0,0,.60547-.249l.208.24121a1.28755,1.28755,0,0,1-1.06055.47412.92186.92186,0,0,1-1.02441-1.03076c0-.22168.00879-.41357.00879-.76465V65.82784h-.74609v-.39551l1.11328-.144-.36914.30078.28711-1.46436h.54492l-.06934,1.57813v2.90869C29.32617,69.07735,29.52441,69.2751,29.82812,69.2751Zm.72364-3.92382v.47656H28.94629v-.47656Z" transform="translate(-10.30167)"/><path d="M32.56055,67.25606a10.15329,10.15329,0,0,1,1.39746-.37793v.32666a8.15356,8.15356,0,0,0-1.20508.36035c-.78711.30664-.88672.647-.88672.917a.628.628,0,0,0,.71777.666c.30762,0,.48536-.11475,1.03614-.5083l.19043-.14307.124.18555-.26758.27c-.53418.53564-.83887.78906-1.39355.78906a1.09778,1.09778,0,0,1-1.20508-1.127C31.06836,68.10274,31.34375,67.695,32.56055,67.25606ZM33.5752,68.8V66.736c0-.87744-.2461-1.09473-.83985-1.09473a2.14445,2.14445,0,0,0-.81152.16016l.375-.2832-.22461.76611c-.07813.28027-.22168.42969-.4707.42969a.37922.37922,0,0,1-.417-.36524,1.63631,1.63631,0,0,1,1.75684-1.11572c.94043,0,1.39062.42676,1.39062,1.56494v1.915c0,.39209.12305.53272.32618.53272a.4393.4393,0,0,0,.34668-.19776l.18261.1958a.84925.84925,0,0,1-.7832.47168A.82428.82428,0,0,1,33.5752,68.8Z" transform="translate(-10.30167)"/><path d="M37.38672,69.25606l.90137-.13476h.17968l.98243.13476v.36719H37.38672Zm2.67578-5.70117h.5625l2.06836,6.06836h-.87793l-1.794-5.36084.21485-.02588-1.83008,5.38672h-.42969Zm-1.04883,3.69092h2.43067l.14746.42041H38.86914ZM40.77246,69.257l1.12793-.13477h.2041l1.11817.13477v.36621h-2.4502Z" transform="translate(-10.30167)"/><path d="M44.333,69.62325c.01758-.40528.02734-1.33252.02734-1.89063v-.42871c0-.49511-.00976-.769-.02734-1.1289l-.71094-.08106v-.31738l1.25586-.54346.13672.09033.10644,1.04151v1.36767c0,.55811.00879,1.48535.02637,1.89063Zm1.43261-.3208v.3208H43.67773v-.3208l.98145-.18018h.209Zm2.09083-2.41065v.84082c0,.57618.00878,1.48535.02636,1.89063h-.81445c.01758-.40528.02734-1.31445.02734-1.89063v-.76709c0-.82226-.21191-1.08886-.74218-1.08886a1.95267,1.95267,0,0,0-1.31934.62353h-.19629v-.415h.46777l-.38476.16748a2.41343,2.41343,0,0,1,1.7832-1.01953C47.47852,65.23311,47.85645,65.71212,47.85645,66.8918Zm-.25293,2.23047.89843.18018v.3208H46.41406v-.3208l.98047-.18018Z" transform="translate(-10.30167)"/><path d="M50.668,67.25606a10.15329,10.15329,0,0,1,1.39746-.37793v.32666a8.15356,8.15356,0,0,0-1.20508.36035c-.78711.30664-.88672.647-.88672.917a.628.628,0,0,0,.71778.666c.30761,0,.48535-.11475,1.03613-.5083l.19043-.14307.124.18555-.26758.27c-.53418.53564-.83886.78906-1.39355.78906a1.09778,1.09778,0,0,1-1.20508-1.127C49.17578,68.10274,49.45117,67.695,50.668,67.25606ZM51.68262,68.8V66.736c0-.87744-.2461-1.09473-.83985-1.09473a2.14445,2.14445,0,0,0-.81152.16016l.375-.2832-.22461.76611c-.07812.28027-.22168.42969-.4707.42969a.37921.37921,0,0,1-.417-.36524,1.63629,1.63629,0,0,1,1.75683-1.11572c.94043,0,1.39063.42676,1.39063,1.56494v1.915c0,.39209.123.53272.32617.53272a.4393.4393,0,0,0,.34668-.19776l.18262.1958a.84927.84927,0,0,1-.78321.47168A.82428.82428,0,0,1,51.68262,68.8Z" transform="translate(-10.30167)"/><path d="M54.98047,62.96846l.127.07276-.03613,1.27734v3.41406q0,.94555.02734,1.89063H54.2832q.02784-.94555.02735-1.89063V63.78243l-.73633-.09033v-.31885Zm.82422,6.334v.3208H53.57617v-.3208l1.00879-.18018h.208Z" transform="translate(-10.30167)"/><path d="M55.94238,71.26827a.57836.57836,0,0,1,.60352-.38965.87513.87513,0,0,1,.66308.33789l.2793.28662-.35058.19531-.24415-.19531a2.6165,2.6165,0,0,0,1.17774-1.5376l.29-.81591,1.375-3.79834h.49121l-1.61426,4.24218c-.60254,1.59375-1.10156,2.27393-1.84473,2.27393C56.3252,71.86739,55.94434,71.6213,55.94238,71.26827Zm.91114-5.46192-.87891-.13574v-.31933h2.167v.32763l-1.06445.12744Zm1.35058,4.29053-1.89355-4.7456h.87793l1.40136,3.80664Zm1.53028-4.291-.94239-.13526v-.31933h1.76074v.31933l-.63867.13526Z" transform="translate(-10.30167)"/><path d="M62.73145,69.2751a1.01816,1.01816,0,0,0,.60546-.249l.208.24121a1.28755,1.28755,0,0,1-1.06054.47412A.92186.92186,0,0,1,61.46,68.71065c0-.22168.00879-.41357.00879-.76465V65.82784h-.74609v-.39551l1.11328-.144-.36914.30078.28711-1.46436h.54492l-.06934,1.57813v2.90869C62.22949,69.07735,62.42773,69.2751,62.73145,69.2751Zm.72363-3.92382v.47656H61.84961v-.47656Z" transform="translate(-10.30167)"/><path d="M64.5498,69.62325c.01856-.40528.02735-1.33252.02735-1.89063v-.42334c0-.49511-.00879-.77441-.02735-1.13427l-.72753-.08106v-.31738l1.38964-.54346.13575.09033-.02735,1.22071v1.18847c0,.55811.00977,1.48535.02735,1.89063Zm1.417-.3208v.3208H63.87793v-.3208l.98145-.18018h.209Zm-1.63086-5.64258a.60419.60419,0,1,1,.60351.57568A.57005.57005,0,0,1,64.33594,63.65987Z" transform="translate(-10.30167)"/><path d="M67.417,67.41036c0,1.1289.59766,1.74707,1.43848,1.74707a1.44273,1.44273,0,0,0,1.24609-.69043l.22168.11767a1.62752,1.62752,0,0,1-1.67578,1.15674A1.99317,1.99317,0,0,1,66.626,67.4963a2.11579,2.11579,0,0,1,2.083-2.26319A1.53886,1.53886,0,0,1,70.29883,66.403a.383.383,0,0,1-.416.34082.4758.4758,0,0,1-.48926-.43066l-.21777-.78369.42871.335a1.87089,1.87089,0,0,0-.86133-.22315C67.97559,65.64131,67.417,66.2546,67.417,67.41036Z" transform="translate(-10.30167)"/><path d="M71.0957,69.39522l-.03222-.98828h.49121l.24023,1.07031-.44433-.20508v-.31005a1.72557,1.72557,0,0,0,1.10839.36914c.68262,0,1.00489-.27295,1.00489-.68409,0-.38134-.26465-.57861-.833-.78369l-.418-.15234c-.65918-.24072-1.08984-.59815-1.08984-1.21436,0-.6582.55664-1.26367,1.56738-1.26367a2.33323,2.33323,0,0,1,1.26172.36865l-.03711.91358h-.46582l-.18457-.92041.334.14795v.23974a1.46951,1.46951,0,0,0-.918-.33935c-.5498,0-.83691.23926-.83691.61474,0,.396.21973.5503.833.77295l.27929.10059c.89747.32861,1.24024.75439,1.24024,1.31885,0,.68261-.5957,1.291-1.75488,1.291A2.75841,2.75841,0,0,1,71.0957,69.39522Z" transform="translate(-10.30167)"/><path d="M78.54,67.25606a10.15329,10.15329,0,0,1,1.39746-.37793v.32666a8.15356,8.15356,0,0,0-1.20508.36035c-.78711.30664-.88672.647-.88672.917a.628.628,0,0,0,.71778.666c.30761,0,.48535-.11475,1.03613-.5083l.19043-.14307.124.18555-.26758.27c-.53418.53564-.83886.78906-1.39355.78906a1.09778,1.09778,0,0,1-1.20508-1.127C77.04785,68.10274,77.32324,67.695,78.54,67.25606ZM79.55469,68.8V66.736c0-.87744-.2461-1.09473-.83985-1.09473a2.14445,2.14445,0,0,0-.81152.16016l.375-.2832-.22461.76611c-.07812.28027-.22168.42969-.4707.42969a.37921.37921,0,0,1-.417-.36524,1.63629,1.63629,0,0,1,1.75683-1.11572c.94043,0,1.39063.42676,1.39063,1.56494v1.915c0,.39209.123.53272.32617.53272a.4393.4393,0,0,0,.34668-.19776l.18262.1958a.84927.84927,0,0,1-.78321.47168A.82428.82428,0,0,1,79.55469,68.8Z" transform="translate(-10.30167)"/><path d="M82.19531,69.62325c.01758-.40528.02735-1.33252.02735-1.89063v-.42871c0-.49511-.00977-.769-.02735-1.1289l-.71093-.08106v-.31738l1.25585-.54346.13672.09033.10645,1.04151v1.36767c0,.55811.00879,1.48535.02637,1.89063Zm1.43262-.3208v.3208H81.54v-.3208l.98144-.18018h.209Zm2.09082-2.41065v.84082c0,.57618.00879,1.48535.02637,1.89063h-.81446c.01758-.40528.02735-1.31445.02735-1.89063v-.76709c0-.82226-.21192-1.08886-.74219-1.08886a1.95269,1.95269,0,0,0-1.31934.62353H82.7002v-.415H83.168l-.38477.16748a2.41345,2.41345,0,0,1,1.78321-1.01953C85.34082,65.23311,85.71875,65.71212,85.71875,66.8918Zm-.25293,2.23047.89844.18018v.3208H84.27637v-.3208l.98047-.18018Z" transform="translate(-10.30167)"/><path d="M89.0957,69.23018c.458,0,.77246-.20508,1.17871-.73144l.083.23779a1.61476,1.61476,0,0,1-1.48633,1.00488c-1.09375,0-1.834-.90332-1.834-2.21826a2.03969,2.03969,0,0,1,1.9209-2.29,1.63422,1.63422,0,0,1,1.43164.92725l-.09082.231a1.73437,1.73437,0,0,0-1.21-.64794c-.668,0-1.24317.53808-1.24317,1.7622C87.8457,68.69112,88.37695,69.23018,89.0957,69.23018Zm2.499.07227v.3208l-1.39942.09082-.09082-.91162V66.14473l.02832-.11621V63.78243l-.7666-.09033v-.31885l1.40723-.40479.12793.07276-.03614,1.27734v5.30469l-.17089-.47022Z" transform="translate(-10.30167)"/><path d="M94.87109,64.1003l-1.17871-.13525v-.3667h2.458v.4082l-1.0918.09375Zm-.6582-.502h.90723l1.78418,5.08154-.19336.01123,1.72168-5.09277h.49218L96.86328,69.6838h-.39062Zm4.16309.502-.90332-.09375v-.4082h2.07226v.3667l-.99121.13525Z" transform="translate(-10.30167)"/><path d="M100.3418,69.62325c.01855-.40528.02734-1.33252.02734-1.89063v-.42334c0-.49511-.00879-.77441-.02734-1.13427l-.72754-.08106v-.31738l1.38965-.54346.13574.09033-.02735,1.22071v1.18847c0,.55811.00977,1.48535.02735,1.89063Zm1.417-.3208v.3208H99.66992v-.3208l.98145-.18018h.209Zm-1.63086-5.64258a.60419.60419,0,1,1,.60352.57568A.57005.57005,0,0,1,100.12793,63.65987Z" transform="translate(-10.30167)"/><path d="M102.49609,69.39522l-.03222-.98828h.49121l.24023,1.07031-.44433-.20508v-.31005a1.72558,1.72558,0,0,0,1.1084.36914c.68261,0,1.00488-.27295,1.00488-.68409,0-.38134-.26465-.57861-.833-.78369l-.418-.15234c-.65918-.24072-1.08984-.59815-1.08984-1.21436,0-.6582.55664-1.26367,1.56738-1.26367a2.33323,2.33323,0,0,1,1.26172.36865l-.03711.91358h-.46582l-.18457-.92041.334.14795v.23974a1.46951,1.46951,0,0,0-.918-.33935c-.5498,0-.83691.23926-.83691.61474,0,.396.21973.5503.833.77295l.2793.10059c.89746.32861,1.24023.75439,1.24023,1.31885,0,.68261-.5957,1.291-1.75488,1.291A2.75841,2.75841,0,0,1,102.49609,69.39522Z" transform="translate(-10.30167)"/><path d="M107.543,68.03633c0,.7876.23047,1.061.71484,1.061a1.96126,1.96126,0,0,0,1.35938-.67871h.19824v.4668h-.4668l.31348-.14209a2.12408,2.12408,0,0,1-1.71387.998c-.72265,0-1.17676-.43213-1.167-1.6206l.02734-2.3794.19434.17774-.83594-.17969v-.31885l1.32715-.12549.09375.09034-.04492,1.26123Zm2.09668,1.66065-.12305-1.05371.02735-2.90186.19433.17774-.834-.17969v-.3169l1.30761-.12744.09278.09034-.02637,1.26123v2.709l-.23828-.23584.85058.18262v.32129Z" transform="translate(-10.30167)"/><path d="M113.09082,67.25606a10.15329,10.15329,0,0,1,1.39746-.37793v.32666a8.15356,8.15356,0,0,0-1.20508.36035c-.78711.30664-.88672.647-.88672.917a.628.628,0,0,0,.71778.666c.30762,0,.48535-.11475,1.03613-.5083l.19043-.14307.124.18555-.26757.27c-.53418.53564-.83887.78906-1.39356.78906a1.09778,1.09778,0,0,1-1.20508-1.127C111.59863,68.10274,111.874,67.695,113.09082,67.25606ZM114.10547,68.8V66.736c0-.87744-.24609-1.09473-.83985-1.09473a2.14445,2.14445,0,0,0-.81152.16016l.375-.2832-.22461.76611c-.07812.28027-.22168.42969-.4707.42969a.37921.37921,0,0,1-.417-.36524,1.63629,1.63629,0,0,1,1.75683-1.11572c.94043,0,1.39063.42676,1.39063,1.56494v1.915c0,.39209.123.53272.32617.53272a.4393.4393,0,0,0,.34668-.19776l.18262.1958a.84925.84925,0,0,1-.78321.47168A.82428.82428,0,0,1,114.10547,68.8Z" transform="translate(-10.30167)"/><path d="M117.40332,62.96846l.127.07276-.03613,1.27734v3.41406q0,.94555.02734,1.89063h-.81543q.02784-.94555.02735-1.89063V63.78243l-.73633-.09033v-.31885Zm.82422,6.334v.3208H115.999v-.3208l1.00879-.18018h.208Z" transform="translate(-10.30167)"/><path d="M119.43945,69.62325c.01856-.40528.02735-1.33252.02735-1.89063v-.42334c0-.49511-.00879-.77441-.02735-1.13427l-.72754-.08106v-.31738l1.38965-.54346.13574.09033L120.21,66.54415v1.18847c0,.55811.00977,1.48535.02734,1.89063Zm1.417-.3208v.3208h-2.08887v-.3208l.98144-.18018h.209Zm-1.63086-5.64258a.60419.60419,0,1,1,.60351.57568A.57005.57005,0,0,1,119.22559,63.65987Z" transform="translate(-10.30167)"/><path d="M124.88574,65.35128v.31689l-2.83789,3.95508v-.38037h2.55567l-.41211.38037.36035-1.46973h.46679l-.09082,1.46973h-3.52734v-.31738l2.85156-3.95459v.37988H121.915l.33984-.37988-.334,1.3789-.46582-.03564.07226-1.34326Z" transform="translate(-10.30167)"/><path d="M127.13867,67.25606a10.15329,10.15329,0,0,1,1.39746-.37793v.32666a8.15393,8.15393,0,0,0-1.20508.36035c-.7871.30664-.88671.647-.88671.917a.628.628,0,0,0,.71777.666c.30762,0,.48535-.11475,1.03613-.5083l.19043-.14307.124.18555-.26758.27c-.53418.53564-.83887.78906-1.39356.78906a1.09778,1.09778,0,0,1-1.20508-1.127C125.64648,68.10274,125.92188,67.695,127.13867,67.25606ZM128.15332,68.8V66.736c0-.87744-.24609-1.09473-.83984-1.09473a2.1445,2.1445,0,0,0-.81153.16016l.375-.2832-.22461.76611c-.07812.28027-.22168.42969-.4707.42969a.37921.37921,0,0,1-.417-.36524,1.63629,1.63629,0,0,1,1.75683-1.11572c.94043,0,1.39063.42676,1.39063,1.56494v1.915c0,.39209.123.53272.32617.53272a.43928.43928,0,0,0,.34668-.19776l.18262.1958a.84925.84925,0,0,1-.7832.47168A.82428.82428,0,0,1,128.15332,68.8Z" transform="translate(-10.30167)"/><path d="M131.91211,69.2751a1.01819,1.01819,0,0,0,.60547-.249l.208.24121a1.28758,1.28758,0,0,1-1.06055.47412.92186.92186,0,0,1-1.02442-1.03076c0-.22168.00879-.41357.00879-.76465V65.82784h-.74609v-.39551l1.11328-.144-.36914.30078.28711-1.46436h.54492l-.06933,1.57813v2.90869C131.41016,69.07735,131.6084,69.2751,131.91211,69.2751Zm.72363-3.92382v.47656h-1.60547v-.47656Z" transform="translate(-10.30167)"/><path d="M133.73047,69.62325c.01855-.40528.02734-1.33252.02734-1.89063v-.42334c0-.49511-.00879-.77441-.02734-1.13427l-.72754-.08106v-.31738l1.38965-.54346.13574.09033-.02734,1.22071v1.18847c0,.55811.00976,1.48535.02734,1.89063Zm1.417-.3208v.3208h-2.08887v-.3208l.98145-.18018h.209Zm-1.63086-5.64258a.60419.60419,0,1,1,.60352.57568A.57006.57006,0,0,1,133.5166,63.65987Z" transform="translate(-10.30167)"/><path d="M135.834,67.50313a2.0751,2.0751,0,1,1,4.13184,0,2.07256,2.07256,0,1,1-4.13184,0Zm3.28125.001c0-1.21045-.44824-1.86231-1.21582-1.86231-.78418,0-1.21484.65186-1.21484,1.86231,0,1.21094.43066,1.82861,1.21484,1.82861C138.667,69.33272,139.11523,68.71505,139.11523,67.50411Z" transform="translate(-10.30167)"/><path d="M141.38672,69.62325c.01758-.40528.02734-1.33252.02734-1.89063v-.42871c0-.49511-.00976-.769-.02734-1.1289l-.71094-.08106v-.31738l1.25586-.54346.13672.09033.10644,1.04151v1.36767c0,.55811.00879,1.48535.02637,1.89063Zm1.43262-.3208v.3208h-2.08789v-.3208l.98144-.18018h.209Zm2.09082-2.41065v.84082c0,.57618.00879,1.48535.02636,1.89063h-.81445c.01758-.40528.02734-1.31445.02734-1.89063v-.76709c0-.82226-.21191-1.08886-.74218-1.08886a1.95267,1.95267,0,0,0-1.31934.62353h-.19629v-.415h.46778l-.38477.16748a2.41343,2.41343,0,0,1,1.7832-1.01953C144.53223,65.23311,144.91016,65.71212,144.91016,66.8918Zm-.25293,2.23047.89843.18018v.3208h-2.08789v-.3208l.98047-.18018Z" transform="translate(-10.30167)"/><path d="M146.28027,69.39522l-.03222-.98828h.49121l.24023,1.07031-.44433-.20508v-.31005a1.72557,1.72557,0,0,0,1.10839.36914c.68262,0,1.00489-.27295,1.00489-.68409,0-.38134-.26465-.57861-.833-.78369l-.418-.15234c-.65918-.24072-1.08984-.59815-1.08984-1.21436,0-.6582.55664-1.26367,1.56738-1.26367a2.33323,2.33323,0,0,1,1.26172.36865l-.03711.91358h-.46582l-.18457-.92041.334.14795v.23974a1.46951,1.46951,0,0,0-.918-.33935c-.5498,0-.83691.23926-.83691.61474,0,.396.21973.5503.833.77295l.27929.10059c.89747.32861,1.24024.75439,1.24024,1.31885,0,.68261-.5957,1.291-1.75488,1.291A2.75841,2.75841,0,0,1,146.28027,69.39522Z" transform="translate(-10.30167)"/><path d="M17.17383,91.052v-.3667h1.27148v.50195h-.09277Zm1.36426,5.15625,1.17871.13476v.36719h-2.543V96.343l1.17871-.13476Zm-.51758-2.73242c0-.92725,0-1.86328-.02735-2.79053h.90235c-.02637.93506-.02637,1.81934-.02637,2.87695v.27051c0,1.01367,0,1.9502.02637,2.87744h-.90235c.02735-.90918.02735-1.8457.02735-2.791Zm.42578.03711h1.12109c.96778,0,1.42481-.52246,1.42481-1.24317,0-.75439-.4043-1.16455-1.3291-1.16455H18.44531v-.41992h1.24707c1.37989,0,2.18848.5835,2.18848,1.5791,0,.76074-.59766,1.45459-1.80078,1.55274l.02637-.07276a1.37548,1.37548,0,0,1,1.32421,1.1875l.42969,1.48877-.30566-.188.95117.11035v.36719a2.14856,2.14856,0,0,1-.667.09229c-.57032,0-.8252-.14844-.93262-.5791L20.54883,94.78c-.17481-.72217-.501-.85645-1.23633-.85645h-.86621Z" transform="translate(-10.30167)"/><path d="M26.69336,94.05a1.82038,1.82038,0,0,1-.0625.50293h-3.333v-.38379h2.11621c.43262,0,.53223-.20459.53223-.46485a.98144.98144,0,0,0-.97656-.97607c-.56543,0-1.21289.48193-1.21289,1.77,0,1.14062.57421,1.74609,1.46191,1.74609a1.55153,1.55153,0,0,0,1.251-.63037l.21289.16943a1.83726,1.83726,0,0,1-1.7295,1.04493,1.96958,1.96958,0,0,1-2.0039-2.21143A2.13493,2.13493,0,0,1,25.0166,92.32,1.61606,1.61606,0,0,1,26.69336,94.05Z" transform="translate(-10.30167)"/><path d="M27.59082,96.48214l-.03223-.98829h.49121L28.29,96.56417l-.44434-.20508V96.049a1.72562,1.72562,0,0,0,1.1084.36914c.68262,0,1.00488-.273,1.00488-.68408,0-.38135-.26464-.57862-.833-.78369l-.418-.15235c-.65918-.24072-1.08985-.59814-1.08985-1.21435,0-.65821.55664-1.26367,1.56739-1.26367a2.33319,2.33319,0,0,1,1.26172.36865l-.03711.91357h-.46582l-.18457-.92041.334.148v.23975a1.46953,1.46953,0,0,0-.918-.33936c-.5498,0-.83691.23926-.83691.61475,0,.396.21972.55029.833.77295l.27929.10058c.89746.32862,1.24024.7544,1.24024,1.31885,0,.68262-.59571,1.291-1.75489,1.291A2.75848,2.75848,0,0,1,27.59082,96.48214Z" transform="translate(-10.30167)"/><path d="M35.18945,94.05a1.82,1.82,0,0,1-.0625.50293H31.794v-.38379h2.11621c.43261,0,.53222-.20459.53222-.46485a.98144.98144,0,0,0-.97656-.97607c-.56543,0-1.21289.48193-1.21289,1.77,0,1.14062.57422,1.74609,1.46191,1.74609a1.55153,1.55153,0,0,0,1.251-.63037l.21289.16943a1.83725,1.83725,0,0,1-1.72949,1.04493,1.96958,1.96958,0,0,1-2.00391-2.21143A2.13493,2.13493,0,0,1,33.5127,92.32,1.61605,1.61605,0,0,1,35.18945,94.05Z" transform="translate(-10.30167)"/><path d="M37.43848,94.343a10.15473,10.15473,0,0,1,1.39746-.37792v.32666a8.15115,8.15115,0,0,0-1.20508.36035c-.78711.30664-.88672.647-.88672.917a.628.628,0,0,0,.71777.666c.30762,0,.48536-.11474,1.03614-.5083l.19043-.14306.124.18554-.26758.27c-.53418.53565-.83887.78907-1.39355.78907a1.09779,1.09779,0,0,1-1.20508-1.127C35.94629,95.18965,36.22168,94.78194,37.43848,94.343Zm1.01464,1.544V93.823c0-.87745-.24609-1.09473-.83984-1.09473a2.14426,2.14426,0,0,0-.81152.16016l.375-.28321-.22461.76612c-.07813.28027-.22168.42968-.4707.42968a.37922.37922,0,0,1-.417-.36523A1.6363,1.6363,0,0,1,37.82129,92.32c.94043,0,1.39062.42675,1.39062,1.56494V95.8c0,.39209.123.53271.32618.53271a.43931.43931,0,0,0,.34668-.19775l.18261.1958a.84927.84927,0,0,1-.7832.47168A.82429.82429,0,0,1,38.45312,95.88692Z" transform="translate(-10.30167)"/><path d="M41.12109,94.81954v-.4292c0-.49512-.00976-.76856-.02734-1.12842l-.71094-.08105v-.31739L41.63867,92.32l.13672.09033.10645,1.124v1.28516c0,.5581.00878,1.48535.02636,1.89062h-.81445C41.11133,96.30489,41.12109,95.37764,41.12109,94.81954Zm-.666,1.56982.9834-.18017h.22363l.98242.18017v.3208H40.45508Zm1.04883-2.78369h.52246l-.21875.07324c.28027-.85205.834-1.35888,1.36523-1.35888a.75238.75238,0,0,1,.64746.32617c-.001.42578-.168.66162-.52832.66162a.81143.81143,0,0,1-.54883-.22754l-.24511-.21484.4375-.07715a2.14626,2.14626,0,0,0-1.07129,1.4209l-.36035-.00342Z" transform="translate(-10.30167)"/><path d="M44.96289,94.49727c0,1.12891.59766,1.74707,1.43848,1.74707a1.44271,1.44271,0,0,0,1.24609-.69043l.22168.11768a1.62753,1.62753,0,0,1-1.67578,1.15674,1.99318,1.99318,0,0,1-2.02148-2.24512,2.11578,2.11578,0,0,1,2.083-2.26318,1.53885,1.53885,0,0,1,1.58985,1.16992.383.383,0,0,1-.416.34082.47581.47581,0,0,1-.48926-.43067l-.21679-.78369.42773.335a1.871,1.871,0,0,0-.86133-.22314C45.52148,92.72823,44.96289,93.34151,44.96289,94.49727Z" transform="translate(-10.30167)"/><path d="M49.0459,90.86934l-.73633-.09033v-.31885l1.37891-.40478.127.07275-.03613,1.27734v1.90137l.02734.11719v1.39551c0,.5581.00879,1.48535.02734,1.89062h-.81543c.01856-.40527.02735-1.33252.02735-1.89062Zm1.39648,5.52v.3208H48.35449v-.3208l.98145-.18017h.209Zm2.13379-2.41064v.84082c0,.57617.00977,1.48535.02735,1.89062h-.81543c.01855-.40527.02734-1.31445.02734-1.89062v-.76709c0-.82276-.21-1.08887-.74023-1.08887a1.87961,1.87961,0,0,0-1.31934.62744h-.19629v-.41894h.46582l-.40137.16748A2.44086,2.44086,0,0,1,51.42285,92.32C52.19824,92.32,52.57617,92.799,52.57617,93.97872Zm-.25293,2.23047.89942.18017v.3208H51.13477v-.3208l.98046-.18017Z" transform="translate(-10.30167)"/><path d="M57.49023,94.343a10.15527,10.15527,0,0,1,1.39747-.37792v.32666a8.15115,8.15115,0,0,0-1.20508.36035c-.78711.30664-.88672.647-.88672.917a.628.628,0,0,0,.71777.666c.30762,0,.48535-.11474,1.03613-.5083l.19043-.14306.124.18554-.26758.27c-.53418.53565-.83887.78907-1.39356.78907a1.09779,1.09779,0,0,1-1.20507-1.127C55.99805,95.18965,56.27344,94.78194,57.49023,94.343Zm1.01465,1.544V93.823c0-.87745-.24609-1.09473-.83984-1.09473a2.14422,2.14422,0,0,0-.81152.16016l.375-.28321-.22461.76612c-.07813.28027-.22168.42968-.47071.42968a.37921.37921,0,0,1-.417-.36523A1.63629,1.63629,0,0,1,57.87305,92.32c.94043,0,1.39062.42675,1.39062,1.56494V95.8c0,.39209.123.53271.32617.53271a.4393.4393,0,0,0,.34668-.19775l.18262.1958a.84927.84927,0,0,1-.7832.47168A.82429.82429,0,0,1,58.50488,95.88692Z" transform="translate(-10.30167)"/><path d="M61.14551,96.71016c.01758-.40527.02734-1.33252.02734-1.89062v-.42871c0-.49512-.00976-.769-.02734-1.12891l-.71094-.08105v-.31739L61.69043,92.32l.13672.09033.10644,1.0415v1.36768c0,.5581.00879,1.48535.02637,1.89062Zm1.43261-.3208v.3208H60.49023v-.3208l.98145-.18017h.209ZM64.669,93.97872v.84082c0,.57617.00878,1.48535.02636,1.89062h-.81445c.01758-.40527.02734-1.31445.02734-1.89062v-.76709c0-.82227-.21191-1.08887-.74218-1.08887a1.95264,1.95264,0,0,0-1.31934.62354h-.19629v-.415h.46777l-.38476.16748A2.4134,2.4134,0,0,1,63.5166,92.32C64.291,92.32,64.669,92.799,64.669,93.97872ZM64.416,96.20919l.89843.18017v.3208H63.22656v-.3208l.98047-.18017Z" transform="translate(-10.30167)"/><path d="M68.04492,96.3171c.458,0,.77246-.20508,1.17871-.73145l.083.23779a1.61478,1.61478,0,0,1-1.48633,1.00489c-1.09375,0-1.834-.90332-1.834-2.21827a2.03968,2.03968,0,0,1,1.9209-2.29,1.63421,1.63421,0,0,1,1.43164.92724l-.09082.231a1.73439,1.73439,0,0,0-1.21-.64795c-.668,0-1.24317.53809-1.24317,1.76221C66.79492,95.778,67.32617,96.3171,68.04492,96.3171Zm2.499.07226v.3208l-1.39942.09082-.09082-.91162V93.23165l.02832-.11621v-2.2461l-.7666-.09033v-.31885l1.40723-.40478.12793.07275-.03614,1.27734v5.30469l-.1709-.47021Z" transform="translate(-10.30167)"/><path d="M73.1748,91.13839l.41895-.45313-.28516,1.60645H72.79l.07031-1.60645h4.93653l.06933,1.60645h-.51758l-.28515-1.60645.41894.45313Zm2.249,5.06982,1.26562.13476v.36719H73.9668V96.343l1.26465-.13476Zm-.52051-2.73242c0-.92725,0-1.86328-.02734-2.79053h.90429c-.02636.90918-.02636,1.84521-.02636,2.79053v.44336c0,.92724,0,1.86377.02636,2.791H74.876c.02734-.90918.02734-1.8457.02734-2.791Z" transform="translate(-10.30167)"/><path d="M81.56543,94.05a1.82038,1.82038,0,0,1-.0625.50293h-3.333v-.38379h2.11719c.43164,0,.53125-.20459.53125-.46485a.98144.98144,0,0,0-.97656-.97607c-.56543,0-1.21289.48193-1.21289,1.77,0,1.14062.57421,1.74609,1.46191,1.74609a1.55153,1.55153,0,0,0,1.251-.63037l.21289.16943a1.83725,1.83725,0,0,1-1.72949,1.04493,1.96958,1.96958,0,0,1-2.00391-2.21143A2.13493,2.13493,0,0,1,79.88867,92.32,1.61606,1.61606,0,0,1,81.56543,94.05Z" transform="translate(-10.30167)"/><path d="M83.17578,94.49727c0,1.12891.59766,1.74707,1.43848,1.74707a1.44271,1.44271,0,0,0,1.24609-.69043l.22168.11768a1.62753,1.62753,0,0,1-1.67578,1.15674,1.99318,1.99318,0,0,1-2.02148-2.24512,2.11578,2.11578,0,0,1,2.083-2.26318,1.53885,1.53885,0,0,1,1.58985,1.16992.383.383,0,0,1-.416.34082.47581.47581,0,0,1-.48926-.43067l-.21679-.78369.42773.335a1.871,1.871,0,0,0-.86133-.22314C83.73438,92.72823,83.17578,93.34151,83.17578,94.49727Z" transform="translate(-10.30167)"/><path d="M87.25879,90.86934l-.73633-.09033v-.31885l1.37891-.40478.12695.07275-.03613,1.27734v1.90137l.02734.11719v1.39551c0,.5581.00879,1.48535.02735,1.89062h-.81543c.01855-.40527.02734-1.33252.02734-1.89062Zm1.39648,5.52v.3208H86.56738v-.3208l.98145-.18017h.209Zm2.13379-2.41064v.84082c0,.57617.00977,1.48535.02735,1.89062H90.001c.01855-.40527.02734-1.31445.02734-1.89062v-.76709c0-.82276-.21-1.08887-.74023-1.08887a1.87961,1.87961,0,0,0-1.31934.62744h-.19629v-.41894h.46582l-.40137.16748A2.44086,2.44086,0,0,1,89.63574,92.32C90.41113,92.32,90.78906,92.799,90.78906,93.97872Zm-.25293,2.23047.89942.18017v.3208H89.34766v-.3208l.98046-.18017Z" transform="translate(-10.30167)"/><path d="M92.72559,96.71016c.01757-.40527.02734-1.33252.02734-1.89062v-.42871c0-.49512-.00977-.769-.02734-1.12891l-.71094-.08105v-.31739L93.27051,92.32l.13672.09033.10644,1.0415v1.36768c0,.5581.00879,1.48535.02637,1.89062Zm1.43261-.3208v.3208H92.07031v-.3208l.98145-.18017h.209ZM96.249,93.97872v.84082c0,.57617.00879,1.48535.02637,1.89062h-.81445c.01758-.40527.02734-1.31445.02734-1.89062v-.76709c0-.82227-.21191-1.08887-.74219-1.08887a1.95262,1.95262,0,0,0-1.31933.62354h-.19629v-.415h.46777l-.38476.16748A2.41338,2.41338,0,0,1,95.09668,92.32C95.87109,92.32,96.249,92.799,96.249,93.97872Zm-.25293,2.23047.89844.18017v.3208H94.80664v-.3208l.98047-.18017Z" transform="translate(-10.30167)"/><path d="M97.56738,94.59005a2.0751,2.0751,0,1,1,4.13184,0,2.07256,2.07256,0,1,1-4.13184,0Zm3.28125.001c0-1.21045-.44824-1.8623-1.21582-1.8623-.78418,0-1.21484.65185-1.21484,1.8623,0,1.21094.43066,1.82862,1.21484,1.82862C100.40039,96.41964,100.84863,95.802,100.84863,94.591Z" transform="translate(-10.30167)"/><path d="M103.64258,90.05538l.127.07275-.03613,1.27734v3.41407q0,.94555.02734,1.89062h-.81543q.02784-.94555.02735-1.89062v-3.9502l-.73633-.09033v-.31885Zm.82422,6.334v.3208h-2.22852v-.3208l1.00879-.18017h.208Z" transform="translate(-10.30167)"/><path d="M105.10059,94.59005a2.07509,2.07509,0,1,1,4.13183,0,2.07255,2.07255,0,1,1-4.13183,0Zm3.28125.001c0-1.21045-.44825-1.8623-1.21582-1.8623-.78418,0-1.21485.65185-1.21485,1.8623,0,1.21094.43067,1.82862,1.21485,1.82862C107.93359,96.41964,108.38184,95.802,108.38184,94.591Z" transform="translate(-10.30167)"/><path d="M113.37109,97.5378c0-.39649-.24707-.69971-.8955-.69971h-1.05567a3.10868,3.10868,0,0,1-.47851-.03369v-.02881c-.46-.10156-.69141-.33838-.69141-.71435,0-.32422.21484-.66993.82324-1.19629l.20117.13574a1.04906,1.04906,0,0,0-.377.74463c0,.24121.10156.40137.52246.40137h1.18067c.98632,0,1.44629.4292,1.44629,1.16162,0,.78222-.74805,1.55566-2.22168,1.55566-1.30762,0-1.86719-.45312-1.86719-1.0957,0-.44092.28125-.77539,1.17773-1.15381l.04981.05566a1.27824,1.27824,0,0,0-.49024.957c0,.59082.4541.82471,1.16309.82471C112.84375,98.45186,113.37109,98.04415,113.37109,97.5378ZM111.7998,92.32a1.43117,1.43117,0,0,1,1.61817,1.47509,1.45991,1.45991,0,0,1-1.62695,1.47412,1.43419,1.43419,0,0,1-1.627-1.47412A1.463,1.463,0,0,1,111.7998,92.32Zm-.90039,1.48291c0,.65625.31543,1.10253.86621,1.10253.5752,0,.918-.47216.918-1.13671,0-.63916-.31738-1.085-.875-1.085C111.24219,92.6838,110.89941,93.14717,110.89941,93.80294Zm3.05957-1.48389.13575.08984v.56592h-1.32227v-.24609Z" transform="translate(-10.30167)"/><path d="M114.3877,98.35518a.57836.57836,0,0,1,.60351-.38965.87515.87515,0,0,1,.66309.33789l.27929.28663-.35058.19531-.24414-.19531a2.61658,2.61658,0,0,0,1.17773-1.5376l.29-.81592,1.375-3.79834h.49121l-1.61426,4.24219c-.60254,1.59375-1.10156,2.27392-1.84472,2.27392C114.77051,98.9543,114.38965,98.70821,114.3877,98.35518Zm.91113-5.46191-.87891-.13574v-.31934h2.167v.32764l-1.06445.12744Zm1.35058,4.29053-1.89355-4.74561h.87793l1.40137,3.80664Zm1.53028-4.291-.94239-.13525v-.31934h1.76075v.31934l-.63867.13525Z" transform="translate(-10.30167)"/><path d="M17.124,10.94356l.95118-.13476h.18457l.88281.13476v.36719H17.124Zm.00489-5.65771h1.19336l.001.50195h-.11035l-1.084-.13525Zm.80859,0h.38672l.08008,2.70752v3.31738h-.4668Zm.01172,0H18.792l2.17285,5.34326h-.30566l2.05664-5.34326h.4834l-2.334,6.0249h-.45507Zm4.08887,5.65771,1.084-.13476h.19336l1.17871.13476v.36719H22.03809Zm.77734-2.41309.002-3.24462h.85742c-.02636.90966-.02636,1.84619-.02636,2.79052v.44336c0,.92823,0,1.86426.02636,2.791h-.88671C22.81543,10.40059,22.81445,9.46456,22.81543,8.53047Zm.40723-3.24462h1.26953v.3667l-1.17676.13525h-.09277Z" transform="translate(-10.30167)"/><path d="M26.61133,8.94356a10.15329,10.15329,0,0,1,1.39746-.37793v.32666a8.15356,8.15356,0,0,0-1.20508.36035c-.78711.30664-.88672.647-.88672.917a.628.628,0,0,0,.71778.666c.30761,0,.48535-.11475,1.03613-.5083l.19043-.14307.124.18555-.26758.27c-.53418.53564-.83886.78906-1.39355.78906a1.09778,1.09778,0,0,1-1.20508-1.127C25.11914,9.79024,25.39453,9.38253,26.61133,8.94356Zm1.01465,1.544v-2.064c0-.87744-.2461-1.09473-.83985-1.09473a2.14445,2.14445,0,0,0-.81152.16016l.375-.2832-.22461.76611c-.07812.28027-.22168.42969-.4707.42969a.37922.37922,0,0,1-.417-.36524,1.63631,1.63631,0,0,1,1.75684-1.11572c.94043,0,1.39063.42676,1.39063,1.56494v1.915c0,.39209.123.53272.32617.53272a.4393.4393,0,0,0,.34668-.19776l.18261.1958a.84925.84925,0,0,1-.7832.47168A.82428.82428,0,0,1,27.626,10.48751Z" transform="translate(-10.30167)"/><path d="M31.38477,10.9626a1.01816,1.01816,0,0,0,.60546-.249l.208.24121a1.28755,1.28755,0,0,1-1.06054.47412.92186.92186,0,0,1-1.02442-1.03076c0-.22168.00879-.41357.00879-.76465V7.51534H29.376V7.11983l1.11328-.144-.36914.30078.28711-1.46436h.54492l-.06934,1.57813V10.299C30.88281,10.76485,31.08105,10.9626,31.38477,10.9626Zm.72363-3.92382v.47656H30.50293V7.03878Z" transform="translate(-10.30167)"/><path d="M33.17871,5.46993l-.73633-.09033V5.06075L33.82129,4.656l.127.07276-.03613,1.27734V7.90743l.02734.11719v1.3955c0,.55811.00879,1.48535.02735,1.89063h-.81543c.01855-.40528.02734-1.33252.02734-1.89063Zm1.39649,5.52v.3208H32.4873V10.99l.98145-.18018h.209ZM36.709,8.5793v.84082c0,.57618.00977,1.48535.02735,1.89063H35.9209c.01855-.40528.02734-1.31445.02734-1.89063V8.653c0-.82275-.21-1.08886-.74023-1.08886a1.87957,1.87957,0,0,0-1.31934.62744h-.19629v-.419h.46582l-.40136.16748a2.44089,2.44089,0,0,1,1.79882-1.01953C36.33105,6.92061,36.709,7.39962,36.709,8.5793Zm-.25293,2.23047.89942.18018v.3208H35.26758V10.99l.98047-.18018Z" transform="translate(-10.30167)"/><path d="M41.77734,8.65059a1.82,1.82,0,0,1-.0625.50293h-3.333V8.76973h2.11621c.43261,0,.53222-.20459.53222-.46484a.98144.98144,0,0,0-.97656-.97608c-.56543,0-1.21289.48194-1.21289,1.77,0,1.14063.57422,1.7461,1.46191,1.7461a1.55153,1.55153,0,0,0,1.251-.63037l.21289.16943a1.83724,1.83724,0,0,1-1.72949,1.04492A1.96958,1.96958,0,0,1,38.0332,9.21749a2.13494,2.13494,0,0,1,2.06739-2.29688A1.61606,1.61606,0,0,1,41.77734,8.65059Z" transform="translate(-10.30167)"/><path d="M43.23535,11.31075c.01758-.40528.02735-1.33252.02735-1.89063V8.99141c0-.49511-.00879-.769-.02735-1.1289l-.71094-.08106V7.46407l1.25586-.54346.13672.09033.10645,1.04151V9.42012c0,.55811.00879,1.48535.02636,1.89063ZM44.668,10.99v.3208H42.58008V10.99l.98144-.18018h.209ZM46.72266,8.5793v.84082c0,.57618.00879,1.48535.02734,1.89063h-.81348c.01758-.40528.02637-1.31445.02637-1.89063V8.65743c0-.8252-.21094-1.09326-.74219-1.09326a1.88674,1.88674,0,0,0-1.28418.62353h-.19726v-.415h.46582l-.38086.16748a2.3649,2.3649,0,0,1,1.74609-1.01953C46.34961,6.92061,46.72266,7.39962,46.72266,8.5793Zm-.252,2.23047.89649.18018v.3208h-2.085V10.99l.97949-.18018Zm2.9502-2.32129v.93164c0,.57618.00879,1.48535.02734,1.89063h-.81347c.01757-.40528.02734-1.31445.02734-1.89063V8.64034c0-.83643-.22949-1.07617-.751-1.07617a1.85052,1.85052,0,0,0-1.27636.62353h-.22168v-.331h.49414l-.41114.08349a2.19366,2.19366,0,0,1,1.77246-1.01953C48.999,6.92061,49.4209,7.37471,49.4209,8.48848Zm-.251,2.32129.89746.18018v.3208h-2.085V10.99l.97656-.18018Z" transform="translate(-10.30167)"/><path d="M52.22559,8.94356a10.15329,10.15329,0,0,1,1.39746-.37793v.32666a8.15356,8.15356,0,0,0-1.20508.36035c-.78711.30664-.88672.647-.88672.917a.628.628,0,0,0,.71777.666c.30762,0,.48536-.11475,1.03614-.5083l.19043-.14307.124.18555-.26758.27c-.53418.53564-.83887.78906-1.39355.78906a1.09778,1.09778,0,0,1-1.20508-1.127C50.7334,9.79024,51.00879,9.38253,52.22559,8.94356Zm1.01464,1.544v-2.064c0-.87744-.24609-1.09473-.83984-1.09473a2.14442,2.14442,0,0,0-.81152.16016l.375-.2832-.22461.76611c-.07813.28027-.22168.42969-.47071.42969a.37921.37921,0,0,1-.417-.36524A1.6363,1.6363,0,0,1,52.6084,6.92061c.94043,0,1.39062.42676,1.39062,1.56494v1.915c0,.39209.123.53272.32618.53272a.4393.4393,0,0,0,.34668-.19776l.18261.1958a.84925.84925,0,0,1-.7832.47168A.82429.82429,0,0,1,53.24023,10.48751Z" transform="translate(-10.30167)"/><path d="M56.99805,10.9626a1.01819,1.01819,0,0,0,.60547-.249l.208.24121a1.28755,1.28755,0,0,1-1.06054.47412.92186.92186,0,0,1-1.02442-1.03076c0-.22168.00879-.41357.00879-.76465V7.51534h-.74609V7.11983l1.11328-.144-.36914.30078.28711-1.46436h.54492l-.06934,1.57813V10.299C56.49609,10.76485,56.69434,10.9626,56.99805,10.9626Zm.72363-3.92382v.47656H56.11621V7.03878Z" transform="translate(-10.30167)"/><path d="M58.81738,11.31075c.01856-.40528.02735-1.33252.02735-1.89063V8.99678c0-.49511-.00879-.77441-.02735-1.13427l-.72754-.08106V7.46407l1.38965-.54346.13574.09033-.02734,1.22071V9.42012c0,.55811.00977,1.48535.02734,1.89063Zm1.417-.3208v.3208H58.14551V10.99l.98144-.18018h.209ZM58.60352,5.34737a.60419.60419,0,1,1,.60351.57568A.57005.57005,0,0,1,58.60352,5.34737Z" transform="translate(-10.30167)"/><path d="M61.68457,9.09786c0,1.1289.59766,1.74707,1.43848,1.74707a1.44273,1.44273,0,0,0,1.24609-.69043l.22168.11767A1.62752,1.62752,0,0,1,62.915,11.42891,1.99318,1.99318,0,0,1,60.89355,9.1838a2.11579,2.11579,0,0,1,2.083-2.26319,1.53887,1.53887,0,0,1,1.58985,1.16992.383.383,0,0,1-.416.34082.4758.4758,0,0,1-.48926-.43066L63.44336,7.217l.42871.335a1.87089,1.87089,0,0,0-.86133-.22315C62.24316,7.32881,61.68457,7.9421,61.68457,9.09786Z" transform="translate(-10.30167)"/><path d="M66.80469,8.94356a10.15329,10.15329,0,0,1,1.39746-.37793v.32666a8.15356,8.15356,0,0,0-1.20508.36035c-.78711.30664-.88672.647-.88672.917a.628.628,0,0,0,.71777.666c.30762,0,.48536-.11475,1.03614-.5083l.19043-.14307.124.18555-.26758.27c-.53418.53564-.83886.78906-1.39355.78906a1.09778,1.09778,0,0,1-1.20508-1.127C65.3125,9.79024,65.58789,9.38253,66.80469,8.94356Zm1.01465,1.544v-2.064c0-.87744-.2461-1.09473-.83985-1.09473A2.14445,2.14445,0,0,0,66.168,7.489l.375-.2832-.22461.76611c-.07813.28027-.22168.42969-.4707.42969a.37922.37922,0,0,1-.417-.36524A1.63631,1.63631,0,0,1,67.1875,6.92061c.94043,0,1.39062.42676,1.39062,1.56494v1.915c0,.39209.12305.53272.32618.53272a.4393.4393,0,0,0,.34668-.19776l.18261.1958a.84925.84925,0,0,1-.7832.47168A.82428.82428,0,0,1,67.81934,10.48751Z" transform="translate(-10.30167)"/><path d="M71.11719,4.656l.127.07276L71.208,6.00606V9.42012q0,.94555.02734,1.89063h-.81543q.02784-.94556.02735-1.89063V5.46993l-.73633-.09033V5.06075Zm.82422,6.334v.3208H69.71289V10.99l1.00879-.18018h.208Z" transform="translate(-10.30167)"/><path d="M74.61426,10.94356l.95117-.13476H75.75l.88281.13476v.36719H74.61426Zm.00488-5.65771H75.8125l.001.50195h-.11036l-1.084-.13525Zm.80859,0h.38672l.08008,2.70752v3.31738h-.4668Zm.01172,0h.84278l2.17285,5.34326h-.30567l2.05664-5.34326h.4834l-2.334,6.0249h-.45508Zm4.08887,5.65771,1.084-.13476h.19336l1.17872.13476v.36719H79.52832Zm.77734-2.41309.002-3.24462H81.165c-.02637.90966-.02637,1.84619-.02637,2.79052v.44336c0,.92823,0,1.86426.02637,2.791h-.88672C80.30566,10.40059,80.30469,9.46456,80.30566,8.53047Zm.40723-3.24462h1.26953v.3667l-1.17676.13525h-.09277Z" transform="translate(-10.30167)"/><path d="M82.60938,9.19063a2.07509,2.07509,0,1,1,4.13183,0,2.07255,2.07255,0,1,1-4.13183,0Zm3.28124.001c0-1.21045-.44824-1.86231-1.21582-1.86231-.78418,0-1.21484.65186-1.21484,1.86231,0,1.21094.43066,1.82861,1.21484,1.82861C85.44238,11.02022,85.89062,10.40255,85.89062,9.19161Z" transform="translate(-10.30167)"/><path d="M89.60938,10.91768c.458,0,.77246-.20508,1.17871-.73144l.083.23779a1.61476,1.61476,0,0,1-1.48632,1.00488c-1.09375,0-1.834-.90332-1.834-2.21826a2.03969,2.03969,0,0,1,1.9209-2.29,1.63422,1.63422,0,0,1,1.43164.92725l-.09082.231a1.73437,1.73437,0,0,0-1.21-.64794c-.668,0-1.24316.53808-1.24316,1.7622C88.35938,10.37862,88.89062,10.91768,89.60938,10.91768Zm2.499.07227v.3208l-1.39942.09082L90.61816,10.49V7.83223l.02832-.11621V5.46993l-.7666-.09033V5.06075L91.28711,4.656l.12793.07276-.03613,1.27734v5.30469l-.1709-.47022Z" transform="translate(-10.30167)"/><path d="M96.39746,8.65059a1.82033,1.82033,0,0,1-.0625.50293h-3.333V8.76973h2.11719c.43164,0,.53125-.20459.53125-.46484a.98145.98145,0,0,0-.97656-.97608c-.56543,0-1.21289.48194-1.21289,1.77,0,1.14063.57422,1.7461,1.46191,1.7461a1.55153,1.55153,0,0,0,1.251-.63037l.21289.16943a1.83725,1.83725,0,0,1-1.72949,1.04492,1.96958,1.96958,0,0,1-2.00391-2.21142A2.13494,2.13494,0,0,1,94.7207,6.92061,1.61606,1.61606,0,0,1,96.39746,8.65059Z" transform="translate(-10.30167)"/><path d="M98.37793,4.656l.12695.07276-.03613,1.27734V9.42012q0,.94555.02734,1.89063h-.81543q.02784-.94556.02735-1.89063V5.46993l-.73633-.09033V5.06075Zm.82422,6.334v.3208H96.97363V10.99l1.00879-.18018h.208Z" transform="translate(-10.30167)"/><path d="M100.41406,11.31075c.01856-.40528.02735-1.33252.02735-1.89063V8.99678c0-.49511-.00879-.77441-.02735-1.13427l-.72754-.08106V7.46407l1.38965-.54346.13574.09033-.02734,1.22071V9.42012c0,.55811.00977,1.48535.02734,1.89063Zm1.417-.3208v.3208H99.74219V10.99l.98144-.18018h.209ZM100.2002,5.34737a.60419.60419,0,1,1,.60351.57568A.57005.57005,0,0,1,100.2002,5.34737Z" transform="translate(-10.30167)"/><path d="M103.12891,11.31075c.01757-.40528.02734-1.33252.02734-1.89063V8.99141c0-.49511-.00977-.769-.02734-1.1289l-.71094-.08106V7.46407l1.25586-.54346.13672.09033.10644,1.04151V9.42012c0,.55811.00879,1.48535.02637,1.89063Zm1.43261-.3208v.3208h-2.08789V10.99l.98145-.18018h.209Zm2.09082-2.41065v.84082c0,.57618.00879,1.48535.02637,1.89063h-.81445c.01758-.40528.02734-1.31445.02734-1.89063V8.653c0-.82226-.21191-1.08886-.74219-1.08886a1.95265,1.95265,0,0,0-1.31933.62353h-.19629v-.415h.46777l-.38476.16748A2.41341,2.41341,0,0,1,105.5,6.92061C106.27441,6.92061,106.65234,7.39962,106.65234,8.5793Zm-.25293,2.23047.89844.18018v.3208H105.21V10.99l.98047-.18018Z" transform="translate(-10.30167)"/><path d="M111.30078,12.13839c0-.39649-.24707-.69971-.89551-.69971h-1.05566a3.10881,3.10881,0,0,1-.47852-.03369v-.02881c-.46-.10156-.6914-.33838-.6914-.71436,0-.32422.21484-.66992.82324-1.19629l.20117.13575a1.049,1.049,0,0,0-.37695.74462c0,.24122.10156.40137.52246.40137h1.18066c.98633,0,1.44629.4292,1.44629,1.16162,0,.78223-.748,1.55567-2.22168,1.55567-1.30761,0-1.86718-.45313-1.86718-1.09571,0-.44091.28125-.77539,1.17773-1.1538l.0498.05566a1.27824,1.27824,0,0,0-.49023.957c0,.59082.4541.82471,1.16309.82471C110.77344,13.05245,111.30078,12.64473,111.30078,12.13839Zm-1.57129-5.21778a1.43118,1.43118,0,0,1,1.61817,1.4751,1.45992,1.45992,0,0,1-1.627,1.47412,1.43418,1.43418,0,0,1-1.62695-1.47412A1.463,1.463,0,0,1,109.72949,6.92061Zm-.90039,1.48291c0,.65625.31543,1.10254.86621,1.10254.5752,0,.918-.47217.918-1.13672,0-.63916-.31738-1.085-.875-1.085C109.17188,7.28438,108.8291,7.74776,108.8291,8.40352Zm3.05957-1.48388.13574.08984V7.5754h-1.32226V7.3293Z" transform="translate(-10.30167)"/><path d="M20.2627,38.39522c0-.57861-.34473-.8374-1.11426-1.13965l-.34375-.1372c-.92676-.36719-1.55567-.89014-1.55567-1.813,0-1.0376.873-1.66944,2.0293-1.66944a2.42537,2.42537,0,0,1,1.48047.47608L20.7041,35.2878h-.55664l-.25-1.35938.584.29444v.45019a1.65045,1.65045,0,0,0-1.25293-.582c-.69141,0-1.21582.34961-1.21582,1.01416,0,.562.36425.89063,1.01464,1.14209l.3545.13819c1.18652.4624,1.64648.98291,1.64648,1.833,0,1.0625-.88672,1.71631-2.1377,1.71631a3.48112,3.48112,0,0,1-1.75878-.47656l.05468-1.26465h.55664l.23438,1.39014-.5918-.25v-.43213a2.22328,2.22328,0,0,0,1.47949.57861C19.708,39.48018,20.2627,39.08516,20.2627,38.39522Z" transform="translate(-10.30167)"/><path d="M23.38379,39.44991a1.01825,1.01825,0,0,0,.60547-.249l.208.24121a1.28758,1.28758,0,0,1-1.06055.47412.92186.92186,0,0,1-1.02442-1.03076c0-.22168.00879-.41358.00879-.76465V36.00264H21.375v-.3955l1.11328-.144-.36914.30078.28711-1.46435h.54492l-.06933,1.57812v2.90869C22.88184,39.25215,23.08008,39.44991,23.38379,39.44991Zm.72363-3.92383v.47656H22.502v-.47656Z" transform="translate(-10.30167)"/><path d="M26.11621,37.43087a10.15329,10.15329,0,0,1,1.39746-.37793v.32666a8.15235,8.15235,0,0,0-1.20508.36035c-.78711.30664-.88671.647-.88671.917a.628.628,0,0,0,.71777.666c.30762,0,.48535-.11475,1.03613-.50831l.19043-.14306.124.18555-.26757.27c-.53418.53565-.83887.78907-1.39356.78907a1.09779,1.09779,0,0,1-1.20508-1.127C24.624,38.27755,24.89941,37.86983,26.11621,37.43087Zm1.01465,1.54394v-2.064c0-.87745-.24609-1.09473-.83984-1.09473a2.14427,2.14427,0,0,0-.81153.16016l.375-.28321-.22461.76612c-.07812.28027-.22168.42968-.4707.42968a.37921.37921,0,0,1-.417-.36523A1.63628,1.63628,0,0,1,26.499,35.40792c.94043,0,1.39063.42675,1.39063,1.56494v1.915c0,.39209.123.53271.32617.53271a.43931.43931,0,0,0,.34668-.19775l.18262.1958a.84927.84927,0,0,1-.78321.47168A.82428.82428,0,0,1,27.13086,38.97481Z" transform="translate(-10.30167)"/><path d="M30.88965,39.44991a1.01825,1.01825,0,0,0,.60547-.249l.208.24121a1.28755,1.28755,0,0,1-1.06054.47412.92186.92186,0,0,1-1.02442-1.03076c0-.22168.00879-.41358.00879-.76465V36.00264h-.74609v-.3955l1.11328-.144-.36914.30078.28711-1.46435H30.457l-.06933,1.57812v2.90869C30.3877,39.25215,30.58594,39.44991,30.88965,39.44991Zm.72363-3.92383v.47656H30.00781v-.47656Z" transform="translate(-10.30167)"/><path d="M32.708,39.79805c.01855-.40527.02734-1.33252.02734-1.89062v-.42334c0-.49512-.00879-.77442-.02734-1.13428l-.72754-.081v-.31739l1.38965-.54345.13574.09033-.02734,1.2207v1.18848c0,.5581.00976,1.48535.02734,1.89062Zm1.417-.3208v.3208H32.03613v-.3208l.98145-.18017h.209Zm-1.63086-5.64258a.60419.60419,0,1,1,.60352.57569A.57006.57006,0,0,1,32.49414,33.83467Z" transform="translate(-10.30167)"/><path d="M34.8623,39.57l-.03222-.98829h.49121l.24023,1.07032-.44433-.20508v-.31006a1.72558,1.72558,0,0,0,1.1084.36914c.68261,0,1.00488-.27295,1.00488-.68408,0-.38135-.26465-.57861-.833-.78369l-.418-.15235c-.65918-.24072-1.08984-.59814-1.08984-1.21435,0-.6582.55664-1.26367,1.56738-1.26367a2.33314,2.33314,0,0,1,1.26172.36865l-.03711.91357h-.46582l-.18457-.92041.334.14795v.23975a1.4695,1.4695,0,0,0-.918-.33936c-.54981,0-.83692.23926-.83692.61475,0,.396.21973.55029.833.773l.2793.10058c.89746.32862,1.24023.7544,1.24023,1.31885,0,.68262-.5957,1.291-1.75488,1.291A2.75851,2.75851,0,0,1,34.8623,39.57Z" transform="translate(-10.30167)"/><path d="M40.40234,39.44991a1.01823,1.01823,0,0,0,.60547-.249l.208.24121a1.28755,1.28755,0,0,1-1.06055.47412.92186.92186,0,0,1-1.02441-1.03076c0-.22168.00879-.41358.00879-.76465V36.00264h-.7461v-.3955l1.11329-.144-.36914.30078.2871-1.46435h.54493l-.06934,1.57812v2.90869C39.90039,39.25215,40.09863,39.44991,40.40234,39.44991Zm.72364-3.92383v.47656H39.52051v-.47656Z" transform="translate(-10.30167)"/><path d="M42.2207,39.79805c.01856-.40527.02735-1.33252.02735-1.89062v-.42334c0-.49512-.00879-.77442-.02735-1.13428l-.72754-.081v-.31739l1.38965-.54345.13574.09033-.02734,1.2207v1.18848c0,.5581.00977,1.48535.02734,1.89062Zm1.417-.3208v.3208H41.54883v-.3208l.98144-.18017h.209Zm-1.63086-5.64258a.60419.60419,0,1,1,.60351.57569A.57005.57005,0,0,1,42.00684,33.83467Z" transform="translate(-10.30167)"/><path d="M45.08887,37.58516c0,1.12891.59765,1.74707,1.43847,1.74707a1.44272,1.44272,0,0,0,1.2461-.69043l.22168.11768a1.62754,1.62754,0,0,1-1.67578,1.15674,1.99318,1.99318,0,0,1-2.02149-2.24512,2.11579,2.11579,0,0,1,2.083-2.26318,1.53884,1.53884,0,0,1,1.58984,1.16992.383.383,0,0,1-.416.34082.4758.4758,0,0,1-.48926-.43067l-.21777-.78369.42871.335a1.871,1.871,0,0,0-.86133-.22314C45.64746,35.81612,45.08887,36.4294,45.08887,37.58516Z" transform="translate(-10.30167)"/><path d="M50.209,37.43087a10.15383,10.15383,0,0,1,1.39747-.37793v.32666a8.15235,8.15235,0,0,0-1.20508.36035c-.78711.30664-.88672.647-.88672.917a.628.628,0,0,0,.71777.666c.30762,0,.48535-.11475,1.03613-.50831l.19043-.14306.124.18555-.26758.27c-.53418.53565-.83887.78907-1.39355.78907a1.09779,1.09779,0,0,1-1.20508-1.127C48.7168,38.27755,48.99219,37.86983,50.209,37.43087Zm1.01465,1.54394v-2.064c0-.87745-.24609-1.09473-.83984-1.09473a2.14422,2.14422,0,0,0-.81152.16016l.375-.28321-.22461.76612c-.07813.28027-.22168.42968-.47071.42968a.37921.37921,0,0,1-.417-.36523,1.63629,1.63629,0,0,1,1.75684-1.11572c.94043,0,1.39062.42675,1.39062,1.56494v1.915c0,.39209.123.53271.32617.53271a.4393.4393,0,0,0,.34668-.19775l.18262.1958a.84927.84927,0,0,1-.7832.47168A.82429.82429,0,0,1,51.22363,38.97481Z" transform="translate(-10.30167)"/><path d="M54.52148,33.14327l.127.07275-.03614,1.27735v3.41406q0,.94555.02735,1.89062h-.81543q.02783-.94556.02734-1.89062v-3.9502l-.73633-.09033v-.31885Zm.82422,6.334v.3208H53.11719v-.3208l1.00879-.18017h.208Z" transform="translate(-10.30167)"/><path d="M57.7168,39.43087l.90136-.13477h.17969l.98242.13477v.36718H57.7168Zm2.67578-5.70118h.5625l2.06836,6.06836h-.87793l-1.794-5.36084.21485-.02588-1.83008,5.38672h-.42969Zm-1.04883,3.69092h2.43066l.14747.42041H59.19922Zm1.75879,2.01123,1.12793-.13476h.2041l1.11816.13476v.36621H61.10254Z" transform="translate(-10.30167)"/><path d="M64.66406,39.79805c.01758-.40527.02735-1.33252.02735-1.89062v-.42871c0-.49512-.00977-.769-.02735-1.12891l-.71094-.081v-.31739l1.25586-.54345.13672.09033.10645,1.0415v1.36768c0,.5581.00879,1.48535.02637,1.89062Zm1.43262-.3208v.3208H64.00879v-.3208l.98144-.18017h.209Zm2.09082-2.41064v.84082c0,.57617.00879,1.48535.02637,1.89062h-.81446c.01758-.40527.02735-1.31445.02735-1.89062v-.76709c0-.82227-.21192-1.08887-.74219-1.08887a1.95266,1.95266,0,0,0-1.31934.62354H65.169V36.26h.46777l-.38477.16748a2.41342,2.41342,0,0,1,1.78321-1.01953C67.80957,35.40792,68.1875,35.88692,68.1875,37.06661Zm-.25293,2.23047.89844.18017v.3208H66.74512v-.3208l.98047-.18017Z" transform="translate(-10.30167)"/><path d="M70.99805,37.43087a10.15329,10.15329,0,0,1,1.39746-.37793v.32666a8.15235,8.15235,0,0,0-1.20508.36035c-.78711.30664-.88672.647-.88672.917a.628.628,0,0,0,.71777.666c.30762,0,.48536-.11475,1.03614-.50831l.19043-.14306.124.18555-.26758.27c-.53418.53565-.83887.78907-1.39355.78907a1.09779,1.09779,0,0,1-1.20508-1.127C69.50586,38.27755,69.78125,37.86983,70.99805,37.43087Zm1.01465,1.54394v-2.064c0-.87745-.2461-1.09473-.83985-1.09473a2.14426,2.14426,0,0,0-.81152.16016l.375-.28321-.22461.76612c-.07813.28027-.22168.42968-.4707.42968a.37922.37922,0,0,1-.417-.36523,1.6363,1.6363,0,0,1,1.75684-1.11572c.94043,0,1.39062.42675,1.39062,1.56494v1.915c0,.39209.12305.53271.32618.53271a.43931.43931,0,0,0,.34668-.19775l.18261.1958a.84927.84927,0,0,1-.7832.47168A.82428.82428,0,0,1,72.0127,38.97481Z" transform="translate(-10.30167)"/><path d="M75.31055,33.14327l.12695.07275-.03613,1.27735v3.41406q0,.94555.02734,1.89062h-.81543q.02784-.94556.02734-1.89062v-3.9502l-.73632-.09033v-.31885Zm.82422,6.334v.3208H73.90625v-.3208l1.00879-.18017h.208Z" transform="translate(-10.30167)"/><path d="M76.27246,41.44307a.57837.57837,0,0,1,.60352-.38965.87513.87513,0,0,1,.66308.33789l.2793.28663-.35059.19531-.24414-.19531a2.61656,2.61656,0,0,0,1.17774-1.5376l.29-.81592,1.375-3.79834h.49121l-1.61426,4.24219c-.60254,1.59375-1.10156,2.27392-1.84473,2.27392C76.65527,42.04219,76.27441,41.7961,76.27246,41.44307Zm.91113-5.46191-.8789-.13574v-.31934h2.167v.32764l-1.06445.12744Zm1.35059,4.29053-1.89356-4.74561h.87793l1.40137,3.80664Zm1.53027-4.291-.94238-.13525v-.31934h1.76074v.31934l-.63867.13525Z" transform="translate(-10.30167)"/><path d="M81.24805,39.57l-.03223-.98829H81.707l.24024,1.07032-.44434-.20508v-.31006a1.72562,1.72562,0,0,0,1.1084.36914c.68262,0,1.00488-.27295,1.00488-.68408,0-.38135-.26465-.57861-.833-.78369l-.418-.15235c-.65918-.24072-1.08984-.59814-1.08984-1.21435,0-.6582.55664-1.26367,1.56738-1.26367a2.33314,2.33314,0,0,1,1.26172.36865l-.03711.91357h-.46582l-.18457-.92041.334.14795v.23975a1.46955,1.46955,0,0,0-.918-.33936c-.54981,0-.83692.23926-.83692.61475,0,.396.21973.55029.833.773l.2793.10058c.89746.32862,1.24023.7544,1.24023,1.31885,0,.68262-.5957,1.291-1.75488,1.291A2.75848,2.75848,0,0,1,81.24805,39.57Z" transform="translate(-10.30167)"/><path d="M85.68066,39.79805c.01856-.40527.02735-1.33252.02735-1.89062v-.42334c0-.49512-.00879-.77442-.02735-1.13428l-.72754-.081v-.31739l1.38965-.54345.13575.09033-.02735,1.2207v1.18848c0,.5581.00977,1.48535.02735,1.89062Zm1.417-.3208v.3208H85.00879v-.3208l.98144-.18017h.209ZM85.4668,33.83467a.60419.60419,0,1,1,.60351.57569A.57005.57005,0,0,1,85.4668,33.83467Z" transform="translate(-10.30167)"/><path d="M87.83594,39.57l-.03223-.98829h.49121l.24024,1.07032-.44434-.20508v-.31006a1.72562,1.72562,0,0,0,1.1084.36914c.68262,0,1.00488-.27295,1.00488-.68408,0-.38135-.26465-.57861-.833-.78369l-.418-.15235c-.65917-.24072-1.08984-.59814-1.08984-1.21435,0-.6582.55664-1.26367,1.56738-1.26367a2.33314,2.33314,0,0,1,1.26172.36865l-.03711.91357h-.46582l-.18457-.92041.334.14795v.23975a1.46955,1.46955,0,0,0-.918-.33936c-.54981,0-.83692.23926-.83692.61475,0,.396.21973.55029.833.773l.2793.10058c.89746.32862,1.24023.7544,1.24023,1.31885,0,.68262-.5957,1.291-1.75488,1.291A2.75848,2.75848,0,0,1,87.83594,39.57Z" transform="translate(-10.30167)"/><path d="M17.12988,124.70528l.94532-.13477h.18457l1.043.13477v.36719H17.12988Zm.56153-5.37647.55566.21827-1.07422-.13233v-.36719H18.5625l3.707,5.1001v.98535H21.9541Zm.20312-.28125.458.36719v5.65772h-.458Zm2.9668,0h2.17285v.3667l-.90039.13526h-.18457l-1.08789-.13526Zm.95019,0h.458V125.133l-.458-.45752Z" transform="translate(-10.30167)"/><path d="M25.18066,122.70528a10.15407,10.15407,0,0,1,1.39746-.37793v.32666a8.15256,8.15256,0,0,0-1.20507.36035c-.78711.30664-.88672.647-.88672.917a.628.628,0,0,0,.71777.666c.30762,0,.48535-.11475,1.03613-.5083l.19043-.14307.124.18555-.26758.27c-.53418.53564-.83887.78906-1.39356.78906a1.09778,1.09778,0,0,1-1.20507-1.12695C23.68848,123.552,23.96387,123.14424,25.18066,122.70528Zm1.01465,1.54394v-2.064c0-.87744-.24609-1.09473-.83984-1.09473a2.14442,2.14442,0,0,0-.81152.16016l.375-.2832-.22461.76611c-.07813.28027-.22168.42969-.47071.42969a.37921.37921,0,0,1-.417-.36524,1.63628,1.63628,0,0,1,1.75684-1.11572c.94043,0,1.39062.42676,1.39062,1.56494v1.915c0,.39209.123.53272.32617.53272a.43931.43931,0,0,0,.34668-.19776l.18262.1958a.84925.84925,0,0,1-.7832.47168A.82429.82429,0,0,1,26.19531,124.24922Z" transform="translate(-10.30167)"/><path d="M28.83594,125.07247c.01758-.40528.02734-1.33252.02734-1.89063v-.42871c0-.49512-.00976-.769-.02734-1.12891l-.71094-.081v-.31738l1.25586-.54346.13672.09033.10644,1.04151v1.36767c0,.55811.00879,1.48535.02637,1.89063Zm1.43261-.3208v.3208H28.18066v-.3208l.98145-.18018h.209Zm2.09083-2.41065v.84082c0,.57617.00878,1.48535.02636,1.89063h-.81445c.01758-.40528.02734-1.31446.02734-1.89063v-.76709c0-.82226-.21191-1.08886-.74218-1.08886a1.95267,1.95267,0,0,0-1.31934.62353h-.19629v-.415h.46777l-.38476.16748a2.41343,2.41343,0,0,1,1.7832-1.01953C31.98145,120.68233,32.35938,121.16133,32.35938,122.341Zm-.25293,2.23047.89843.18018v.3208H30.917v-.3208l.98047-.18018Z" transform="translate(-10.30167)"/><path d="M33.67676,122.95235a2.07509,2.07509,0,1,1,4.13183,0,2.07255,2.07255,0,1,1-4.13183,0Zm3.28125.001c0-1.21045-.44824-1.86231-1.21582-1.86231-.78418,0-1.21485.65186-1.21485,1.86231,0,1.21093.43067,1.82861,1.21485,1.82861C36.50977,124.78194,36.958,124.16426,36.958,122.95333Z" transform="translate(-10.30167)"/><path d="M40.21387,124.72432a1.01819,1.01819,0,0,0,.60547-.249l.208.24121a1.28755,1.28755,0,0,1-1.06054.47412.92186.92186,0,0,1-1.02442-1.03076c0-.22168.00879-.41357.00879-.76465v-2.11816h-.74609v-.39551l1.11328-.144-.36914.30078.28711-1.46436h.54492l-.06934,1.57813v2.90869C39.71191,124.52657,39.91016,124.72432,40.21387,124.72432Zm.72363-3.92383v.47657H39.332v-.47657Z" transform="translate(-10.30167)"/><path d="M45.19727,122.41231a1.82033,1.82033,0,0,1-.0625.50293h-3.333v-.38379H43.918c.43262,0,.53223-.20459.53223-.46484a.98145.98145,0,0,0-.97657-.97608c-.56543,0-1.21289.48194-1.21289,1.77,0,1.14063.57422,1.7461,1.46192,1.7461a1.55154,1.55154,0,0,0,1.251-.63037l.21289.16943a1.83723,1.83723,0,0,1-1.72949,1.04492,1.96958,1.96958,0,0,1-2.00391-2.21142,2.13494,2.13494,0,0,1,2.06739-2.29688A1.61606,1.61606,0,0,1,45.19727,122.41231Z" transform="translate(-10.30167)"/><path d="M46.80762,122.85958c0,1.1289.59765,1.74707,1.43847,1.74707a1.44274,1.44274,0,0,0,1.2461-.69043l.22168.11767a1.62752,1.62752,0,0,1-1.67578,1.15674,1.99318,1.99318,0,0,1-2.02149-2.24512,2.11579,2.11579,0,0,1,2.083-2.26318,1.53885,1.53885,0,0,1,1.58984,1.16992.383.383,0,0,1-.416.34082.47579.47579,0,0,1-.48926-.43066l-.21777-.78369.42871.335a1.87089,1.87089,0,0,0-.86133-.22315C47.36621,121.09053,46.80762,121.70381,46.80762,122.85958Z" transform="translate(-10.30167)"/><path d="M50.89062,119.23165l-.73632-.09034v-.31884l1.3789-.40479.127.07276-.03614,1.27734v1.90137l.02735.11718v1.39551c0,.55811.00879,1.48535.02734,1.89063h-.81543c.01856-.40528.02734-1.33252.02734-1.89063Zm1.39649,5.52v.3208H50.19922v-.3208l.98144-.18018h.209ZM54.4209,122.341v.84082c0,.57617.00879,1.48535.02734,1.89063h-.81543c.01856-.40528.02735-1.31446.02735-1.89063v-.76709c0-.82275-.21-1.08886-.74024-1.08886a1.87955,1.87955,0,0,0-1.31933.62744H51.4043v-.41895h.46582l-.40137.16748a2.44089,2.44089,0,0,1,1.79883-1.01953C54.043,120.68233,54.4209,121.16133,54.4209,122.341Zm-.25293,2.23047.89941.18018v.3208H52.97949v-.3208l.98047-.18018Z" transform="translate(-10.30167)"/><path d="M56.35742,125.07247c.01758-.40528.02735-1.33252.02735-1.89063v-.42871c0-.49512-.00977-.769-.02735-1.12891l-.71094-.081v-.31738l1.25586-.54346.13672.09033.10645,1.04151v1.36767c0,.55811.00879,1.48535.02637,1.89063Zm1.43262-.3208v.3208H55.70215v-.3208l.98144-.18018h.209Zm2.09082-2.41065v.84082c0,.57617.00879,1.48535.02637,1.89063h-.81446c.01758-.40528.02735-1.31446.02735-1.89063v-.76709c0-.82226-.21192-1.08886-.74219-1.08886a1.95269,1.95269,0,0,0-1.31934.62353H56.8623v-.415h.46778l-.38477.16748a2.41345,2.41345,0,0,1,1.78321-1.01953C59.50293,120.68233,59.88086,121.16133,59.88086,122.341Zm-.25293,2.23047.89844.18018v.3208H58.43848v-.3208l.98047-.18018Z" transform="translate(-10.30167)"/><path d="M61.19922,122.95235a2.07509,2.07509,0,1,1,4.13183,0,2.07255,2.07255,0,1,1-4.13183,0Zm3.28125.001c0-1.21045-.44824-1.86231-1.21582-1.86231-.78418,0-1.21485.65186-1.21485,1.86231,0,1.21093.43067,1.82861,1.21485,1.82861C64.03223,124.78194,64.48047,124.16426,64.48047,122.95333Z" transform="translate(-10.30167)"/><path d="M67.27441,118.41768l.127.07276-.03614,1.27734v3.41406q0,.94555.02735,1.89063h-.81543q.02782-.94555.02734-1.89063v-3.95019l-.73633-.09034v-.31884Zm.82422,6.334v.3208H65.87012v-.3208l1.00879-.18018h.208Z" transform="translate(-10.30167)"/><path d="M68.73145,122.95235a2.07509,2.07509,0,1,1,4.13183,0,2.07255,2.07255,0,1,1-4.13183,0Zm3.28125.001c0-1.21045-.44825-1.86231-1.21582-1.86231-.78418,0-1.21485.65186-1.21485,1.86231,0,1.21093.43067,1.82861,1.21485,1.82861C71.56445,124.78194,72.0127,124.16426,72.0127,122.95333Z" transform="translate(-10.30167)"/><path d="M77.00293,125.9001c0-.39648-.24707-.6997-.89551-.6997H75.05176a3.11006,3.11006,0,0,1-.47852-.03369v-.02881c-.46-.10157-.6914-.33838-.6914-.71436,0-.32422.21484-.66992.82324-1.19629l.20117.13574a1.049,1.049,0,0,0-.37695.74463c0,.24121.10156.40137.52246.40137h1.18066c.98633,0,1.44629.4292,1.44629,1.16162,0,.78223-.748,1.55567-2.22168,1.55567-1.30762,0-1.86719-.45313-1.86719-1.09571,0-.44092.28125-.77539,1.17774-1.15381l.0498.05567a1.27824,1.27824,0,0,0-.49023.957c0,.59082.4541.82471,1.16308.82471C76.47559,126.81417,77.00293,126.40645,77.00293,125.9001Zm-1.57129-5.21777a1.43117,1.43117,0,0,1,1.61816,1.4751,1.45991,1.45991,0,0,1-1.627,1.47412,1.43418,1.43418,0,0,1-1.62695-1.47412A1.463,1.463,0,0,1,75.43164,120.68233Zm-.90039,1.48291c0,.65625.31543,1.10254.86621,1.10254.5752,0,.918-.47217.918-1.13672,0-.63916-.31738-1.085-.875-1.085C74.874,121.0461,74.53125,121.50948,74.53125,122.16524Zm3.05957-1.48389.13574.08985v.56592H76.4043v-.2461Z" transform="translate(-10.30167)"/><path d="M78.01953,126.71749a.57836.57836,0,0,1,.60352-.38965.87513.87513,0,0,1,.66308.33789l.2793.28662-.35059.19531-.24414-.19531a2.6165,2.6165,0,0,0,1.17774-1.5376l.29-.81592,1.374-3.79834h.49219l-1.61426,4.24219c-.60254,1.59375-1.10156,2.27393-1.84473,2.27393C78.40234,127.31661,78.02148,127.07051,78.01953,126.71749Zm.91113-5.46192-.8789-.13574v-.31934h2.167v.32764l-1.06445.12744Zm1.35059,4.29053-1.89355-4.74561h.87792l1.40137,3.80665Zm1.53027-4.291-.94238-.13525v-.31934h1.76074v.31934l-.63867.13525Z" transform="translate(-10.30167)"/><path d="M17.8125,148.13741l-1.17676-.13526v-.36669h2.45215v.36669l-1.08887.13526Zm3.085-.50195h.32324l1.61328,5.02929-.24218.05469,1.40722-5.084h.457l-1.6455,6.08544H22.4209L20.71,148.61153l.293-.0166-1.61231,5.126h-.38085l-1.75684-6.08544h.87988l1.35059,5.02929-.26953.05469Zm.0918.50195-1.14942-.13526v-.36669h2.44629v.36669l-1.09961.13526Zm2.98633,0-.93946-.13526v-.36669h2.04395v.36669l-.9209.13526Z" transform="translate(-10.30167)"/><path d="M28.67383,151.0002a1.82033,1.82033,0,0,1-.0625.50293h-3.333v-.38379h2.11621c.43262,0,.53223-.20459.53223-.46484a.98145.98145,0,0,0-.97656-.97608c-.56543,0-1.2129.48194-1.2129,1.77,0,1.14063.57422,1.7461,1.46192,1.7461a1.55156,1.55156,0,0,0,1.251-.63037l.21289.16943a1.83725,1.83725,0,0,1-1.7295,1.04492,1.96958,1.96958,0,0,1-2.0039-2.21142,2.13494,2.13494,0,0,1,2.06738-2.29688A1.61606,1.61606,0,0,1,28.67383,151.0002Z" transform="translate(-10.30167)"/><path d="M29.294,153.33956l.96484-.17969-.30176.501c.01856-.40528.02735-1.33252.02735-1.89063v-3.95215l-.73633-.08886v-.31885l1.3789-.40479.127.07276-.03614,1.27734v1.7085l.02735.1167v2.77148l-.09766.80029-1.35351-.09179Zm3.71093-1.78223c0-1.15576-.4707-1.77588-1.14648-1.77588a2.09754,2.09754,0,0,0-1.40723.80127l-.08105-.16113a2.095,2.095,0,0,1,1.72949-1.15137c.95605,0,1.71387.8169,1.71387,2.20947,0,1.39014-.79883,2.29883-1.84961,2.29883-.56446,0-1.11817-.25537-1.59082-1.1914l.08105-.14551a1.80083,1.80083,0,0,0,1.36133.82666C32.457,153.26827,33.00488,152.71358,33.00488,151.55733Z" transform="translate(-10.30167)"/><path d="M36.71191,148.00215v-.36669H37.9834v.50195h-.09278Zm1.27149,5.15625v.502H36.71191v-.36719l1.17871-.13477Zm-.42481-2.73242c0-.92724,0-1.86328-.02734-2.79052h.9043c-.02735.90918-.02735,1.84521-.02735,2.79052v.33936c0,1.03125,0,1.96777.02735,2.895h-.9043c.02734-.90918.02734-1.84571.02734-2.89453Zm.42481,2.81446h1.15625c1.3916,0,2.1582-.9502,2.1582-2.58448,0-1.69482-.7666-2.60058-2.081-2.60058H37.9834v-.41992h1.38574a2.742,2.742,0,0,1,2.90918,3.02,2.85444,2.85444,0,0,1-3.08789,3.00489h-1.207Z" transform="translate(-10.30167)"/><path d="M46.85352,151.0002a1.82033,1.82033,0,0,1-.0625.50293H43.458v-.38379h2.11621c.43262,0,.53223-.20459.53223-.46484a.98145.98145,0,0,0-.97657-.97608c-.56543,0-1.21289.48194-1.21289,1.77,0,1.14063.57422,1.7461,1.46192,1.7461a1.55154,1.55154,0,0,0,1.251-.63037l.21289.16943a1.83724,1.83724,0,0,1-1.72949,1.04492,1.96958,1.96958,0,0,1-2.0039-2.21142,2.13493,2.13493,0,0,1,2.06738-2.29688A1.61606,1.61606,0,0,1,46.85352,151.0002Z" transform="translate(-10.30167)"/><path d="M47.751,153.43233l-.03223-.98828H48.21l.24024,1.07031-.44434-.20508v-.31006a1.72557,1.72557,0,0,0,1.1084.36915c.68262,0,1.00488-.273,1.00488-.68409,0-.38134-.26465-.57861-.833-.78369l-.418-.15234c-.65918-.24072-1.08984-.59815-1.08984-1.21436,0-.6582.55664-1.26367,1.56738-1.26367a2.33323,2.33323,0,0,1,1.26172.36865l-.03711.91358h-.46582l-.18457-.92041.334.148v.23974a1.46954,1.46954,0,0,0-.918-.33935c-.54981,0-.83692.23926-.83692.61474,0,.396.21973.5503.833.773l.2793.10059c.89746.32861,1.24023.75439,1.24023,1.31885,0,.68261-.5957,1.291-1.75488,1.291A2.75837,2.75837,0,0,1,47.751,153.43233Z" transform="translate(-10.30167)"/><path d="M52.18359,153.66036c.01856-.40528.02735-1.33252.02735-1.89063v-.42334c0-.49511-.00879-.77441-.02735-1.13427l-.72754-.08106v-.31738l1.38965-.54346.13575.09033-.02735,1.22071v1.18847c0,.55811.00977,1.48535.02735,1.89063Zm1.417-.3208v.3208H51.51172v-.3208l.98144-.18018h.209ZM51.96973,147.697a.60419.60419,0,1,1,.60351.57568A.57005.57005,0,0,1,51.96973,147.697Z" transform="translate(-10.30167)"/><path d="M57.61719,154.488c0-.39648-.24707-.6997-.89551-.6997H55.666a3.10872,3.10872,0,0,1-.47852-.03369v-.02881c-.46-.10157-.69141-.33838-.69141-.71436,0-.32422.21485-.66992.82325-1.19629l.20117.13575a1.049,1.049,0,0,0-.377.74462c0,.24121.10157.40137.52247.40137h1.18066c.98633,0,1.44629.4292,1.44629,1.16162,0,.78223-.748,1.55567-2.22168,1.55567-1.30762,0-1.86719-.45313-1.86719-1.09571,0-.44091.28125-.77539,1.17774-1.15381l.0498.05567a1.27821,1.27821,0,0,0-.49023.957c0,.59082.4541.82471,1.16308.82471C57.08984,155.40206,57.61719,154.99434,57.61719,154.488Zm-1.57129-5.21777a1.43117,1.43117,0,0,1,1.61816,1.4751,1.45991,1.45991,0,0,1-1.627,1.47412,1.43418,1.43418,0,0,1-1.627-1.47412A1.463,1.463,0,0,1,56.0459,149.27022Zm-.90039,1.48291c0,.65625.31543,1.10254.86621,1.10254.57519,0,.918-.47217.918-1.13672,0-.63916-.31739-1.085-.875-1.085C55.48828,149.634,55.14551,150.09737,55.14551,150.75313Zm3.05957-1.48389.13574.08985v.56592H57.01855v-.2461Z" transform="translate(-10.30167)"/><path d="M59.56055,153.66036c.01757-.40528.02734-1.33252.02734-1.89063V151.341c0-.49512-.00977-.769-.02734-1.1289l-.71094-.08106v-.31738l1.25586-.54346.13672.09033.10644,1.04151v1.36767c0,.55811.00879,1.48535.02637,1.89063Zm1.43261-.3208v.3208H58.90527v-.3208l.98145-.18018h.209Zm2.09082-2.41065v.84082c0,.57617.00879,1.48535.02637,1.89063H62.2959c.01758-.40528.02734-1.31446.02734-1.89063v-.76709c0-.82226-.21191-1.08886-.74219-1.08886a1.95265,1.95265,0,0,0-1.31933.62353h-.19629v-.415h.46777l-.38476.16748a2.41341,2.41341,0,0,1,1.7832-1.01953C62.70605,149.27022,63.084,149.74922,63.084,150.92891Zm-.25293,2.23047.89844.18018v.3208H61.6416v-.3208l.98047-.18018Z" transform="translate(-10.30167)"/></g></g></svg>