<?xml version="1.0" encoding="utf-8"?>
<!-- Generator: Adobe Illustrator 25.3.1, SVG Export Plug-In . SVG Version: 6.00 Build 0)  -->
<svg version="1.1" id="Layer_1" xmlns="http://www.w3.org/2000/svg" xmlns:xlink="http://www.w3.org/1999/xlink" x="0px" y="0px"
	 viewBox="0 0 427.3 267.6" style="enable-background:new 0 0 427.3 267.6;" xml:space="preserve">
<style type="text/css">
	.st0{fill-rule:evenodd;clip-rule:evenodd;fill:#7FB685;}
	.st1{fill-rule:evenodd;clip-rule:evenodd;fill:#C2C2C2;}
</style>
<g id="Layer_2_1_">
	<g id="Layer_1-2">
		<polygon class="st0" points="18.3,229.9 18.8,229.9 18.8,267.6 18.3,267.6 18.3,229.9 		"/>
		<polygon class="st0" points="18.3,172.3 18.8,172.3 18.8,210 18.3,210 18.3,172.3 		"/>
		<polygon class="st0" points="18.3,115.2 18.8,115.2 18.8,152.9 18.3,152.9 18.3,115.2 		"/>
		<polygon class="st0" points="18.3,57.6 18.8,57.6 18.8,95.3 18.3,95.3 18.3,57.6 		"/>
		<polygon class="st0" points="18.3,0 18.8,0 18.8,37.7 18.3,37.7 18.3,0 		"/>
		<polygon class="st0" points="18.3,229.9 154.8,229.9 154.8,267.6 18.3,267.6 18.3,229.9 		"/>
		<polygon class="st0" points="18.3,172.3 213.4,172.3 213.4,210 18.3,210 18.3,172.3 		"/>
		<polygon class="st0" points="18.3,115.2 252.6,115.2 252.6,152.9 18.3,152.9 18.3,115.2 		"/>
		<polygon class="st0" points="18.3,57.6 311.2,57.6 311.2,95.3 18.3,95.3 18.3,57.6 		"/>
		<polygon class="st0" points="18.3,0 369.8,0 369.8,37.7 18.3,37.7 18.3,0 		"/>
		<polygon class="st1" points="154.8,229.9 409.5,229.9 409.5,267.6 154.8,267.6 154.8,229.9 		"/>
		<polygon class="st1" points="213.4,172.3 409.5,172.3 409.5,210 213.4,210 213.4,172.3 		"/>
		<polygon class="st1" points="252.6,115.2 409.5,115.2 409.5,152.9 252.6,152.9 252.6,115.2 		"/>
		<polygon class="st1" points="311.2,57.6 409.5,57.6 409.5,95.3 311.2,95.3 311.2,57.6 		"/>
		<polygon class="st1" points="369.8,0 409.5,0 409.5,37.7 369.8,37.7 369.8,0 		"/>
		<path class="st0" d="M0,249c0-10.2,8.3-18.5,18.5-18.5c10.2,0,18.5,8.3,18.5,18.5s-8.3,18.5-18.5,18.5C8.3,267.6,0,259.4,0,249.2
			C0,249.1,0,249.1,0,249z"/>
		<path class="st0" d="M0,191.4c0-10.2,8.3-18.5,18.5-18.5S37,181.2,37,191.4s-8.3,18.5-18.5,18.5c0,0,0,0,0,0
			C8.3,210,0,201.8,0,191.6C0,191.5,0,191.5,0,191.4z"/>
		<path class="st0" d="M0,133.8c0-10.2,8.3-18.5,18.5-18.5c10.2,0,18.5,8.3,18.5,18.5s-8.3,18.5-18.5,18.5C8.3,152.4,0,144.2,0,134
			C0,133.9,0,133.9,0,133.8z"/>
		<path class="st0" d="M0,76.2C0,66,8.3,57.7,18.5,57.7S37,66,37,76.2s-8.3,18.5-18.5,18.5C8.3,94.8,0,86.6,0,76.4
			C0,76.3,0,76.3,0,76.2z"/>
		<path class="st0" d="M0,18.6C0,8.4,8.3,0.1,18.5,0.1C28.7,0.1,37,8.4,37,18.6s-8.3,18.5-18.5,18.5C8.3,37.2,0,29,0,18.8
			C0,18.7,0,18.7,0,18.6z"/>
		<path class="st0" d="M136.6,249c0-10.2,8.3-18.5,18.5-18.5s18.5,8.3,18.5,18.5c0,10.2-8.3,18.5-18.5,18.5h0
			c-10.2,0-18.5-8.2-18.5-18.4C136.6,249.1,136.6,249.1,136.6,249z"/>
		<path class="st0" d="M195.1,191.4c0-10.2,8.3-18.5,18.5-18.5s18.5,8.3,18.5,18.5s-8.3,18.5-18.5,18.5c0,0,0,0,0,0
			c-10.2,0-18.5-8.2-18.5-18.4C195.1,191.5,195.1,191.5,195.1,191.4z"/>
		<path class="st0" d="M233.9,133.8c0-10.2,8.3-18.5,18.5-18.5c10.2,0,18.5,8.3,18.5,18.5c0,10.2-8.3,18.5-18.5,18.5l0,0
			c-10.2,0-18.5-8.2-18.5-18.4C233.9,133.9,233.9,133.9,233.9,133.8z"/>
		<path class="st0" d="M292.5,76.2c0-10.2,8.3-18.5,18.5-18.5s18.5,8.3,18.5,18.5c0,10.2-8.3,18.5-18.5,18.5
			c-10.2,0-18.5-8.2-18.5-18.4C292.5,76.3,292.5,76.3,292.5,76.2z"/>
		<path class="st0" d="M351.1,18.6c0-10.2,8.3-18.5,18.5-18.5c10.2,0,18.5,8.3,18.5,18.5c0,10.2-8.3,18.5-18.5,18.5
			c-10.2,0-18.5-8.2-18.5-18.4C351.1,18.7,351.1,18.7,351.1,18.6z"/>
		<path class="st1" d="M390.3,249c0-10.2,8.3-18.5,18.5-18.5c10.2,0,18.5,8.3,18.5,18.5c0,10.2-8.3,18.5-18.5,18.5l0,0
			c-10.2,0-18.5-8.2-18.5-18.4C390.3,249.1,390.3,249.1,390.3,249z"/>
		<path class="st1" d="M390.3,191.4c0-10.2,8.3-18.5,18.5-18.5s18.5,8.3,18.5,18.5s-8.3,18.5-18.5,18.5c0,0,0,0,0,0
			c-10.2,0-18.5-8.2-18.5-18.4C390.3,191.5,390.3,191.5,390.3,191.4z"/>
		<path class="st1" d="M390.3,133.8c0-10.2,8.3-18.5,18.5-18.5c10.2,0,18.5,8.3,18.5,18.5c0,10.2-8.3,18.5-18.5,18.5l0,0
			c-10.2,0-18.5-8.2-18.5-18.4C390.3,133.9,390.3,133.9,390.3,133.8z"/>
		<path class="st1" d="M390.3,76.2c0-10.2,8.3-18.5,18.5-18.5s18.5,8.3,18.5,18.5c0,10.2-8.3,18.5-18.5,18.5l0,0
			c-10.2,0-18.5-8.2-18.5-18.4C390.3,76.3,390.3,76.3,390.3,76.2z"/>
		<path class="st1" d="M390.3,18.6c0-10.2,8.3-18.5,18.5-18.5c10.2,0,18.5,8.3,18.5,18.5c0,10.2-8.3,18.5-18.5,18.5l0,0
			c-10.2,0-18.5-8.2-18.5-18.4C390.3,18.7,390.3,18.7,390.3,18.6z"/>
		<path d="M11.9,11.9l1.1-1.2L12.3,15h-1.4l0.2-4.3h13.2l0.2,4.3H23l-0.8-4.3l1.1,1.2L11.9,11.9z M17.9,25.5l3.4,0.4v1H14v-1
			l3.4-0.4L17.9,25.5z M16.5,18.2c0-2.5,0-5-0.1-7.4h2.4c-0.1,2.4-0.1,4.9-0.1,7.4v1.2c0,2.5,0,5,0.1,7.4h-2.4
			c0.1-2.4,0.1-4.9,0.1-7.4V18.2z"/>
		<path d="M29,20.5c1.2-0.4,2.5-0.8,3.7-1v0.9c-1.1,0.2-2.2,0.6-3.2,1c-2.1,0.8-2.4,1.7-2.4,2.4c-0.1,0.9,0.6,1.7,1.6,1.8
			c0.1,0,0.2,0,0.4,0c0.8,0,1.3-0.3,2.8-1.4l0.5-0.4l0.3,0.5L31.9,25c-1.4,1.4-2.2,2.1-3.7,2.1c-1.6,0.2-3-1-3.2-2.6
			c0-0.1,0-0.3,0-0.4C25,22.7,25.7,21.7,29,20.5z M31.7,24.6v-5.5c0-2.3-0.7-2.9-2.2-2.9c-0.7,0-1.5,0.1-2.2,0.4l1-0.8l-0.6,2
			c-0.2,0.7-0.6,1.1-1.3,1.1c-0.6,0.1-1-0.3-1.1-0.9c0,0,0,0,0-0.1c0.4-1.8,2.2-3,4.7-3c2.5,0,3.7,1.1,3.7,4.2v5.1
			c0,1,0.3,1.4,0.9,1.4c0.4,0,0.7-0.2,0.9-0.5l0.5,0.5c-0.4,0.8-1.2,1.3-2.1,1.3c-1.2,0-2.2-1-2.2-2.2
			C31.7,24.8,31.7,24.7,31.7,24.6L31.7,24.6z"/>
		<path d="M36.8,25.9l2.6-0.5l-0.8,1.3c0-1.1,0.1-3.6,0.1-5V11.2l-2-0.2v-0.9l3.7-1.1l0.3,0.2l-0.1,3.4v4.6l0.1,0.3v7.4L40.5,27
			l-3.6-0.2L36.8,25.9z M46.7,21.2c0-3.1-1.3-4.7-3.1-4.7c-0.9,0-2.1,0.4-3.8,2.1l-0.2-0.4c1.4-2.1,3-3.1,4.6-3.1
			c2.5,0,4.6,2.2,4.6,5.9c0,3.7-2.1,6.1-4.9,6.1c-1.5,0-3-0.7-4.2-3.2l0.2-0.4c1.2,1.6,2.5,2.2,3.6,2.2
			C45.3,25.8,46.7,24.3,46.7,21.2L46.7,21.2z"/>
		<path d="M54.1,9.1l0.3,0.2l-0.1,3.4v9.1c0,1.7,0,3.4,0.1,5h-2.2c0-1.7,0.1-3.4,0.1-5V11.2l-2-0.2v-0.9L54.1,9.1z M56.3,25.9v0.9
			h-5.9v-0.9l2.7-0.5h0.6L56.3,25.9z"/>
		<path d="M67.9,19.7c0,0.5,0,0.9-0.2,1.3h-8.9v-1h5.6c1.2,0,1.4-0.5,1.4-1.2c0-1.4-1.2-2.6-2.6-2.6c-1.5,0-3.2,1.3-3.2,4.7
			c0,3,1.5,4.7,3.9,4.7c1.3,0,2.6-0.6,3.3-1.7l0.6,0.5c-0.8,1.8-2.7,2.9-4.6,2.8c-3.2,0-5.3-2.2-5.3-5.9c0-3.7,2.5-6.1,5.5-6.1
			c2.4-0.1,4.4,1.8,4.5,4.1C68,19.4,68,19.5,67.9,19.7z"/>
		<path d="M73.9,20.5c1.2-0.4,2.5-0.8,3.7-1v0.9c-1.1,0.2-2.2,0.6-3.2,1c-2.1,0.8-2.4,1.7-2.4,2.4c-0.1,0.9,0.6,1.7,1.6,1.8
			c0.1,0,0.2,0,0.4,0c0.8,0,1.3-0.3,2.8-1.4l0.5-0.4l0.3,0.5L76.9,25c-1.4,1.4-2.2,2.1-3.7,2.1c-1.6,0.2-3-1-3.2-2.6
			c0-0.1,0-0.3,0-0.4C70,22.7,70.7,21.7,73.9,20.5z M76.7,24.6v-5.5c0-2.3-0.7-2.9-2.2-2.9c-0.7,0-1.5,0.1-2.2,0.4l1-0.8l-0.6,2
			c-0.2,0.7-0.6,1.1-1.3,1.1c-0.6,0.1-1-0.3-1.1-0.9c0,0,0,0,0-0.1c0.4-1.8,2.2-3,4.7-3c2.5,0,3.7,1.1,3.7,4.2v5.1
			c0,1,0.3,1.4,0.9,1.4c0.4,0,0.7-0.2,0.9-0.5l0.5,0.5c-0.4,0.8-1.2,1.3-2.1,1.3c-1.2,0-2.2-1-2.2-2.2
			C76.6,24.8,76.6,24.7,76.7,24.6L76.7,24.6z"/>
		<path d="M85.3,22.6c0,2.1,0.6,2.8,1.9,2.8c1.4-0.1,2.7-0.7,3.6-1.8h0.5v1.2h-1.2l0.8-0.4c-1,1.6-2.7,2.6-4.6,2.7
			c-1.9,0-3.1-1.2-3.1-4.3l0.1-6.3l0.5,0.5l-2.2-0.5v-0.9l3.5-0.3l0.2,0.2l-0.1,3.4L85.3,22.6z M90.9,27l-0.3-2.8l0.1-7.7l0.5,0.5
			L89,16.4v-0.8l3.5-0.3l0.2,0.2l-0.1,3.4v7.2L92,25.5l2.3,0.5v0.9L90.9,27z"/>
		<path d="M11,256.2l2.4-0.4h0.5l2.6,0.4v1H11L11,256.2z M18.1,241h1.5l5.5,16.2h-2.3L18,242.9l0.6-0.1l-4.9,14.4h-1.1L18.1,241z
			 M15.3,250.9h6.5l0.4,1.1h-7.3L15.3,250.9z M20,256.2l3-0.4h0.5l3,0.4v1H20L20,256.2z"/>
		<path d="M32.9,256.2c1.2,0,2.1-0.5,3.1-1.9l0.2,0.6c-0.9,1.7-2.1,2.7-4,2.7c-2.9,0-4.9-2.4-4.9-5.9c0-3.7,2.2-6.1,5.1-6.1
			c1.4,0,2.6,0.6,3.8,2.5l-0.2,0.6c-1.4-1.3-2.3-1.7-3.2-1.7c-1.8,0-3.3,1.4-3.3,4.7C29.5,254.7,31,256.2,32.9,256.2z M39.5,256.4
			v0.9l-3.7,0.2l-0.2-2.4v-7.1l0.1-0.3v-6l-2-0.2v-0.9l3.8-1.1l0.3,0.2l-0.1,3.4v14.1l-0.5-1.3L39.5,256.4z"/>
		<path d="M41,251.6c0-4,2.7-6.1,5.5-6.1c2.8,0,5.5,2.1,5.5,6.1s-2.7,6-5.5,6C43.7,257.5,41,255.5,41,251.6z M49.7,251.6
			c0-3.2-1.2-5-3.2-5c-2.1,0-3.2,1.7-3.2,5c0,3.2,1.1,4.9,3.2,4.9C48.6,256.4,49.7,254.8,49.7,251.6L49.7,251.6z"/>
		<path d="M53.6,256.4l2.6-0.5l-0.8,1.3c0-1.1,0.1-3.6,0.1-5v-10.5l-2-0.2v-0.9l3.7-1.1l0.3,0.2l-0.1,3.4v4.6l0.1,0.3v7.4l-0.3,2.1
			l-3.6-0.2V256.4z M63.5,251.6c0-3.1-1.3-4.7-3.1-4.7c-0.9,0-2.1,0.4-3.8,2.1l-0.2-0.4c1.4-2.1,3-3.1,4.6-3.1
			c2.5,0,4.6,2.2,4.6,5.9c0,3.7-2.1,6.1-4.9,6.1c-1.5,0-3-0.7-4.2-3.2l0.2-0.4c1.2,1.6,2.5,2.2,3.6,2.2
			C62,256.2,63.5,254.7,63.5,251.6L63.5,251.6z"/>
		<path d="M77.8,250.1c0,0.5,0,0.9-0.2,1.3h-8.9v-1h5.6c1.2,0,1.4-0.5,1.4-1.2c0-1.4-1.2-2.6-2.6-2.6c-1.5,0-3.2,1.3-3.2,4.7
			c0,3,1.5,4.7,3.9,4.7c1.3,0,2.6-0.6,3.3-1.7l0.6,0.5c-0.8,1.8-2.7,2.9-4.6,2.8c-3.2,0-5.3-2.2-5.3-5.9c0-3.7,2.5-6.1,5.5-6.1
			c2.4-0.1,4.4,1.8,4.5,4.1C77.8,249.8,77.8,250,77.8,250.1z"/>
		<path d="M11.9,126.9v-1h3.4v1.3h-0.2L11.9,126.9z M15.3,140.7v1.3h-3.4v-1l3.1-0.4H15.3z M14.2,133.4c0-2.5,0-5-0.1-7.4h2.4
			c-0.1,2.4-0.1,4.9-0.1,7.4v0.9c0,2.7,0,5.2,0.1,7.7h-2.4c0.1-2.4,0.1-4.9,0.1-7.7L14.2,133.4z M15.3,140.9h3.1
			c3.7,0,5.8-2.5,5.8-6.9c0-4.5-2-6.9-5.5-6.9h-3.3v-1.1H19c4.6,0,7.8,2.8,7.8,8.1c0,5.2-3.5,8-8.2,8h-3.2V140.9z"/>
		<path d="M32.9,133.2c2.2,0,3.4-1.2,3.4-3.2c0-1.8-1.1-2.8-2.9-2.8c-0.7,0-1.4,0.1-2,0.3l1.1-0.7l-0.5,1.7c-0.3,1-0.6,1.5-1.4,1.5
			c-0.6,0-1.1-0.3-1.2-0.9c0.4-2.1,2.3-3.1,4.5-3.1c2.8,0,4.6,1.5,4.6,3.8c0,2-1.5,3.6-4.1,4.1v-0.4c3.1,0.3,4.6,1.8,4.6,4
			c0,2.6-2.1,4.6-5.4,4.6c-2.4,0-4.2-1-4.6-3.4c0.2-0.5,0.7-0.8,1.2-0.8c0.8,0,1.1,0.5,1.4,1.7l0.5,1.8l-1-0.9
			c0.7,0.3,1.4,0.4,2.1,0.4c2.4,0,3.6-1.3,3.6-3.4c0-2.1-1.2-3.3-3.7-3.3H32v-1.2L32.9,133.2z"/>
		<path d="M41.8,140.6c0-0.9,0.8-1.7,1.7-1.7c0.9,0,1.7,0.8,1.7,1.7c0,0.9-0.8,1.7-1.7,1.7c0,0,0,0,0,0
			C42.6,142.3,41.8,141.6,41.8,140.6z"/>
		<path d="M50.1,135.8c0-1.3,0-2.1-0.1-3l-1.9-0.2v-0.8l3.6-1.4l0.4,0.2l-0.1,3.3v5.8c0,3.9-0.2,5.7-1.4,7c-0.7,0.9-1.9,1.4-3,1.4
			c-1.5,0-2.1-0.7-2.1-1.4c0.2-0.6,0.8-1,1.4-1c0.7,0,1.3,0.3,1.8,0.7l1.1,0.8l-3.1,0.4l0-0.9c0.4,0.4,0.9,0.6,1.4,0.6
			c0.7,0.1,1.4-0.4,1.6-1c0.4-1,0.5-3,0.5-6.6L50.1,135.8z M49.4,126.1c0-0.9,0.6-1.6,1.5-1.7c0.9,0,1.6,0.6,1.7,1.5
			c0,0.9-0.6,1.6-1.5,1.7c0,0-0.1,0-0.1,0c-0.8,0-1.6-0.6-1.6-1.4C49.4,126.2,49.4,126.1,49.4,126.1z"/>
		<path d="M55.2,141.4l-0.1-2.6h1.3l0.6,2.9l-1.2-0.5v-0.8c0.8,0.7,1.9,1,3,1c1.8,0,2.7-0.7,2.7-1.8c0-1-0.7-1.5-2.2-2.1l-1.1-0.4
			c-1.8-0.6-2.9-1.6-2.9-3.2c0-1.8,1.5-3.4,4.2-3.4c1.2,0,2.4,0.3,3.4,1l-0.1,2.4h-1.2l-0.5-2.5l0.9,0.4v0.6
			c-0.7-0.6-1.6-0.9-2.4-0.9c-1.5,0-2.2,0.6-2.2,1.6c0,1.1,0.6,1.5,2.2,2.1l0.7,0.3c2.4,0.9,3.3,2,3.3,3.5c0,1.8-1.6,3.4-4.7,3.4
			C57.6,142.3,56.3,142,55.2,141.4z"/>
		<path d="M11,197.4l2.4-0.4h0.5l2.6,0.4v1H11L11,197.4z M18.1,182.2h1.5l5.5,16.2h-2.3L18,184.1l0.6-0.1l-4.9,14.4h-1.1L18.1,182.2
			z M15.3,192.1h6.5l0.4,1.1h-7.3L15.3,192.1z M20,197.4l3-0.4h0.5l3,0.4v1H20L20,197.4z"/>
		<path d="M27.9,183.7l-3.1-0.4v-1h6.5v1l-2.9,0.4H27.9z M36.1,182.4H37l4.3,13.4l-0.6,0.1l3.8-13.6h1.2l-4.4,16.2h-1L35.6,185
			l0.8,0l-4.3,13.7h-1l-4.7-16.2h2.3l3.6,13.4l-0.7,0.1L36.1,182.4z M36.4,183.7l-3.1-0.4v-1h6.5v1l-2.9,0.4H36.4z M44.3,183.7
			l-2.5-0.4v-1h5.4v1l-2.5,0.4H44.3z"/>
		<path d="M56.3,194.7c0-1.5-0.9-2.2-3-3l-0.9-0.4c-2.5-1-4.1-2.4-4.1-4.8c0-2.8,2.3-4.5,5.4-4.5c1.4,0,2.8,0.4,3.9,1.3l-0.1,3.1H56
			l-0.7-3.6l1.6,0.8v1.2c-0.8-1-2.1-1.5-3.3-1.6c-1.8,0-3.2,0.9-3.2,2.7c0,1.5,1,2.4,2.7,3l0.9,0.4c3.2,1.2,4.4,2.6,4.4,4.9
			c0,2.8-2.4,4.6-5.7,4.6c-1.6,0-3.3-0.4-4.7-1.3l0.1-3.4h1.5l0.6,3.7l-1.6-0.7V196c1.5,1.1,2.3,1.5,3.9,1.5
			C54.8,197.6,56.3,196.5,56.3,194.7z"/>
		<g>
			<g>
				<path d="M11.1,84.4v-1c0.5,0,0.8-0.1,1-0.3c0.2-0.2,0.3-0.4,0.4-0.8c0.1-0.4,0.1-0.8,0.1-1.3v-9.2c0-0.3,0-0.6,0-0.9
					s0-0.6,0-0.8c-0.2,0-0.5,0-0.8,0c-0.3,0-0.6,0-0.8,0V69h5.4v1c-0.5,0-0.8,0.1-1,0.3c-0.2,0.2-0.4,0.4-0.4,0.8s-0.1,0.8-0.1,1.4
					V76h7.3v-4.2c0-0.3,0-0.6,0-0.9s0-0.6,0-0.8c-0.2,0-0.5,0-0.8,0c-0.3,0-0.6,0-0.8,0V69h5.4v1c-0.5,0-0.8,0.1-1,0.3
					c-0.2,0.2-0.4,0.4-0.4,0.8c-0.1,0.3-0.1,0.8-0.1,1.4v9c0,0.4,0,0.8,0,1.1c0,0.3,0,0.6-0.1,0.8c0.2,0,0.5,0,0.8-0.1
					c0.3,0,0.6,0,0.8,0v1.2h-5.4v-1c0.5,0,0.8-0.1,1-0.3c0.2-0.2,0.3-0.4,0.4-0.8c0.1-0.4,0.1-0.8,0.1-1.3v-3.8l-7.3,0.1v4.2
					c0,0.4,0,0.8,0,1.1s0,0.6-0.1,0.8c0.2,0,0.5,0,0.8-0.1c0.3,0,0.6,0,0.8,0v1.2H11.1z"/>
				<path d="M39.9,73.8c0-0.8-0.1-1.5-0.3-2.1c-0.2-0.6-0.5-1-0.9-1.3c-0.4-0.3-1-0.4-1.7-0.4h-1.6l0,11.4c0,0.4,0,0.8,0,1.1
					s0,0.6-0.1,0.8c0.3,0,0.6,0,0.9-0.1c0.3,0,0.6,0,0.9,0v1.2h-5.6v-1c0.5,0,0.8-0.1,1-0.3c0.2-0.2,0.3-0.4,0.4-0.8
					c0.1-0.4,0.1-0.8,0.1-1.3V70l-1.8,0c-0.9,0-1.5,0.3-2,0.9c-0.4,0.6-0.6,1.5-0.6,2.8h-1l0.1-4.8h13l0.1,4.8H39.9z"/>
				<path d="M50.7,84.6c-0.6-1.4-1.2-2.8-1.8-4.1c-0.6-1.4-1.2-2.8-1.8-4.2c-0.2-0.4-0.4-0.9-0.6-1.3c-0.2-0.5-0.4-1-0.6-1.5
					c-0.2-0.5-0.4-1.1-0.6-1.7c0,0.4,0,0.7,0,1.1c0,0.4,0,0.7,0,1c0,0.5,0,1,0,1.6c0,0.6,0,1.3-0.1,1.9s0,1.3,0,2c0,0.7,0,1.3,0,1.9
					c0,0.4,0,0.7,0,1c0,0.3,0,0.6-0.1,0.9c0.3,0,0.5,0,0.8-0.1c0.3,0,0.6,0,0.8,0v1.2h-4.5v-1c0.4,0,0.7-0.1,0.9-0.2
					c0.2-0.1,0.4-0.4,0.5-0.7c0.1-0.3,0.1-0.7,0.1-1.1l0.3-9.5c0-0.3,0-0.6,0-1s0-0.6,0-0.9c-0.3,0-0.5,0-0.8,0c-0.3,0-0.5,0-0.8,0
					V69h3.9l3.6,8.7c0.2,0.4,0.4,0.8,0.5,1.3c0.2,0.4,0.4,0.9,0.5,1.3c0.2,0.4,0.3,0.8,0.5,1.2h0c0.2-0.4,0.3-0.9,0.6-1.5
					c0.2-0.5,0.4-1,0.5-1.4c0.6-1.6,1.3-3.2,1.9-4.8c0.7-1.6,1.3-3.2,1.9-4.9h3.9v1c-0.4,0-0.6,0.1-0.9,0.2
					c-0.2,0.1-0.4,0.3-0.5,0.7c-0.1,0.3-0.2,0.8-0.1,1.4l0.5,9.5c0,0.3,0,0.6,0,0.9c0,0.3,0,0.5,0,0.7c0.3,0,0.5,0,0.8,0
					c0.3,0,0.6,0,0.8,0v1.2h-5.3v-1c0.4,0,0.8-0.1,1-0.3c0.2-0.2,0.4-0.4,0.5-0.8c0.1-0.3,0.1-0.8,0.1-1.4L57,74.7
					c0-0.2,0-0.5,0-0.8c0-0.3,0-0.6-0.1-0.9s0-0.6-0.1-1c0,0.1-0.1,0.2-0.1,0.3c0,0.1-0.1,0.2-0.1,0.4l-4.7,12H50.7z"/>
				<path d="M63.2,84.4v-1c0.5,0,0.8-0.1,1-0.3c0.2-0.2,0.3-0.4,0.4-0.8c0.1-0.4,0.1-0.8,0.1-1.3v-9.2c0-0.3,0-0.6,0-0.9
					s0-0.6,0-0.8c-0.2,0-0.5,0-0.8,0c-0.3,0-0.6,0-0.8,0V69h5.4v1c-0.5,0-0.8,0.1-1,0.3c-0.2,0.2-0.4,0.4-0.4,0.8S67,71.9,67,72.4
					v9.1c0,0.4,0,0.7,0,1s0,0.5-0.1,0.7l3.7,0c0.9,0,1.6-0.3,2.1-0.9c0.5-0.6,0.7-1.5,0.7-2.8h1l-0.1,4.8H63.2z"/>
				<path d="M76.8,90.4l-1.4-0.9l12.7-21.7l1.6,1L76.8,90.4z"/>
				<path d="M103.2,73.9c-0.2-1.3-0.6-2.3-1.4-3c-0.7-0.7-1.7-1.1-2.9-1.1c-0.8,0-1.5,0.2-2.1,0.5c-0.6,0.3-1.2,0.8-1.7,1.4
					c-0.5,0.6-0.8,1.3-1.1,2.2c-0.3,0.8-0.4,1.7-0.4,2.7c0,1.3,0.2,2.5,0.7,3.6c0.5,1,1.1,1.8,1.9,2.4s1.8,0.9,2.8,0.9
					c0.9,0,1.9-0.2,2.8-0.7s1.7-1.1,2.3-1.9l0.7,0.6c-0.7,0.9-1.4,1.6-2.1,2.1c-0.7,0.5-1.5,0.8-2.2,1c-0.7,0.2-1.4,0.3-2,0.3
					c-1.1,0-2.1-0.2-3-0.6c-0.9-0.4-1.7-0.9-2.4-1.7C92.5,81.8,92,81,91.6,80c-0.4-0.9-0.5-2-0.5-3.1c0-1,0.2-2,0.5-3
					c0.3-1,0.8-1.9,1.4-2.7c0.6-0.8,1.4-1.4,2.4-1.9c1-0.5,2.1-0.7,3.4-0.7c0.7,0,1.5,0.1,2.2,0.3c0.7,0.2,1.4,0.5,2.1,0.9l-0.1-1.1
					h1.4v5.1H103.2z"/>
				<path d="M115.3,73.8c-0.1-0.7-0.3-1.4-0.6-2s-0.7-1.1-1.3-1.4s-1.2-0.5-2-0.5c-0.8,0-1.5,0.2-2,0.7c-0.5,0.5-0.7,1-0.7,1.7
					c0,0.6,0.2,1.1,0.5,1.4c0.3,0.4,0.8,0.7,1.3,1c0.5,0.3,1.2,0.6,1.9,0.9c0.6,0.2,1.1,0.5,1.7,0.8c0.6,0.3,1.1,0.6,1.6,1
					c0.5,0.4,0.8,0.8,1.1,1.3c0.3,0.5,0.4,1.1,0.4,1.8c0,0.8-0.2,1.6-0.6,2.2s-1,1.2-1.8,1.5s-1.7,0.5-2.8,0.5c-0.6,0-1.3-0.1-2-0.3
					c-0.7-0.2-1.3-0.5-1.9-0.8l0.1,0.9h-1.3l-0.1-4.8h1.1c0.1,1.3,0.6,2.2,1.4,2.9c0.8,0.7,1.8,1,2.9,1c0.6,0,1.1-0.1,1.5-0.3
					c0.5-0.2,0.8-0.5,1.1-0.9c0.3-0.4,0.4-0.8,0.4-1.3c0-0.6-0.2-1.1-0.5-1.5s-0.8-0.8-1.4-1.1c-0.5-0.3-1.1-0.6-1.7-0.8
					c-0.6-0.3-1.2-0.5-1.7-0.8c-0.6-0.3-1.1-0.6-1.5-1c-0.5-0.4-0.8-0.8-1.1-1.4s-0.4-1.1-0.4-1.8c0-0.4,0.1-0.8,0.2-1.3
					c0.1-0.5,0.4-0.9,0.7-1.3c0.4-0.4,0.8-0.7,1.4-1c0.6-0.3,1.4-0.4,2.3-0.4c0.6,0,1.2,0.1,1.9,0.2s1.3,0.4,1.9,0.9l-0.1-0.9h1.3
					v4.9H115.3z"/>
				<path d="M128,73.8c-0.1-0.7-0.3-1.4-0.6-2s-0.7-1.1-1.3-1.4s-1.2-0.5-2-0.5c-0.8,0-1.5,0.2-2,0.7c-0.5,0.5-0.7,1-0.7,1.7
					c0,0.6,0.2,1.1,0.5,1.4c0.3,0.4,0.8,0.7,1.3,1c0.5,0.3,1.2,0.6,1.9,0.9c0.6,0.2,1.1,0.5,1.7,0.8c0.6,0.3,1.1,0.6,1.6,1
					c0.5,0.4,0.8,0.8,1.1,1.3c0.3,0.5,0.4,1.1,0.4,1.8c0,0.8-0.2,1.6-0.6,2.2s-1,1.2-1.8,1.5s-1.7,0.5-2.8,0.5c-0.6,0-1.3-0.1-2-0.3
					c-0.7-0.2-1.3-0.5-1.9-0.8l0.1,0.9h-1.3l-0.1-4.8h1.1c0.1,1.3,0.6,2.2,1.4,2.9c0.8,0.7,1.8,1,2.9,1c0.6,0,1.1-0.1,1.5-0.3
					c0.5-0.2,0.8-0.5,1.1-0.9c0.3-0.4,0.4-0.8,0.4-1.3c0-0.6-0.2-1.1-0.5-1.5s-0.8-0.8-1.4-1.1c-0.5-0.3-1.1-0.6-1.7-0.8
					c-0.6-0.3-1.2-0.5-1.7-0.8c-0.6-0.3-1.1-0.6-1.5-1c-0.5-0.4-0.8-0.8-1.1-1.4s-0.4-1.1-0.4-1.8c0-0.4,0.1-0.8,0.2-1.3
					c0.1-0.5,0.4-0.9,0.7-1.3c0.4-0.4,0.8-0.7,1.4-1c0.6-0.3,1.4-0.4,2.3-0.4c0.6,0,1.2,0.1,1.9,0.2s1.3,0.4,1.9,0.9l-0.1-0.9h1.3
					v4.9H128z"/>
			</g>
		</g>
	</g>
</g>
</svg>
