<svg xmlns="http://www.w3.org/2000/svg" width="427.32138" height="267.64136" viewBox="0 0 427.32138 267.64136"><defs><style>.cls-1{fill:#7fb685;}.cls-1,.cls-2{fill-rule:evenodd;}.cls-2{fill:#c2c2c2;}</style></defs><g id="Layer_2" data-name="Layer 2"><g id="Layer_1-2" data-name="Layer 1"><polygon class="cls-1" points="18.268 229.903 18.764 229.903 18.764 267.641 18.268 267.641 18.268 229.903 18.268 229.903"/><polygon class="cls-1" points="18.268 172.303 18.764 172.303 18.764 210.041 18.268 210.041 18.268 172.303 18.268 172.303"/><polygon class="cls-1" points="18.268 115.2 18.764 115.2 18.764 152.938 18.268 152.938 18.268 115.2 18.268 115.2"/><polygon class="cls-1" points="18.268 57.6 18.764 57.6 18.764 95.338 18.268 95.338 18.268 57.6 18.268 57.6"/><polygon class="cls-1" points="18.268 0 18.764 0 18.764 37.738 18.268 37.738 18.268 0 18.268 0"/><polygon class="cls-1" points="18.268 229.903 154.819 229.903 154.819 267.641 18.268 267.641 18.268 229.903 18.268 229.903"/><polygon class="cls-1" points="18.268 172.303 213.412 172.303 213.412 210.041 18.268 210.041 18.268 172.303 18.268 172.303"/><polygon class="cls-1" points="18.268 115.2 252.64 115.2 252.64 152.938 18.268 152.938 18.268 115.2 18.268 115.2"/><polygon class="cls-1" points="18.268 57.6 311.233 57.6 311.233 95.338 18.268 95.338 18.268 57.6 18.268 57.6"/><polygon class="cls-1" points="18.268 0 369.826 0 369.826 37.738 18.268 37.738 18.268 0 18.268 0"/><polygon class="cls-2" points="154.819 229.903 409.468 229.903 409.468 267.641 154.819 267.641 154.819 229.903 154.819 229.903"/><polygon class="cls-2" points="213.412 172.303 409.468 172.303 409.468 210.041 213.412 210.041 213.412 172.303 213.412 172.303"/><polygon class="cls-2" points="252.64 115.2 409.468 115.2 409.468 152.938 252.64 152.938 252.64 115.2 252.64 115.2"/><polygon class="cls-2" points="311.233 57.6 409.468 57.6 409.468 95.338 311.233 95.338 311.233 57.6 311.233 57.6"/><polygon class="cls-2" points="369.826 0 409.468 0 409.468 37.738 369.826 37.738 369.826 0 369.826 0"/><path class="cls-1" d="M33.87981,249.02069a18.51586,18.51586,0,1,1,18.51586,18.51587,18.4389,18.4389,0,0,1-18.51586-18.51587Z" transform="translate(-33.87981)"/><path class="cls-1" d="M33.87981,191.42072a18.51586,18.51586,0,1,1,18.51586,18.5158,18.43885,18.43885,0,0,1-18.51586-18.5158Z" transform="translate(-33.87981)"/><path class="cls-1" d="M33.87981,133.82068a18.51586,18.51586,0,1,1,18.51586,18.51587,18.4389,18.4389,0,0,1-18.51586-18.51587Z" transform="translate(-33.87981)"/><path class="cls-1" d="M33.87981,76.2207A18.51586,18.51586,0,1,1,52.39567,94.73657,18.43886,18.43886,0,0,1,33.87981,76.2207Z" transform="translate(-33.87981)"/><path class="cls-1" d="M33.87981,18.62073A18.51586,18.51586,0,1,1,52.39567,37.1366,18.43886,18.43886,0,0,1,33.87981,18.62073Z" transform="translate(-33.87981)"/><path class="cls-1" d="M170.43153,249.02069a18.51587,18.51587,0,1,1,18.51586,18.51587,18.4389,18.4389,0,0,1-18.51586-18.51587Z" transform="translate(-33.87981)"/><path class="cls-1" d="M229.02464,191.42072a18.51586,18.51586,0,1,1,18.51586,18.5158,18.43885,18.43885,0,0,1-18.51586-18.5158Z" transform="translate(-33.87981)"/><path class="cls-1" d="M267.75568,133.82068a18.51586,18.51586,0,1,1,18.51585,18.51587,18.4389,18.4389,0,0,1-18.51585-18.51587Z" transform="translate(-33.87981)"/><path class="cls-1" d="M326.34877,76.2207a18.51586,18.51586,0,1,1,18.51587,18.51587A18.43887,18.43887,0,0,1,326.34877,76.2207Z" transform="translate(-33.87981)"/><path class="cls-1" d="M384.94188,18.62073A18.51586,18.51586,0,1,1,403.45775,37.1366a18.43885,18.43885,0,0,1-18.51587-18.51587Z" transform="translate(-33.87981)"/><path class="cls-2" d="M424.16948,249.02069a18.51586,18.51586,0,1,1,18.51584,18.51587,18.43888,18.43888,0,0,1-18.51584-18.51587Z" transform="translate(-33.87981)"/><path class="cls-2" d="M424.16948,191.42072a18.51586,18.51586,0,1,1,18.51584,18.5158,18.43884,18.43884,0,0,1-18.51584-18.5158Z" transform="translate(-33.87981)"/><path class="cls-2" d="M424.16948,133.82068a18.51586,18.51586,0,1,1,18.51584,18.51587,18.43888,18.43888,0,0,1-18.51584-18.51587Z" transform="translate(-33.87981)"/><path class="cls-2" d="M424.16948,76.2207a18.51586,18.51586,0,1,1,18.51584,18.51587A18.43884,18.43884,0,0,1,424.16948,76.2207Z" transform="translate(-33.87981)"/><path class="cls-2" d="M424.16948,18.62073A18.51586,18.51586,0,1,1,442.68532,37.1366a18.43884,18.43884,0,0,1-18.51584-18.51587Z" transform="translate(-33.87981)"/><path d="M45.78125,11.94446l1.11816-1.209-.76074,4.28321H44.75781l.18555-4.28321H58.10449L58.29,15.01868H56.90918l-.75977-4.28321,1.11621,1.209Zm5.99707,13.51562,3.375.35987v.979H47.89453V25.82l3.37109-.35987Zm-1.3877-7.28418c0-2.47216,0-4.96826-.07226-7.44043h2.41113c-.07226,2.42383-.07226,4.92041-.07226,7.44043v1.18164c0,2.47315,0,4.96924.07226,7.44141H50.31836c.07226-2.42432.07226-4.92041.07226-7.44043Z" transform="translate(-33.87981)"/><path d="M62.84961,20.48792a27.234,27.234,0,0,1,3.72559-1.00831v.87207a21.71893,21.71893,0,0,0-3.21094.96c-2.09864.81835-2.36621,1.7246-2.36621,2.44531a1.67508,1.67508,0,0,0,1.916,1.7749c.81836,0,1.292-.30469,2.76172-1.35547l.50781-.38086.33106.49512-.71387.71924c-1.42383,1.42822-2.23633,2.104-3.71582,2.104a2.9268,2.9268,0,0,1-3.21289-3.00439C58.87207,22.74475,59.60547,21.65784,62.84961,20.48792Zm2.707,4.11669V19.10168c0-2.33935-.6582-2.91845-2.23926-2.91845a5.70507,5.70507,0,0,0-2.165.42676l1-.75489-.59863,2.04151c-.207.74756-.59082,1.14648-1.25488,1.14648a1.00876,1.00876,0,0,1-1.11035-.97412c.4375-1.834,2.22265-2.97461,4.68261-2.97461,2.50684,0,3.708,1.1377,3.708,4.17285v5.10547c0,1.04541.32813,1.42041.86817,1.42041a1.16668,1.16668,0,0,0,.92382-.52783l.48926.522A2.267,2.267,0,0,1,67.77148,27.045,2.19631,2.19631,0,0,1,65.55664,24.60461Z" transform="translate(-33.87981)"/><path d="M70.72266,25.944l2.57324-.48-.80469,1.33594c.04785-1.08008.07227-3.55225.07227-5.04053V11.22327l-1.96387-.23682v-.8501l3.67773-1.08008.33887.19483-.0957,3.40527v4.5542l.07226.312v7.38916L74.332,27.045l-3.60937-.24511Zm9.89453-4.75147c0-3.08154-1.25391-4.73486-3.05567-4.73486-.88672,0-2.05664.4375-3.7539,2.13623l-.21582-.43017c1.39062-2.13868,2.95312-3.06934,4.61328-3.06934,2.54785,0,4.56836,2.17822,4.56836,5.89111,0,3.70606-2.12989,6.12842-4.93262,6.12842-1.50391,0-2.97852-.68066-4.23926-3.17578l.21582-.38818c1.2334,1.56933,2.49805,2.20361,3.62891,2.20361C79.15625,25.75354,80.61719,24.27405,80.61719,21.1925Z" transform="translate(-33.87981)"/><path d="M87.958,9.05627l.33887.19483-.09571,3.40527v9.10205q0,2.52027.07129,5.04053H86.09961q.07177-2.52027.07227-5.04053V11.2262L84.208,10.98645v-.8501ZM90.15723,25.943v.856H84.21484v-.856l2.68946-.48H87.46Z" transform="translate(-33.87981)"/><path d="M101.82812,19.70618a4.87517,4.87517,0,0,1-.166,1.34131h-8.8877v-1.023H98.418c1.15234,0,1.418-.54541,1.418-1.24024a2.61509,2.61509,0,0,0-2.60449-2.60107c-1.50586,0-3.23243,1.28418-3.23243,4.71826,0,3.0415,1.53125,4.65576,3.89649,4.65576a4.1367,4.1367,0,0,0,3.335-1.68017l.56738.45166a4.896,4.896,0,0,1-4.60937,2.78515c-3.23243,0-5.34375-2.23486-5.34375-5.89648,0-3.69092,2.53027-6.12305,5.51367-6.12305A4.30808,4.30808,0,0,1,101.82812,19.70618Z" transform="translate(-33.87981)"/><path d="M107.8252,20.48792a27.23342,27.23342,0,0,1,3.72558-1.00831v.87207a21.71893,21.71893,0,0,0-3.21094.96c-2.09863.81835-2.36621,1.7246-2.36621,2.44531a1.67508,1.67508,0,0,0,1.916,1.7749c.81836,0,1.292-.30469,2.76172-1.35547l.50781-.38086.331.49512-.71386.71924c-1.42383,1.42822-2.23633,2.104-3.71582,2.104a2.92679,2.92679,0,0,1-3.21289-3.00439C103.84766,22.74475,104.58105,21.65784,107.8252,20.48792Zm2.707,4.11669V19.10168c0-2.33935-.65723-2.91845-2.23926-2.91845a5.70507,5.70507,0,0,0-2.165.42676l1-.75489-.59863,2.04151c-.207.74756-.59082,1.14648-1.25489,1.14648a1.00877,1.00877,0,0,1-1.11035-.97412c.4375-1.834,2.22266-2.97461,4.68262-2.97461,2.50684,0,3.708,1.1377,3.708,4.17285v5.10547c0,1.04541.32812,1.42041.86816,1.42041a1.16986,1.16986,0,0,0,.92481-.52783l.48828.522a2.267,2.267,0,0,1-2.08887,1.25781A2.19631,2.19631,0,0,1,110.53223,24.60461Z" transform="translate(-33.87981)"/><path d="M119.21582,22.56848c0,2.09961.61523,2.82861,1.90723,2.82861a5.228,5.228,0,0,0,3.624-1.81005h.52734v1.24511h-1.24316l.83594-.3789a5.66886,5.66886,0,0,1-4.56934,2.66064c-1.92871,0-3.13867-1.15185-3.11328-4.32031l.07324-6.34326.51856.47363-2.22754-.48v-.8501l3.53906-.33349.24707.24072-.11914,3.3623Zm5.58984,4.42627-.32812-2.80908.07226-7.73633.51954.47461-2.22364-.48v-.84522l3.48633-.33837.248.24072-.07227,3.3623v7.22217l-.63379-.62842,2.26758.48682v.856Z" transform="translate(-33.87981)"/><path d="M50.70215,183.548c-.07227,2.41993-.07227,4.9126-.07227,7.42774v3.74121a24.33177,24.33177,0,0,1-.332,5.24121,4.42353,4.42353,0,0,1-4.498,3.55664c-.91308,0-1.85253-.25293-2.08886-1.17285a1.30692,1.30692,0,0,1,1.46679-1.188,2.77294,2.77294,0,0,1,1.79981.73291l.791.61963-.19628.2583-.19239.019-.043-.19531c.88965-.69482,1.19239-1.60254,1.19239-3.14062,0-1.49317-.11914-4.09424-.23828-15.89991Zm-4.834,0h7.01856v.97852l-3.14649.36035h-.50488l-3.36719-.36035Z" transform="translate(-33.87981)"/><path d="M57.24805,195.381c0,2.09961.61523,2.82861,1.90722,2.82861a5.228,5.228,0,0,0,3.624-1.81h.52734v1.24511H62.06348l.83593-.3789a5.66885,5.66885,0,0,1-4.56933,2.66064c-1.92871,0-3.13867-1.15185-3.11328-4.32031l.07324-6.34326.51855.47363-2.22754-.48v-.8501l3.53907-.33349.24707.24072-.11914,3.3623Zm5.58984,4.42627-.32812-2.80908.07226-7.73633.51953.47461-2.22363-.48v-.84522l3.48633-.33837.248.24072L64.54,191.6759v7.22217l-.63379-.62842,2.26758.48682v.856Z" transform="translate(-33.87981)"/><path d="M73.751,204.49719v.85694H67.57324v-.85694l2.68848-.48h.58594Zm-4.19825-11.06933c0-1.31983-.02343-2.0503-.07128-3.01026l-1.89454-.21582v-.84619l3.34571-1.44873.3623.23877.18946,2.03027.09765.06592v7.4917l-.07226.15283v2.36182c0,1.6709.02441,3.40039.07226,5.106H69.48145c.04785-1.70557.07128-3.38868.07128-5.06006Zm4.92969-4.15772c-.91015,0-2.10351.4834-3.7998,2.13623l-.2168-.43017c1.3916-2.13868,2.95313-3.06934,4.61328-3.06934,2.54785,0,4.56836,2.24805,4.56836,5.96143,0,3.70605-2.12988,6.0581-4.93262,6.0581-1.50293,0-2.97851-.70361-4.23925-3.19873l.21679-.38721c1.2334,1.56934,2.35938,2.22559,3.53614,2.22559,1.80175,0,3.26367-1.40918,3.26367-4.49072S76.2373,189.27014,74.48242,189.27014Z" transform="translate(-33.87981)"/><path d="M80.49414,203.99719a1.53849,1.53849,0,0,1,1.60645-1.03857,2.33857,2.33857,0,0,1,1.7705.90088l.74414.76367-.93457.521-.65234-.521a6.97287,6.97287,0,0,0,3.14063-4.09863l.77343-2.17627,3.66407-10.12647H91.919l-4.30469,11.30957c-1.60645,4.24951-2.93653,6.063-4.91895,6.063C81.5127,205.59436,80.499,204.93811,80.49414,203.99719Zm2.42871-14.5625-2.34277-.36133v-.85156h5.77734v.874l-2.83887.33886Zm3.59961,11.43946L81.47461,188.2218h2.34082l3.73633,10.1499Zm4.08106-11.44043-2.5127-.36036v-.85156h4.69434v.85156l-1.70215.36036Z" transform="translate(-33.87981)"/><path d="M98.59473,198.68274a2.7013,2.7013,0,0,0,1.61328-.66406l.55469.644a3.42828,3.42828,0,0,1-2.82618,1.26367,2.45759,2.45759,0,0,1-2.73144-2.74756c0-.59082.02344-1.103.02344-2.03906v-5.64746H93.23926v-1.05469l2.96875-.38281-.98438.80176.76563-3.90528h1.45215l-.1836,4.20752v7.75586C97.25781,198.15588,97.78516,198.68274,98.59473,198.68274Zm1.92968-10.46094v1.27051H96.24414V188.2218Z" transform="translate(-33.87981)"/><path d="M111.88379,192.51868a4.87473,4.87473,0,0,1-.166,1.34131h-8.88769v-1.023h5.64355c1.15235,0,1.418-.54541,1.418-1.24024a2.61508,2.61508,0,0,0-2.60449-2.60107c-1.50586,0-3.23242,1.28418-3.23242,4.71826,0,3.0415,1.53125,4.65576,3.89648,4.65576a4.13668,4.13668,0,0,0,3.335-1.68017l.56739.45166a4.89606,4.89606,0,0,1-4.60938,2.78515c-3.23242,0-5.34375-2.23486-5.34375-5.89648,0-3.69092,2.53027-6.12305,5.51367-6.12305A4.30809,4.30809,0,0,1,111.88379,192.51868Z" transform="translate(-33.87981)"/><path d="M115.8457,194.57092v-1.144c0-1.31982-.02441-2.04932-.07226-3.00928l-1.89453-.21582v-.84619l3.34863-1.44873.3623.24072.28418,2.99756v3.42578c0,1.48828.02442,3.96045.07227,5.04053h-2.17285C115.82129,198.53137,115.8457,196.0592,115.8457,194.57092Zm-1.77441,4.18457,2.62012-.48h.59668l2.62011.48v.856h-5.83691Zm2.79687-7.4209h1.39258l-.585.19581c.749-2.27295,2.22461-3.62354,3.6416-3.62354a2.00725,2.00725,0,0,1,1.72657.87012c-.00293,1.13525-.4502,1.76416-1.41016,1.76416a2.16348,2.16348,0,0,1-1.46387-.60694l-.65137-.57275,1.16407-.20654a5.71919,5.71919,0,0,0-2.8545,3.78906l-.96-.01025Z" transform="translate(-33.87981)"/><path d="M44.8584,256.2428l2.4043-.36035h.47656l2.62012.36035v.97851h-5.501Zm7.13379-15.20069h1.499l5.51367,16.1792H56.666l-4.78223-14.293.57129-.06884-4.87891,14.36181H46.43164Zm-2.79492,9.84034h6.48046l.39258,1.12109H48.81152Zm4.68847,5.36328,3.00684-.36035h.54394l2.98243.36035v.97558H53.88574Z" transform="translate(-33.87981)"/><path d="M66.75977,256.17249c1.21972,0,2.05761-.54688,3.14257-1.94922l.21973.63379c-.92773,1.68554-2.07519,2.67968-3.96191,2.67968-2.916,0-4.89063-2.40918-4.89063-5.91406,0-3.66309,2.18457-6.10644,5.123-6.10644,1.4082,0,2.57422.58593,3.81445,2.47265l-.24023.61524c-1.36621-1.332-2.31055-1.72754-3.22657-1.72754-1.78027,0-3.31445,1.43554-3.31445,4.69824C63.42578,254.736,64.8418,256.17249,66.75977,256.17249Zm6.66113.19335v.85547l-3.73047.24219-.24414-2.43066V247.9469l.07617-.30957v-5.98926l-2.042-.23974v-.8501l3.752-1.08008.33887.19482-.0957,3.40528v14.14306l-.45508-1.2539Z" transform="translate(-33.87981)"/><path d="M74.87695,251.569c0-3.96777,2.71-6.05273,5.50879-6.05273,2.752,0,5.50781,2.082,5.50781,6.05273s-2.73828,5.96777-5.50781,5.96777C77.56836,257.53674,74.87695,255.53674,74.87695,251.569Zm8.74805.00293c0-3.22754-1.19434-4.96582-3.23926-4.96582-2.09179,0-3.23926,1.73828-3.23926,4.96582,0,3.22852,1.14747,4.874,3.23926,4.874C82.43066,256.44592,83.625,254.80042,83.625,251.5719Z" transform="translate(-33.87981)"/><path d="M87.45117,256.36682l2.57324-.48047-.80468,1.33594c.04785-1.08008.07226-3.55273.07226-5.04V241.64514l-1.96387-.23681v-.8501l3.67774-1.08008.33887.19482-.09571,3.40528v4.5542l.07227.3125v7.38867l-.26074,2.13379-3.60938-.24512Zm9.89453-4.752c0-3.082-1.2539-4.73535-3.05566-4.73535-.88672,0-2.05664.4375-3.75391,2.13672l-.21582-.43067c1.39063-2.13867,2.95313-3.06933,4.61328-3.06933,2.54786,0,4.56836,2.17871,4.56836,5.8916,0,3.70605-2.12988,6.1289-4.93261,6.1289-1.50391,0-2.97852-.68066-4.23926-3.17675l.21582-.3877c1.2334,1.56934,2.498,2.20313,3.6289,2.20313C95.88477,256.17542,97.3457,254.6969,97.3457,251.61487Z" transform="translate(-33.87981)"/><path d="M111.64453,250.12854a4.87125,4.87125,0,0,1-.166,1.34082h-8.8877V250.4469h5.64356c1.15234,0,1.418-.5459,1.418-1.24023a2.6155,2.6155,0,0,0-2.60449-2.60157c-1.50586,0-3.23242,1.28418-3.23242,4.71875,0,3.042,1.53125,4.65625,3.89648,4.65625a4.13711,4.13711,0,0,0,3.335-1.68066l.56738.45117a4.89527,4.89527,0,0,1-4.60938,2.78613c-3.23242,0-5.34375-2.23535-5.34375-5.89648,0-3.69141,2.53028-6.124,5.51367-6.124A4.30848,4.30848,0,0,1,111.64453,250.12854Z" transform="translate(-33.87981)"/><path d="M45.79688,126.91711v-.97851h3.38867v1.33887h-.248Zm3.38867,13.7461v1.33887H45.79688v-.979l3.14062-.35986ZM48.05176,133.379c0-2.47217,0-4.96826-.07129-7.44043h2.41015c-.07128,2.42383-.07128,4.92041-.07128,7.44043v.90527c0,2.74951,0,5.24561.07128,7.71778H47.98047c.07129-2.42432.07129-4.92041.07129-7.7168Zm1.13379,7.50293h3.083c3.71,0,5.75293-2.53321,5.75293-6.88965,0-4.51856-2.043-6.93408-5.54687-6.93408H49.18555V125.9386h3.69433c4.59278,0,7.75586,2.84082,7.75586,8.05176,0,5.17431-3.543,8.01172-8.23242,8.01172H49.18555Z" transform="translate(-33.87981)"/><path d="M66.793,133.23108c2.16406,0,3.44922-1.15918,3.44922-3.20264,0-1.75683-1.07031-2.75879-2.94629-2.75879a6.80886,6.80886,0,0,0-2.02637.33594l1.05567-.68408-.4502,1.68408c-.2832,1.04248-.57227,1.54395-1.415,1.54395a1.171,1.171,0,0,1-1.209-.88135c.43066-2.07178,2.25683-3.08789,4.46093-3.08789,2.80469,0,4.60059,1.543,4.60059,3.77246,0,1.99951-1.52246,3.59131-4.085,4.13867v-.40723c3.10644.26709,4.58691,1.82227,4.58691,4.03809,0,2.61035-2.14062,4.59473-5.38867,4.59473-2.3623,0-4.18359-1.00977-4.59863-3.418a1.30049,1.30049,0,0,1,1.21777-.78467c.80274,0,1.084.52588,1.41309,1.729l.49219,1.84864-.97071-.8711a5.67867,5.67867,0,0,0,2.12989.40625c2.36132,0,3.55664-1.28125,3.55664-3.44433,0-2.08252-1.2168-3.34375-3.66114-3.34375H65.84766v-1.208Z" transform="translate(-33.87981)"/><path d="M75.666,140.61145a1.708,1.708,0,1,1,1.708,1.70557A1.71782,1.71782,0,0,1,75.666,140.61145Z" transform="translate(-33.87981)"/><path d="M83.93066,135.83264c0-1.32031-.02441-2.06445-.07226-3.02441l-1.89453-.21582v-.84619l3.6123-1.44873.36328.24072-.07226,3.25439v5.8042c0,3.92139-.15821,5.66992-1.42383,7.02832a3.77245,3.77245,0,0,1-3.03223,1.35987c-1.45605,0-2.124-.74707-2.14453-1.38526a1.37259,1.37259,0,0,1,1.42774-.98242,2.89844,2.89844,0,0,1,1.79882.73682l1.06543.80127-3.1289.38378-.00586-.94726a1.94655,1.94655,0,0,0,1.42383.57275,1.459,1.459,0,0,0,1.5791-1.043c.37793-1.0166.5039-2.95556.5039-6.56494Zm-.62011-9.729a1.61119,1.61119,0,1,1,1.60937,1.53467A1.51905,1.51905,0,0,1,83.31055,126.10364Z" transform="translate(-33.87981)"/><path d="M89.12695,141.39417,89.04,138.75891h1.30957l.6416,2.854-1.18555-.54688v-.82617a4.60461,4.60461,0,0,0,2.95508.9834c1.82129,0,2.67969-.72754,2.67969-1.82373,0-1.01612-.7041-1.542-2.2207-2.08936l-1.11524-.40625c-1.75781-.64209-2.90429-1.59473-2.90429-3.23682,0-1.75586,1.48242-3.36962,4.17871-3.36962a6.21609,6.21609,0,0,1,3.36328.98291l-.09961,2.436H95.40039l-.49121-2.45459.89062.39453v.63916a3.91954,3.91954,0,0,0-2.44824-.90429c-1.46484,0-2.22949.63818-2.22949,1.63818,0,1.05664.58594,1.46777,2.21875,2.06152l.74609.26807c2.39356.87646,3.30567,2.01123,3.30567,3.51611,0,1.81983-1.58789,3.4419-4.67774,3.4419A7.34838,7.34838,0,0,1,89.12695,141.39417Z" transform="translate(-33.87981)"/><path d="M44.8584,83.445l2.4043-.35987h.47656l2.62012.35987v.979h-5.501Zm7.13379-15.19971h1.499L59.00488,84.424H56.666L51.88379,70.13147l.57129-.06885L47.57617,84.424H46.43164Zm-2.79492,9.83984h6.48046l.39258,1.1211H48.81152Zm4.68847,5.3628,3.00684-.35987h.54394l2.98243.35987V84.424H53.88574Z" transform="translate(-33.87981)"/><path d="M61.77832,69.69934,58.64355,69.339v-.97852h6.53516V69.339l-2.90137.36035Zm8.22461-1.33887h.86426L75.167,81.77014l-.64551.145,3.752-13.55469h1.21875L75.10352,84.58508H74.06445L69.50293,70.964l.7832-.04443-4.2998,13.66552h-1.0166L60.28711,68.36047h2.34766l3.59961,13.40967-.71778.145Zm.24609,1.33887L67.18457,69.339v-.97852h6.52051V69.339l-2.92969.36035Zm7.96192,0L75.707,69.339v-.97852h5.44922V69.339l-2.45605.36035Z" transform="translate(-33.87981)"/><path d="M90.19824,80.6842c0-1.54345-.918-2.23242-2.96972-3.03857l-.918-.36621c-2.46973-.97852-4.14649-2.37256-4.14649-4.833,0-2.76709,2.32813-4.45117,5.40918-4.45117a6.47236,6.47236,0,0,1,3.94824,1.269L91.375,72.39856H89.89062l-.667-3.624,1.5586.78613v1.19971a4.40081,4.40081,0,0,0-3.34082-1.55225c-1.84375,0-3.24219.93213-3.24219,2.70459,0,1.49853.97168,2.37353,2.70508,3.044l.94726.36865c3.16211,1.2334,4.3877,2.62109,4.3877,4.8872,0,2.83252-2.36426,4.57618-5.69824,4.57618a9.275,9.275,0,0,1-4.68848-1.271l.14355-3.37207h1.48633l.624,3.707-1.57715-.667V82.03381c1.49023,1.06494,2.3164,1.542,3.94336,1.542C88.71973,83.57581,90.19824,82.52405,90.19824,80.6842Z" transform="translate(-33.87981)"/></g></g></svg>